<mxfile host="Electron" agent="Mozilla/5.0 (X11; Linux x86_64) AppleWebKit/537.36 (KHTML, like Gecko) draw.io/26.0.4 Chrome/128.0.6613.186 Electron/32.2.5 Safari/537.36" version="26.0.4">
  <diagram name="Page-1" id="SJRvZEHLuwr5QUiGrR1r">
    <mxGraphModel dx="1388" dy="838" grid="1" gridSize="10" guides="1" tooltips="1" connect="1" arrows="1" fold="1" page="1" pageScale="1" pageWidth="850" pageHeight="1100" math="0" shadow="0">
      <root>
        <mxCell id="0" />
        <mxCell id="1" parent="0" />
        <mxCell id="pc7x9cxA0kI3egbfRs7N-2" value="" style="shape=image;verticalLabelPosition=bottom;labelBackgroundColor=default;verticalAlign=top;aspect=fixed;imageAspect=0;image=data:image/png,iVBORw0KGgoAAAANSUhEUgAAA44AAAF8CAMAAAC37BWdAAAAY1BMVEX////wUDPwUDPwUDPwUDPwUDM9LQA9LQA9LQA9LQA9LQA9LQA9LQA9LQA9LQDwUDPwUDPwUDM9LQDwUDM9LQA9LQDwUDPwUDPwUDM9LQA9LQDwUDM9LQA9LQDwUDPwUDPwUDPvkRCLAAAAIXRSTlMAIFCAsMAQQICgwND/kHCQ4P8wQCDgMBDQ8FDwYLBwoGCQsySBAAAWkUlEQVR4Aezdh2KDvA5AYXUhA8qGtNB0vP9L3vvv1RlEY0c53zscpi3Lmbq6vrm9+9XtzfWV4BJVmuqmtb+0zWKplZwYrlbrzT+tV5dWJLaL1t7VLrZyOtjdbd6628nFQJd6+0S/6AQnsb/bvO9uLxcBXW1fqgnyFG42H7uR+FAl+5a6Evys+4fNZx7uJThob980jIKftF9vPrfeS2hIdoRa8HP2j5uvPNJjaLUdpakkC2qkR2p8q6XHTDXSIzW+1UoG1EiP8S1tgloyoEZ6jE5tkoNkQI30GFvV2yRDJxlQIz2GlmyiJ8mAGukxsm6wqVSyoEZ65KvqW41kQI30GFc12HRbyYoa6ZGfHPzsyFMjPcbXmsMgGVAjPUbVmcso86NGeuRZNfPTKjXSI57MpRfMVSM9YjCfTjBPjfSIzpxGwTw10iPUnJJgnhrpEcmcakH+GumRHFknN2uN9IjGnFrBXDXSIzl6CXw1BuwR5EiNrh5BjtQYskeQIzU6egQ5UmPgHkGO1OjtEeSo6UsdNZ6kR5BjbV/S8DXSI57MqT3RRUGp8SQ9gkVyfZgcHTXSI5ZFLCG3ryk1nqJHsMGqipOjo0Z6RGVOKn56UTlefVQjPaI3n0r8DheV4/3DptweweiqFCFHevTDoYAvOU+l5EiPYOxxW0qO9AgOBbAQOdKjHw7Zn1W3peRIj+BAuTFIjvToh0XuMXKplBzpERxG3gTLkR7hkDLPWB2C5UiPcKh6m2ToZA6dRcuRHuGgNslSZnHIkCM9BsPXnCeZxyJDjvQYCzM62krm0QbMkR7hULW+F0eHyjLkSI+R0GO/lZkcYuZIj3ConjxPqg518Byv7unxR/H7sa5kNkPsHPePD/Q4AbS3b+lHmc/W/DkWPheHHidBGuxLQ6py/GPRs62RHidClXpHjFP0/hzLrpEe4TA+DfaRp4PMbGv+HIuvkR7hMKbG3mjSKPOr/TmWXyM9wqnTZUp184s6paV2ufc+61nWGLJHMBlEz7tGekT5Wn+OBdcYtEews0vPvUZ6ROEaf47l1hi2R7DtWc+txrg9gl2WGqBGekS5RjuCBqgxSI9gYpYGqDFIj2CepMaokR5RpK0dRQPUGKRHMA1Eo9RIjyhPbcfRADUG6REcY6dxaqRHlGW0Y2mgGukRJdkO/hwLrTF+j6BG01A10iNKoRNqNI1VIz2iDAebQgPUGKRHcPa5BqhxUo/r25vr3W+eb+4e6XFG2LY2jZ5hjf4eX16v5F/2qzU9zgTJptLSa3T0eJzdCz3OANrbZBqlRn+PcvVCj3DSxhw0To3+HmX3QI9wGBtzSZFq9PcoN/Q4EbrUm9dTmqArtUZ/j7tHejweumVruWixNfp73K/p8Sjoxrq3jDR7jf4e/csE6BGdpqfeMtOSa/T3yP3RYav6//buBbFNHIrC8MnDSIgLMRjigKF4/6ucdt4zaRL7Bqu60fkX0CdfJARIs/9RHf7I/9HknEPU/Hb1+Ek+VJJEzoBGjUf970+PbvLlx9fnGILipChV3a0veEklZ0Kj3uN9S4+X108+DHJdoWwcbpsjx7Q06j0+0eNlOb+Moi3UU4Gb1ZBjAhoVHlW3j/TYN8uY8AXpyTE1jWqPh/bd6LGrK5GkL8hAjslpVHvc0eNH758kzrEix/ga9R6VwyM9zkFSy+m0kKNeo97jdsMjPRZ+ELHAsSDHJDW2e2g6t6+ix74cRWxwdOSYpMb2G1Sd6PEVRhGxwnEmxyQ1tndQtbb0+O8KP4ohjp4ck9T4gg1ezaHHeRSxxHEhxxQ1tk/QdWz/jh67IGKLYyDHFDW291C2p8fXMz8zHEdyTFFj+wxljy09/l5fiT2OQo4pamyh7aGlx9d3jUY4OnKMrjECR3qsRQxynMgxSY07aLtv6RFFEJMcPTnqNSbJ8dDSY1eJTY41Oeo1ZsfRiMduFKMcAzkqNWbAUeeRGvUX5ECOKWpsT/GXciJ7pEZxeivkqNdocGVV75Ea9RdkT45pamzvEngNQOWRGvUXpCPHNDXqX5J7aXP2WFRimGNDjmlqbB/0r5Dn7DGIZY6eHLUaE11avW9z9liLaY6BHBUao6Tf+jhfj5OYihzNaGzP+lvHXD32o3GOQo6Jamx3+j9irh6DGOfY1SM5pqdR86iDHhuxzhHAVI7kmKDGdoVhj5yq6i/IeSHHpDQqhkd6XOSLcASKOcS/4NGX8WFZ0KgYHunRiWGOr+ubKjZHFKLLGdSo6ECPl1eJjaoQSu+bCw457+shLkeE+BztaGz3R3q8tFm2aQyh9n+0hEE2KYRQXybwvaVWcoyvUTldpccN5FTl7F55mOtKlNV+dq7DJ5sCOaag8Udneow0OC5zjzcq5kXHG9tUkmMaGukxzuA4+B7v1qtO+vDYpkCOKWj80TM93npZdZj1R+9EuU4nckxAI8fHGM8cR4/LKpbroRfYJHKMr1F90CM99qIu9Li4aZQrq7FJgRzT0PijxyM9vp8XbfWN92915Ji2RkX7e3q8zULOfOu9P4aCHBPXqGh3R49v18XSqPDoyTF5jYrWAz2+VR1NI1AMclVjT44GNeo/R6bHQVQ1UXaOLMnRrEYFx7vsPfaiaon0lXNPjlY1Kjg+rLl7bETTWETCUZKjWY0Kjm3uHhfRNEUbjXtyNKtRwTF3j6MoCvHe6S7J0a5GBce8PXbRL6FePy0mR2saFRyz9tjEHRwVw2NDjoY1Kjjm7LEURXPMD0gqcrSsUcExY49Brm+M+6SzI0fLGhUc8/Uoisq47wHV5Ghao4Jjrh57UTTF/SB4IEfbGhUcM/XoRFHsIbknR9saFRzz9Ngo11WjAmnI0aZGBce8PXq5Ph/7I5KFHG1qVHDM2+Mi1zfFHpNHcrSpUcExb49Brq+Lfsfak6N5jQqOFj3G5xh/PXciR5MaFRzz9ijXN8b/bT05mtSo4Ji1Rw3HEP+3XcjRvkYVR/seLXAc9b8lOdrRqOCYt0c9x6hCyNG+RiVHCx7JkRwNaFRwzNqjhqNHfI49ORrWqOCo8HjaPTwcfnT/8LSz6VHDcUF8jo4crWpUcFR43H37n5TD0/5GHrmySo72NWo56g8yv3+M75EcydGYRgVHnUfcPcb3aJBjL68ix3w0KjgqPeLwYsmjhuMQ4StLcoyq0QBHrUc8WfIoiiJ8ZUmOcTUa4Kj2eH+y41EUdRG2ryPHuBoNcFR7fN6b8VjJ9c0RDs0ix8gaDXBUezy+WPEY5PrqCCs55BhbowGOeo9WxsdFrq+Kv0FPQY4fdGdJo5ajfr56suHRi6I++gGvIMfI87E0Oao93rcbtz8mc0RHE/kxBznql/NtcjTwvOMlmX1Wq9jHggRyfL9DmwtHtcd9u3EP2L5CNHU3XMghR0X7fDi2ayo/sZ6xfYMoKiPr8OT4buc2I45aj4+x/hLxzyLvoW7a/GaVHPdZcVR6vGu37pDI0qoEaCuGra9Ycjy3eXFs1y87PDpRNUUdjfFe5PiYG8c9NN1buHsUVWMfcTAeyPG9jm1uHJ8SmdM/YfOCqKoKKJpFU0mO73WfHcfnRJ497rF5jehaommUmRzf6yk3jvtkfm7dYes6UVZur5HHrWra5cZxhbJ2684JPHnUzldL0TXgvcjxlBvHb1C2M/BmTi3aBofL6ypRVpPju7W5cTxA2WrgUUcn+uoCl1V4UTeR478jxyOUPRjgiEr0DTMuaR5E3Yh/R47kCG33FjjO8pmGpsD7Fc0rjOq5KjmS4ymdD19O2L5ilM+1zO+InEr5XB05kuM2Q9LBwuiIWj5d8FOPVzm/yGerkBNHciTHXrYpBO/95L43eV+HQbZoJscP2mfG8eWLc0QpyTbig8jxkUs5v4rjE25RL8nmyfGjHsjxV/1LnZHX8DgW5PhRz7lxfE6G4zNuUjGaHRzJEafMON6n8pLcHjfK2x0cyfEpM45PqfzcWnGrKkmxGR9HjneZcXxJZVZ/wK3qJMECyPGSdjlx1L+0+i2Buarl6WpHjhd1yIzjGape4q+r6qusruOQI9a8OO6SmNPvccv6UdKqwoWR4/GUFcf2LoUVrwNu2iRJNXbkeHH3eXFcE/iR9YQb562uqpIjHrLi2N798n+hlyNuXSnpVIMcr2nNiuOj/jza+OetqgtWn3GQI9YcOOpv3B7taURRSRpVBTkqPGbAUXn68L1Bjcl4VGgkR6wZcWxX/VTVjEagCFYXVckRawYcVQ/hjy8GNKa6nlN1IEdVaw4cFR5XsxoBb3WmSo5YM+J4es5BIzCNRjWSI9Z8OLancw4agb6SX1YJkGMEj8Y46k/rOO6sakxgwtqAHGN5tM+xXY/4oOe9AY2KE25iNDqQYzyP9jm2+wPe6/jQpqhRUTNK7JYC5JiDRz3H1z3e4c3O+0Q1Kip8XJDjjC0iR6yGOSpan/UY42vU15gcGskRq2WOil6+vRoin59OLTVqGxyQJ0ePCB6tcVSIfDof8EfHw7dHvcVUNZZm56nkiNU+R5WZ3Uv7uahx9AXy5VgjP496jqrsayyiaRx8AWTMMSAvjwqO1FhJnKoZQNYcK6TgkRypcSw7IHeOgqgeyZEa3znDnBy7fDwqOFJjd3uN498WyXFGNh4VHKlxvNSU6Kpqh78jxxLmPSbAkRqLfq6DXNUYvCvw78hxgHGPCXCkRpnwe93klyAfF0rveryKHKUz7jEBjtQY8J+cm71fQgiD/KsqhOB94xzejBxrmPaYAEdqHHtsEzmOyMGjgiM1ql+1JMdatM2WPSbAkRorkONmG5oMRT4eFRypUX+xkqOiGhl4VHCkRu31Q46N6JusekyAIzWOBTm+ysU7BqFvOtMe1RypMcIPc3KUccKlFfOimJ6sX5UjNQaQ4+sK+VR1cdm4GJSv8qxfkyM1jj05/iz5XMP8EcW5HPSv8mA1x5Ea9Y8cybGSTzbWbyJzTTl8drv29Qty5PeNFcjxZke5j4ufHP6pcM77MGzzv7Aa4EiNqLa4TsnRy3YN4XvyXr0BjwqO1Fhu8siaHGeJ2QyzHk/f3uRIjbO8SvPIkRw7idkCox5PD0e80fMue43duM0PZXKERK1I16P+DLjzKV+NihvHwXWZcJyi/U7KJhj0eDrg/Y6PWWv0oil8z3/Pfa9A2o3RNuuvJWYl7Hl8OeLDzhlr7EfZoiqEUHvvZ+dcj6Ry8e7NJonZCHMeV1zS8ylXjSjlJg0hhNJ7PznnYHTP2A7XVkjUnDWPK6D3mIPGXnQpdP6Bs0DUumYUdaUrkr55rGHL4wroPeagEaXEr/pBc3YdblnvGr98XscYSj9drrKRmA0w5fERl/ecpcZCfmk/XG7NsnO+DpVsXFj87PqbTjYU9ZY8vhxxRecMNWKWFBpC3Wwwi518GcZbD+zev2ugkpg1MOTxGVf1mJ9GBEmnIfjpUyYlTj6d2WoFOx4fcF3HU3YaC0mtoWw6yxwLiVphxuMLru0+N42YJMWGci6sckQpMZthxeMBV7fLTCO8pFpoepscncRsgRGPO1zfITONCJJwYS4MckSQmMGIxwMU7aJpJEfFWeUmODqJ2WTD4x6aznlpxCipF5w1jggSsRImPH6DqlNWGiEGCs4Yx04iNsKExzuoWrPSCDFR6E1xRC0R6yx43EPXOSuNECN5UxyLQeJVw4DHJ+g6ZqURlRip6gxxhJN4DTDg8Qxl+5w0IoiZGkMc4SVevQGPz1D2mJNGLGKnsrDDEUGi1SB9j9D2kJNGeDFUVdjhWFQSqwrpe9RzzEkjJrHl0QDH6B4Dkve4g7ZDThrRizGPBjjG9RgcNmo1ztG+RqAy5tEAx5geyw7btRrnaF8jarFVaYcjikVu2uALbNpqm6N9jejFWI0BjlFWypYJyuJ73EPbOSuNQBBbjZ0hjnDDrQbGHrdoNb2yal8jnBirssQRRR3/s7MEPd5B2Zq2Rg6P0ljiCHRhY4sTABjzeICyXWYa0Y9iq7EwxRFwm4EcVBYT8PgAZblpBBoxljfGEXClfL7Kd4jRmtDS6iE7jUBpbni0xhEomir+3noJeTxC1VPyGvkugHh7HAH0SpFVOffQl4bHe6jaZ6gRhTGPQxIcFRVTXckVDYt3BfSl4/ERmp4taOR8dUqGoyLXlGG86NQS6EvO4x0UrRY0cj1nwU/zcdqEiXPe1yGE4fUpmHMCx0evKaytHk+ZagS6SgxVgNnyeDri6h7sa9Q3j2KmCcaixydc290pY41A0QxipBLWoserNTwa0cgVnQHWoscXXNc9NZqph7Xo8Uk/VaVG3jyy9dfttnp8oUY7ediJHhUoVmo0VMBXjh6pMZW4lkOP1GgsmIwez/i4444ajdXhi8b11ed95hprMZeDzejx5Vn/alwWGmex1wyj0WO7HvFm9/vcNbqrdlV0zs3e+yWEwCcd9KhD8nSHn3betblr7Ef9w3f0zrnGex9CGMiRHi/u8fxqiHx+2rfZa0S1IYHOOee9L0MIIznS47vtHg53+LPDef1hkRrrGz56d87NN9JZIr3oUUFmt9u9tH9GjU65gZui4gfOOlR8LYcefxo1FkP8Rwvo5roiR3qkRv1UtcamFfNCjvRIjbrz5IYCW9eX5EiP1PhP4dc+du8rcvwzeqRG98uv/pIc6ZEar8XgcKMW0VXDfvRIjao7xwq3qhj5GgA9UiMAn8IL254c6ZEaAQwp7PpdiKoGXyl6pMYujXWTit870iM1wqcxM1zIkR6pESGNXU0998qhR2pEIkOR505y9EiNXSJb8Ifs3wKgR2rEbJmjxxeKHqkRPpHJKs/ooEdqxJLGxd/xBCt6pEaENF4QrbmSQ4/UeA3HCjerGLlTDj1SI4YktuD3vHWkR2oE5IqWG27yypcA6JEakcQ7aUE0LbAfPVKjmuNY4BaVPKCDHqnxao5SFeloHPG1okdqxHClxx4bVwRuzEGP1Ki7bRsdNm0aRYTvANAjNepWUcoCm9Uv3NORHqnxMzduo98IZFfy4GN6pMZPP4AvP4+hmCseB0CP1PifJtE11A76+maR/8bBkR6pEb2oG4N3Ba7ONeUgr+IrAPRIjcAon2oIvnE9LqlzjQ9vSuSyKj1SIxbZpBCC/97s/lfjv7eEUPEQcnqkxg+bxV4VGD1+RY3oxV4dGD0a0KgoiLU8GD2moZGz1QBGjzY0KhrFVEMBRo9fVSO8WGrswOjxy2pEMYqhJjB6TEMjh8cZzEIrNaobqJEl4pEa4aiRGfGo0MjpKjWylRq1VdTIEvFIjSgGPuFgaXikRqAbJe2qHowek9BIj2UBRo8paKTHcUZG0SM1At0giRZ6ZBU9UiNQVJJiYwNmt5UatdUcGlkiHqkRcKOk1TAhz+iRGoGi5Dx149hKjepclQxGX4B9hVZq1DcPxMhieaRGAyCHmRjpkRr/bK7kF7Y4MHqkxn9ypfyaBt+D0eN/NbJiDhK7se7A6PFnGlnfxBQ51A6MHt/WyIq5HCVCoenA6PFDjaxrlpuSrOqpAKNHary0fq6DKNIf2srokRrfq5v8UslGVYufejB6/IxG1rvGL2EUbUMo/dSB0eN2GlnhXOP9EkK4DGEovZ9cD0aPN9dInH80+3/nfvSaIKNHamTMikdqZCxCKzUylkwrNTJmxyM1Mhath/bd9tTIWLzuT+9ofDyCMRav42P7Rqd7MMbidtj9FOPDEYyx6D2vp/a/vZx/FUbG2OFhd/qL4nq+A2NfoN8AmYeH6ATdH6kAAAAASUVORK5CYII=;" parent="1" vertex="1">
          <mxGeometry x="84.08000000000001" y="29.880000000000024" width="96.38" height="40.25" as="geometry" />
        </mxCell>
        <mxCell id="pc7x9cxA0kI3egbfRs7N-25" value="Amazon ECR" style="sketch=0;outlineConnect=0;fontColor=#232F3E;gradientColor=none;strokeColor=#ffffff;fillColor=#232F3E;dashed=0;verticalLabelPosition=middle;verticalAlign=bottom;align=center;html=1;whiteSpace=wrap;fontSize=10;fontStyle=1;spacing=3;shape=mxgraph.aws4.productIcon;prIcon=mxgraph.aws4.ecr;" parent="1" vertex="1">
          <mxGeometry x="660" y="0.005000000000023874" width="80" height="100" as="geometry" />
        </mxCell>
        <mxCell id="pc7x9cxA0kI3egbfRs7N-26" value="Amazon EKS" style="sketch=0;outlineConnect=0;fontColor=#232F3E;gradientColor=none;strokeColor=#ffffff;fillColor=#232F3E;dashed=0;verticalLabelPosition=middle;verticalAlign=bottom;align=center;html=1;whiteSpace=wrap;fontSize=10;fontStyle=1;spacing=3;shape=mxgraph.aws4.productIcon;prIcon=mxgraph.aws4.eks;" parent="1" vertex="1">
          <mxGeometry x="772.27" y="0.005000000000023874" width="80" height="100" as="geometry" />
        </mxCell>
        <mxCell id="pc7x9cxA0kI3egbfRs7N-3" value="Jenkins Pipeline" style="rounded=1;whiteSpace=wrap;html=1;dashed=1;dashPattern=12 12;verticalAlign=top;" parent="1" vertex="1">
          <mxGeometry y="181.52" width="900" height="210" as="geometry" />
        </mxCell>
        <mxCell id="pc7x9cxA0kI3egbfRs7N-6" value="Checkout" style="rounded=1;whiteSpace=wrap;html=1;" parent="1" vertex="1">
          <mxGeometry x="87.27000000000001" y="271.52" width="90" height="60" as="geometry" />
        </mxCell>
        <mxCell id="pc7x9cxA0kI3egbfRs7N-7" value="Build" style="rounded=1;whiteSpace=wrap;html=1;" parent="1" vertex="1">
          <mxGeometry x="200.26999999999998" y="271.52" width="90" height="60" as="geometry" />
        </mxCell>
        <mxCell id="pc7x9cxA0kI3egbfRs7N-8" value="Unit Test" style="rounded=1;whiteSpace=wrap;html=1;" parent="1" vertex="1">
          <mxGeometry x="314.27" y="271.52" width="90" height="60" as="geometry" />
        </mxCell>
        <mxCell id="pc7x9cxA0kI3egbfRs7N-9" value="Integration Test" style="rounded=1;whiteSpace=wrap;html=1;" parent="1" vertex="1">
          <mxGeometry x="427.27" y="271.52" width="90" height="60" as="geometry" />
        </mxCell>
        <mxCell id="pc7x9cxA0kI3egbfRs7N-10" value="Package" style="rounded=1;whiteSpace=wrap;html=1;" parent="1" vertex="1">
          <mxGeometry x="540.27" y="271.52" width="90" height="60" as="geometry" />
        </mxCell>
        <mxCell id="pc7x9cxA0kI3egbfRs7N-11" value="Containerize" style="rounded=1;whiteSpace=wrap;html=1;" parent="1" vertex="1">
          <mxGeometry x="654.27" y="271.52" width="90" height="60" as="geometry" />
        </mxCell>
        <mxCell id="pc7x9cxA0kI3egbfRs7N-12" value="Deploy" style="rounded=1;whiteSpace=wrap;html=1;" parent="1" vertex="1">
          <mxGeometry x="767.27" y="271.52" width="90" height="60" as="geometry" />
        </mxCell>
        <mxCell id="pc7x9cxA0kI3egbfRs7N-13" value="" style="edgeStyle=orthogonalEdgeStyle;html=1;endArrow=none;elbow=vertical;startArrow=block;startFill=1;strokeColor=#545B64;rounded=0;strokeWidth=2;" parent="1" source="pc7x9cxA0kI3egbfRs7N-7" target="pc7x9cxA0kI3egbfRs7N-6" edge="1">
          <mxGeometry width="100" relative="1" as="geometry">
            <mxPoint x="300" y="411.52" as="sourcePoint" />
            <mxPoint x="400" y="411.52" as="targetPoint" />
          </mxGeometry>
        </mxCell>
        <mxCell id="pc7x9cxA0kI3egbfRs7N-14" value="" style="edgeStyle=orthogonalEdgeStyle;html=1;endArrow=none;elbow=vertical;startArrow=block;startFill=1;strokeColor=#545B64;rounded=0;strokeWidth=2;" parent="1" source="pc7x9cxA0kI3egbfRs7N-8" target="pc7x9cxA0kI3egbfRs7N-7" edge="1">
          <mxGeometry width="100" relative="1" as="geometry">
            <mxPoint x="210" y="311.52" as="sourcePoint" />
            <mxPoint x="187" y="311.52" as="targetPoint" />
          </mxGeometry>
        </mxCell>
        <mxCell id="pc7x9cxA0kI3egbfRs7N-15" value="" style="edgeStyle=orthogonalEdgeStyle;html=1;endArrow=none;elbow=vertical;startArrow=block;startFill=1;strokeColor=#545B64;rounded=0;strokeWidth=2;" parent="1" source="pc7x9cxA0kI3egbfRs7N-9" target="pc7x9cxA0kI3egbfRs7N-8" edge="1">
          <mxGeometry width="100" relative="1" as="geometry">
            <mxPoint x="220" y="321.52" as="sourcePoint" />
            <mxPoint x="197" y="321.52" as="targetPoint" />
          </mxGeometry>
        </mxCell>
        <mxCell id="pc7x9cxA0kI3egbfRs7N-16" value="" style="edgeStyle=orthogonalEdgeStyle;html=1;endArrow=none;elbow=vertical;startArrow=block;startFill=1;strokeColor=#545B64;rounded=0;strokeWidth=2;" parent="1" source="pc7x9cxA0kI3egbfRs7N-10" target="pc7x9cxA0kI3egbfRs7N-9" edge="1">
          <mxGeometry width="100" relative="1" as="geometry">
            <mxPoint x="230" y="331.52" as="sourcePoint" />
            <mxPoint x="207" y="331.52" as="targetPoint" />
          </mxGeometry>
        </mxCell>
        <mxCell id="pc7x9cxA0kI3egbfRs7N-17" value="" style="edgeStyle=orthogonalEdgeStyle;html=1;endArrow=none;elbow=vertical;startArrow=block;startFill=1;strokeColor=#545B64;rounded=0;strokeWidth=2;" parent="1" source="pc7x9cxA0kI3egbfRs7N-11" target="pc7x9cxA0kI3egbfRs7N-10" edge="1">
          <mxGeometry width="100" relative="1" as="geometry">
            <mxPoint x="240" y="341.52" as="sourcePoint" />
            <mxPoint x="217" y="341.52" as="targetPoint" />
          </mxGeometry>
        </mxCell>
        <mxCell id="pc7x9cxA0kI3egbfRs7N-18" value="" style="edgeStyle=orthogonalEdgeStyle;html=1;endArrow=none;elbow=vertical;startArrow=block;startFill=1;strokeColor=#545B64;rounded=0;strokeWidth=2;" parent="1" source="pc7x9cxA0kI3egbfRs7N-12" target="pc7x9cxA0kI3egbfRs7N-11" edge="1">
          <mxGeometry width="100" relative="1" as="geometry">
            <mxPoint x="250" y="351.52" as="sourcePoint" />
            <mxPoint x="227" y="351.52" as="targetPoint" />
          </mxGeometry>
        </mxCell>
        <mxCell id="vg7iDxErdAY9kMYI0GIy-1" value="" style="shape=image;verticalLabelPosition=bottom;labelBackgroundColor=default;verticalAlign=top;aspect=fixed;imageAspect=0;image=data:image/png,iVBORw0KGgoAAAANSUhEUgAAAiwAAAMACAYAAAAHbjwQAAAABGdBTUEAALGPC/xhBQAAACBjSFJNAAB6JgAAgIQAAPoAAACA6AAAdTAAAOpgAAA6mAAAF3CculE8AAAABmJLR0QA/wD/AP+gvaeTAAAAB3RJTUUH6AcWBCQFdxpa6QAAgABJREFUeNrsnXV8FMf7xz+zu+dxT4jcJYEAwd3dpaW0UKMtVGhL/Veh/q27uyt1N4oVLe5OAlFCCEQvyeV0d35/QIUSubvdS+4u8369vq9vye3Ozs7Mzn72mWeeh4DBYDBaH85oNMYJkhRFAR0FIkCIlqOcHkQKA6CVKAkhhIQCkgaEhDVbGqW1hBDxr39KEhrAoRaU1nKUq5VAaihPaymltRpRrBVsYbX7y/fXs25gMAIHwpqAwWAoRd++fVXV1dUmntIEidIkKiGeAxIokAiCOAIkUSAOp/7Ht3F1JQCVICgDJcWAVEopOcYRWkKBUkjCUSdxHisuLq5mPctgMMHCYDACDz4zJcUIns+klHQEpE4A6QigI0DTACIE2f1aARwFRQElOEAoOQiIB+ySdLCkpKSKDQcGgwkWBoPRxmR2yEyGytWXUtoPhPQARRYAEwA1ax0AwAkABwhwCKD7JUoPSRy3v7CwsIw1DYPBBAuDwfABWSkpSSKEfuBpX0pJX4D2AxDPWsYrjoFiGwjZBkK3qZzOrYeOHatkzcJgMMHCYDA8g8tMS+tJgTGUkJGEoh+ARNYsPp1sD1HQP0G5dQKR1uUUFRWwVmEwmGBhMBj/IT05vSMRpDEAxoLS0QCJYa3SphwD6EpCueVOIq0oKio6zpqEwWCChcFod5hMpngiSeM4kLEUGAsglbWKP0P3UXDLQMXFkbGxa7dv3+5kbcJgMMHCYAQlWWlpJicl5xBCpwEYFYQ7dtqHdAEsHOgqSrlvRI7+XFhYWMNahcEEC4PBCGjS09M7wSVdTAhmAchmLRJ0OACyHBRfEzX/45EjR2pZkzCYYGEwGAFBVkpKkshxF1HgYoD0Yy3SbrABWEIo+cJ1yvJiY03CYIKFwWD4FUajUStIZDqIdDkFJrHlnnaPGQRfUYn7NL84/0/WHAwmWBgMRlvCpaemjiYcdzkonQmQENYkjEYm8t0AfZfXaj/JycmpYy3CYIKFwWC0Ch3T0rpQQi6UKC4npyLLMhjuUAeCL4gkvXKkuHg/aw4GEywMBkNxkpOTozSc6lIQXAHQvqxFGDKgoFgGQp/JKypayZqDwQQLg8GQC5eemj6EcNJloJgDQM+ahKGscsEuQsmLecUFnwEQWYswmGBhMBhuYzQajQIwl1LMAwvoxmgdDlLQx/KLir4EILHmYDDBwmAwmhIpWo7SmQSYB5AxADjWKv/ACxyiIiIQFxOJsFADdDottBoNDHotdDodtBo1DHotDHodXKIEu90OAHA4XLD9/d9O2Ox21FusqKyqQY25FtU1daiuqYVLZMaF0+whlNx/pLjgF9YUDCZYGAzG32SmpGRQjruOgFxJgaj23BYatQoZ6anINKUgtUMiUpPjkZqciIT4GERFhIHjfKfhauvqUVldi5qaWpSeKMfRkhMoKS3D0dIyFJecQHlFVXvrjk0cRxYeLihYy55SBhMsDEb7hUtPS5tMQG4AMBHt0JrC8xwy09PQt2dn9OyWhc6ZRhhTksALvF/W12Z34OixEzh67Djyi47hYG4+cg8XovhYGUQxiFdQCL6RCLmzoKCgiD22DCZYGIx2QnJysk4jCJdDwu0g6Nje7j89rQOGDuyFIQN7oU+PrjDotQF/T1arDUcKjuLg4QLk5Bbi0JFC5BwugM3uCKausxKCZxocjmdKS0sb2JPMYIKFwQhSMjMzYyWHawEhuAFAbLuZQAhBty6ZmDRmCMaNGoQOiXHt4r6dLhcOHMrDzj052L7nAHbsOQSzOfDjtVGggOPIdUcKCpaxp5rBBAuDEUSYTKZ4IuEuAnod2tGW5A5J8Th/2hhMnTCi3YiUZl/0lCK/sAQ79hzCjj0HsWXHPpw4WRnIyuVju+T6v5KSkir2lDOYYGEwmFAJKDiOw5jhAzB7xgQM6tfdpw6ywcDh/KNYv2kn1m/Zie27DsLhdAbaLZygoAvyi4q+Z73JYIKFwQgwMjMzw+Bw3UMJbm4vQkWtUuHcKaMw9+JzkZaSyAaBF1itNmzesR/rN+/E+s07UVxSFkC1p+8ZbLZb95w4YWE9yWCChcHwc0YBQkla2nwK8hDaiY+KShAwa8Z4XHP5+YiNjmSDQEGOFBRj2cpNWL56Aw7nHw2EKueASpfmFRdvZ73HYIKFwfBTMlNN00HoMxTo3B7ulxc4nDt5DK6bewGSEmLZAPAxBcWlWL5qA5au2oScwwX+XFUHAf2/I0VFr7NeYzDBwmD4ESaTqQcnSc8DZFx7uF+O4zB57FBcf9VsGFOS2ABoA44eK8PSVRvx8++rkV9Y4q8vjQ+gEhYcOXLEznqMwQQLg9GGdO7QIdqpUj0IihsA8O3hngf374HbF1yOzp1MbAD4CUcKivHLkrX4/tc/UF1T62/V2yFxZCYLNsdggoXBaAOys7PV1jrL9YTgYQDh7UWo3HLtpejWJZMNAD/F4XRiw+bd+Hnpaqxcs8WPciLRCgCz84qKVrFeYjDBwmC00nOQYTTOBsXTANLaww336t4Zt103B317dWG9H0CUV1bjh1//wFc/LvOXOC8OSnBrfmHhm6x3GEywMBg+pKPROFCieBHA4Na+Nsdx6NSxI7K7d4NGo8aff25AcZFvLewdEuNw2/VzMHHMEBDCHv9ARXSJWLluCz779nds27XfD2pE342Iiblh+/btTtY7DCZYGAwFSU9PT+VE6UkKXNyaz4FGo0Hv3j0xaNBgDBg0ENFR/yRvFkUR33z9DT7++BNIkrLJ9gx6La65/HxcduF0aNQqNgCCiNy8Ynzx3WL8umwdrFZbG2oWLBV0mlk5OTl1rFcYTLAwGDLJzMwMo05xIUBvA6BrjWtqtRoMGjQYI0eNQJ8+faHVapo9/tdffsGrryqzc5TjOMyYOgY3z78YMVERbAAEMbX1Fnz94zJ8+tUvqKwyt1U1drpApxYVFR1nPcJggoXB8IJRgHA01XQlCH0YQIKvr8fzPHr27IGxY8di6LCh0Onc10Zbt27F/fc9ILsO/XtnY+HN89jOn3aGw+nEkhXr8fZH36KopE10wzGJI1MLCgp2s95gMMHCYHhAZorpHHD06dYI/JaV1QkTJk7EyBHDERoW5lUZ7733Hr75+luv65CanIDbb7gcY0cMZJ3fjnGJIhYvW4f3Fv3QFjFdqgnBeUcKC9ewnmAwwcJgtEB6Sno/wknPARjpy+uEhoRg9NjRmDR5MjLS0+V9mh4rxfXXL4Dd5rkvQqhBj2vnzsKls6dAJQhsAHiDRCFBAqgESCIopQAkgAKUAgQSKAUoKP7+I3D6OPr3tHqmQzP5z0x76ndCOIBwIBx3+m8cQAjw129K3ZIkYeW6LXjt3a9wpKC4NVvTDoK5eYWFX7KBxWCChcFoBJPJlMZLeJyCXuLLMd6jRw9MmjIJw4cNg1qtll3erl278PTTz6Kq0rPtqoQQTJ0wHHfeOBfRUeFsAPwXClCIoKII+rcQkU7/NwXFX/8t+VGlT4kWwnMghAfheIDjQIjw9988RRQl/LJ0Dd54/yuUlpW3YuuThXlFBc+ygchggoXB+Muikp4eTiTpXlDcDEDri2uo1WqMHjMGM847F+km+b4hFosFf65bh+Ur/sDePXs9v2djMh64Yz76985u56JEApUkUMl1SoyIp/9fEkGp+I/xI4imbsJxILwAjhdAOBU4XgDcsMw4nE589cNSvP3xt6ipaZ0NPYTiqSPFhfewWYrBBAujXTMKEI6mma4DpP8BJMYX14iKjsY506dhytQpCA+XZ8UQRRE7duzAiuV/YOPGjbDbPU/JotNqcO3cC3DFxee0q+Wfv0WJ5ITkcp22jLhOL8kwCOFPCRdeAOEE8IL61DJTY2K5wYaPvvgRH33+M6y21kgLRF/LKyq6GUEoHxlMsDAYLZJpNE6kFC8A6OqL8tNNJlxw4SyMHDECggLCwOFw4N577/PKmvIXwwf1wf13XIMOiXHBK0xAQV2u0+Lk1P8kUTzlW8LwaIonPA9OUIPj1SC86qyAgaVl5Xjq5Q+wcu2W1njhfHikqPAaACLrGwYTLIx2gdFo7MxTPA9gii/K79ylMy656GIMGDRAsYiwkijikUcew8aNG706Pzw8FHffPA/TJ40Mrs6UJIiiE1R0nhYnIqjE3me+mvI5QQDh1eAFDQj/jwhfu3EHHn/hPRwrPeHrKnwdER09h0XFZTDBwgh2oRLBAw+BYgEAxUO29u7dGxddfCF69eqlaLlWqxUPP/QIdu7c6dX5E8cOwb23Xh0UTrWUiqAuJyTXKZEiSS42sNvqBcBx4AUNOJUWhFfB0mDDs69+iG9/XuHjFw/91UXIrMLCQhvrBQYTLIygG6sZqabLQOgzAOKVLrxv37644orLkNVZ2VAtJ0+WY/uOHfhs0SKUn/R8Z0ZsdCQeuGM+xowYELgCRRIhueynBIrLcXpLMMP/xAsPTqUBL2ixdvNu/O/JN1BRVePLS67UNhjO3V++v561PoMJFkZQkJ6c3p0I0uugGK502V27dsWVV85D9x7dFSvT5XLh0KFc7N69B0VFxdi5fRtq62o9LmfK+OG4//arERYaEmAKBaCSE6LTAUm0g4rMghJwLwZegLnBibsffRObt+/15aU2iARTCwsLa1irM5hgYQQsWVlZoU6b4yEC6WaAKLoVJt1kwty5czFwsHLRYGvNtdi7bz/27T8Am82GsuPHsWf3Lrhcnr2ww8NC8OAd12Li2CGBo1GoBMlpBxUdkFwOtmsnSBAl4O3PFuODL371WZ8Sii1QC+OPHDlSy1qcwQQLI+BIT0ubSoC3AJKsZLnxCQmYO/cKjBo1EhynTDTR48fLsH37TuQXFIBSCkmScOjQARTmF3hc1rCBvfHovQsQGxMVCDIFkssB0WGD5HKA7VYNXtZt2ot7n3mfNljtPnpnkPXaBv0ktjzEYIKFETBkZmbGwul6iQKXKFmuVqfFxRddhJnnz1QkKi2lFEdLSrBr9x4U5Bf+/Xer1Yqd27ejpqbao/J0Oi3uuPFyzD53gmK7knwmU0QXJKcVLqedbTNuRxwpKMWtD72O4yerfHWJ1VanY2ppaWkDa20GEywM/xYrqaZZlNDXAcQqNsAJwbDhwzB//nzExckvllKK3Nwj2LptGyorz5y4T544id27d8LpcHhUZroxGc8/egc6pqf4sUqhEJ0NEB02tuW4HVNjtuD2R9/Erv15vhpoK0RCprPdQwwmWBh+iclkiieUvksopitZbucunXH9guvROStLEaFSUFiEjZs2o6K84szfJAk5OYeQn+f5JD7r3PFYeMuV0GrUftk30mlriuSwsd09DACA3e7E3U++i7WbfeWMS37Thuhn7t+/38Fam8EEC8NvSE9Lm0JAPoCCW5VDQ0Jw9TVXY+KkiYosr+Tl52Pjxs1nWVQAwGazYef27aiu9sxMHmLQ4aGF12PS2KF+2CsUkssJ0dFw2jeFwTgTlyji4Rc+weKVPouO+2NETPRsFlyOwQQLo81JTk7WqXnVswR0gZLjcOTIkbhuwXWIioyUXdaJshNYu34DSo+VNvp7RUU5du7Y4fESUNfOGXj+kf9DSocEvxMqosMG0dHAln0YLY8WSvH829/gi59W+ert9HVeYeElYGH8GUywMNoKk8nUk5Po51Aw/09cXCxuvOlGDBwof5tydU0NNmzYiCNH8ps8puToUezds9vjrZ4zp43F/XdcA7VK5Vd9IjltcNktTKgwPObl97/HJ98u95Us+jSvqGguAObdzWCChdG6ZBiNc0HxJgCtEuVxHIdzzz0Hc+fOhVYnr0in04XtO3Zg27YdEMWmX9yHc3NxODfHo7JVgoCFt16Ji86b6E/fyKctKhZQib0PGN7z6oc/4KOvl/lolJIX8osKbmetzOBZEzBag+zsbHW43vAqgMcAKBIELj4uDg899D9MnTYVgkpekfkFhfj551+Qn1/YrNXkcG4ODufmelR2bHQk3nz+PowbOch/hIrTDpfVDMlpB1iQN4ZMBvbuAofT6ZPdQwQYHB0ZUVtVU7OJtXT7hllYGD4nKyUlycXx3wBQLHTruPHjsGDB9TAYDLLKqa2txR9/rEbx0aMtHnvk8GHk5hzyqPxe3Tvjxcdu95tAcFR0wmmrBxWZLyNDeZ589Qt8u3itL4qWQHBpXmHhl6yVmWBhMHxCRmrqUBDuWwCKeJiGhYfh5ptvxvDhw+S9uCnF/v0HsXbdn3A6W355l5Yew64dOzy6xrSJI/DovTdAJQht3g+UihBtDRCdVjYoGT5DFCXc+/T7WLFuhy+KtwN0Sl5R0UrW0kywMBjKipW0tPMA8jkU8lfp27cv7rjrDtk7gGpqzFixciWOlZS6dXx9XR3Wr18H0eW+Q+p18y7ADVdd1OZRaykoJHvDqZ0/bOmH0Qo4nC7c8uDr2LLrkC+KN0scGVFQULCHtTQTLAyGIqQbjfMIpe8okbSQEILZs2dh7ry5svL/UEqxfcdObN681e2EhKJLxPo/16G+vs6t43mBw33/dw1mnzuhzfuAik44rbVs5w+j1bHZHbj+npex52C+L4ovFQmGFhYWFrKWZoKFwZAnVlKNCwnBU0qUFRoWhnvuWYi+ffvKKqeiohLLlv+B8vJyj87bu2c3jhYXu3WsQa/Fc4/ejuGD+rStUKEUor0eooMt/zDajhqzBVff+RwKjpb5YpQfISrVkCNHjpSzlmaChcHwBi4jLe0tgFyjRGGdu3TG/fffh9hYeTmADh3KwcpVq+F0ujw6r6qqEps2bHDr2NiYKLzz4oNtng9IctnhstWxbcoMv+D4ySrMu/1ZlFfU+OL1tV4kdBzLO9R+YNuaGYrNHhlpae8oJVbOOXc67r33XoSGhnpdhtPhxIoVK7F5y1ZIHr7AJUnCts1b4HC2HMW2Q2IcPnztYZjSOrRZ41MqQbTVw2WvZ9uUGX5DqEGHfj06YfGqrXC5FF+aTCWgxmqz+QfW0kywMBhuk5GW9gpArpdbDsdzuOGmGzBnzhxZ/ipVVVX48adfcPRoiVfnH87NRVnZ8RaPM6Um4cPXHkFSYlzbiRXRCWeDGZLI8v4w/I+YqHAYk+Ow4s+dyn8lgfSIjIywV9fU/MlamgkWBqNF0lONTxBCZEei1Oq0uP/+BzB2zGhZ5Rw6lINffl2M+nqLV+db6i3YvWtHi7tqMkwpeP+VhxAXG91mbS86rHBaawHKloAY/jxHJILjOGzbnaN42QQYEx0ZsbuqpiaHtTQTLAxG0y/tNNMDhOBBueXExcXi6WeeQffu2V6X4XK5sHz5H14tAf2bXTt2wGJpXux075KJD159GFGR4W3T8FSC01oL0dHABiEjIOjdLRNHS8txpPCYDzQLnRYZGv1rdW31SdbSTLAwGGeRmZZ2FYAX5ZbTqVNHPPXM00hKSvS6DJvNhp9++Q0FBYWy6lJWdhx5R440e0yXrHS898pDCAsxtEm7Sy4HHA01oJKLDUJGwEAIwdD+3bBl1yGcVNwJl6gJJ40Pj4z8tKamhjnhBikcawKGl2JlMAV5XW453bp3xzPPPoPoKO9D19eYzfjqq29ReqxUVl1EUcSh/QeaPcaYkoS3nrsfoQZ9m7S7y2GF01rDloAYAYlGrcJzD16HhFhfpKogmQKln7L3WvDCLCwMj8lKSUmSCPcHgAg55fTr1w+PPPowtFrvA+EWHz2KH374ucUlHHc4cjgXJ06caPL3Dknx+Pj1RxAbE9kGrU7hstVDtFvYAGQENHqdBn27d8RvKzdDFJUW3qRTVESkq9pcs5a1NBMsjHZOZmamRqRYQoDOcsoZPHgwHvzfA1Cr1V6Xsf/AASxZstztqLXN0WCxYNfOnU062sbGROGj1x5BYkJs6zc6leBsqIXksrMByAgKYqLCERcdgdUbd/ui+FHRkRGbq2pq8lhLM8HCaMdEhYa9C2CanDJGjByB++67F4KMpIDbtu/AmjXrFMuPs3vXLtTX1zf6W3hYCD589WEYU5NaX6uILjgbqpm/CiPoyMpIQXVNHQ4cLlK6aAJgQlhE+Gdms7metXTwwNb6GG6TmWq6gALz5JQxZsxo3H33QvC891p506YtWL9+o2L3dfLECZw82fhSkMDzeOGxO5Bhav0ItpLLcVqsMH8VRnBy+3Wz0b2zyRdFxwngmD9LkMEsLAz3xEpmZiyVpMUAvN4a079/f9x3/71eixVKKdatW49t25VLXS+KIrZv3Qqn09no7w/ceS0mjB7cBmLFDmeDmQ08RvBCAJWgwtCBvfD7yk2w2hRf8kyPjgh3VJnN61hjM8HCaEdEhIZ+TED6e3t+5y6d8dijj0Dlpc8KpRRr1q7Drt3KZpXPOXQI5U1YVy6bPQ3zrzi/1dtadFjhstaxQccIMn1CwAkq8Co9BK0BvDYUvFqPsPAIdO/aEb8sWwMqKZ5WYmR0RMSKKrO5hPUAEyyMdkCG0XghAfE6OFxKaiqeefpJ6A3eGWcopVjxx0rs23dA0fuqqanGvj2NC6ARg/vgsftuBMe1bn5Q0W45lQ+IwQgSOEENQWMArw8Dr9KBE1QgHA/yr9y7SQlxMOi0WL9FaSdcwoGSETqD/v26ujon6w0mWBhBjMlkiieU/goQrwKPxMTG4Nlnn0GUjDgr6/7cgL179yl6X5IkYeuWLXDYzzZDm1KT8PaLD0KrUbdqW7tsdSxyLSM4IBx4tQ5qfTh4tQ6EF84QKI3RI7sTDucVI79IYWMIQbRK4EOra2qWsI4JcPHLmoDRrKKV6BMAifHmXK1Wg0cfexRxcd5vBd60aQt27tyl+H0dzs1Ffd3Zyy5qlQrPPvx/CDHo2kCsWNmAYwS2TiEEgsYAdUg0BG0IQDiPzn30vhuQmpygfMUobsw0GkexHmKChRGkZKal9aHAXG/Pv/nWW5Bu8n4HwO7de7F5y1bF76uivBz5eY2H379twWXo3MnUqu3MxAojKD5uBA1UhijwGgMI8W4pNdSgxwuP3+kL6yYnUXzQIz7ewHqKCRZGEEJBXvB2jJxz7nSMHTPG62sfysnFmrXKO/c3WBuwc2fjmZhHDumLObOmMLHCYHiIoA2FoA8H4eR7GXTONOLe265SvI4EMDXodA+w3mKChRFkpKemjwMw0qsJp0tnXHvttV5f+/jxMqxYsVKxoHB/IUkSdm7bDqfDcdZv0VHheOSeG7z+MmRihdEeIYSH2hAJXq3sEurM6eNw3tQxiteXUnp7enJ6d9ZzTLAwgmoiog95c15kZAQefOB+r6PY1tbV4dfffocoikpPVNizaxfM5ppGf3/igZsRHRXeemLFXs/ECiPgxYoqJBKEV/mk/Hv/72p0ykhVutYC4aVXARDWg0ywMIKAjLS0MQAd6s25t916G6JjvPLRhcvlwm+//Y6GBmV3ylBKsXf3bpSWHmv09ynjh2PogF6t1r6iwwrRznYDMQL5zcFBZQgHIb57hei0Grzw+J0w6LVKFz0y3Wi8iHUiEyyM4Ph2ut2bs8aOGYOBgwd6LSqWLVuBkyfLlRUHLhE7tm1DScnRRn8PMehw542Xt55YcdrhsrGgcIwAnh1AoNJHgnCCz69lTEnCo/fcqPw9UDyRmZmpYb3JBAsjgOmYltYFwGRPzwsPD8d111/n9XV37tyNw0eUTa5aUV6OdetW48SJsiaPuXn+pYiNiWqVtpVEJ1xWFm6fEdgI+jBwXOuF8JowZrAvnOGN1CHOZ70ZYGOPNQHjDAsAuBsJqMfruzfcuABh4WFeXfPEyZNYv2EjXC4XaqqrYTbXoKGhAVarFTarDZIkQRB4cBwHrU4HvV4Pvd4ArVYLtVoNtVoNQaWCy+WEzWpHrdmM0tIS1NTUNHvdrp0zcOF5E1ulXanogstSE+Cf1gQcL4DwKhDCn3JQJhxAKSiVQCUJVHKCik7FHaYZfvKFK2jACa1vmLj9xiuwe/9h7D1wWMHxTO/Pysr6KCcnh5k8A2UKYk3A+Ivk5GSdhhdKAUR4ct7gwYPx0MP/8/h6LpcLO3fswqLPFqGk5Bgs9fWt9qIjhODzd59C9y6ZraBWKByWKlBJDLwJghfACxpwghqEF9ycMigklwOiowGSi0VDD5qXBSFQh0R7FAxOSY6fqMAF8+6A2Vyn5KN5d35x4dOsd5lgYQQY6WlplxKQRZ6cIwgCPvjgPcQnuBedUhRFbNu2DWtWrcHGTZsUd7B1lzHDB+CVpxa2yrWclmpIojOAJgUCTqUFr9bK3gEiuZxw2epBJSZcAh1eY4CgkRd37cTJSmzZsQ+5+UUoPlqGkmNlqLfaUFdnAZUkcAKPsBADwkINSIiLgSk1CSZjMjp3MqGjKQXrt+zCDXc+CUmSFNNBRCWYjhw5Ymc97P+wJSHGv9XrXE/PmTxpUotiRZIk7N+3H6tWrcLadX+irra2zb8Ur583q1Wu5bLVBYxYIYSAU+kgqA2AQkkfOUEFtSESosMCl70BAFsqCsi5gRAIXsZaKTxaip8Wr8bSletRXFLW4vF/WVD2HzrTpy08LAR9e3VFaocEFB4tVerWEqlDvALAO6yXmWBhBAidkjrFiLCP8uQcjUaDSy69uMnfc3JysXr1GqxZswaVFRV+c6+jhvVDl6x0n19HdDQETKwVQa0DrwkBfBE4j5z6OgcnQLTVMv+WAIRTaT1eCtqzPxevvPMFNm3bo0gdzLX1WLl2iw/ujt4B4H0AIutpJlgYAYAoOM8DiEfjYfo50xAVHf1PGaKIgwcOYMvWbVi3bi1Kjx33yy/F6+f63rpCxVNLIf4Or9KA14QoElLdnWsREg5nQw174AJOsLjvaFtZZcZjz7+L5as3BsbNEXTMTDXNPFJc8A3raSZYGAHx0NKZnhyu1+sxccIEbNu2DUcOH8HBQ4ewe9duWK3+bVEYPqg3unbO8O1FJAnOhlr/7m+OQKUJPfXl3JqXFdRQ6cNPtw+ztASGWuHA8e4lI1y9fjsefPJ1VFUH1vZ9SnALACZY/F5bMto9p3cHVQJwe5Ga4zglHd9ajd49OuPTNx/36TWcDTWQXA6/bQNerYWgCWmz3R4A4LJbINot7OELBL0iaKDSt5y24tufV+DR596GKEoBeZ8EtM+RoqKdrMf9F2ZhYUCrUg2nEvXIoy4QxQoA7Nqbg+KSMqQmJ/ikfJe93m/FCiEEgi5M8Tga5RVV2J9TgJzDBSivqEJNbT1q6+og8ALCw0MRERaCtJQk9OnZFZmmZHAcB0FtgOSyg4ou9gD6vWBp2bry5Q9L8fjz7wa0f5IE7gYAV7MeZ4KF4cdQSqe0o3vFL0tX44arlE8lIrmcEO3+uSRGeAEqXbgiviouUcSW7fuxcu0mrFq/DSdOVrp9blhoCKaMH4ZZMyagkykZzvoqULY05N+ChW/+NbF99wE89eL7Ae9MTUAvTk5OvqukpKSK9bq/9hGj3WIymXoSSh8lFNPb0313SIrHkq9fPxWpVTklBEd9JSj1P8sTr9ZB0IbIftyLjh7Hl98vwU+/r0ZtnXyH4r49u+KOBRehU2osexj9GE1obJO7x+otVky/+CaUV1YHyyfNHXlFRc+zXmeCheEnGI3GzjzwMChmBdIY4DgOsTExSOrQAUlJiYhLiEd0VDSioiIRFRWN5557DkcOH3GrrI9efwT9emUrVjen1QzJ6X+xpwSN4dSWYhls33UQ73z8LTZs3a34VzTPc5g5eThunHsuQgw69nD63RuCgya06ezrL731Gd779PtguuODeUWFXVnH+ydsSagdMQoQjqaZ7galDwJQ+fXAFAR07NQRmZkdkZmRjvSMDBiNaVCrm15PHzturNuC5Y+1WxUTLKLT5n9ihQCCNgy8jF1Ah3IL8PLbn2Pdph0+q6YoSvjm1zXYvOMgXnjoephSEtiD6k/DqBkrZE1NHRZ9/Wuw3XKXjkbjwMOFhZtZ7zPBwmgj0tPTOxWL0icEdKA/1o/neXTN7orevXujR/fu6JTVCRqNZ86ho0aNwnvvvAdRbDn+09btexWpN5VEiDb/yp12yrk23C1nycYwm+vw3Ouf4MfFq1rNL6G49CTm3/kC3nrqVmQYk9gD6zeDqemdZL+tWAeb3RF0tyxJmAuACRZ/HI6sCdqBWElLu5KAvApA70/1CgsNxeChQzFgQH/06dMber386t166204eOCgWy/1tb9+gMiIMFnXc1pqIIn+NWmr9BFeiRVKKX5esgbPvvYRamraRoQlxkVh0Sv3IiLcwB5cf3hB8ALUhqhGf7tk/j3Ysz83GG+7RiRILCwstLER4F8wC0uQzzcZaaZHAXqfv1RIp9Nh2LChGDlqJPr06QOeVzbC6oD+A9wSLJRSbNm+DxPHDvH6WqLD6ndi5dS2Zc/FSk1NHe5/4lWsXr+9Tet//GQVXnj3Gzxyx1z29PqFuaFxC5vT5cLBnPxgvesIHpgB4Es2AJhgYbQC2dnZamt9/fsAneMP9encpTOmTJ6EkSNHQavzXXTVPv364OOPP3br2M3b93otWCgVIfpZ6H1BG+qVz8qmbXtwzyOv+M1Oj8Urt2Du7IlIT01kD3IbQ6kESulZvix5+UfhdLkfQyc+JhKm1ASEGHRQqwRotWq4nBKqampxvLwKFVW1MNf6z/NEgUuYYGGChdEKZGZmamz19b8SkHFtWQ+e5zFq9ChccP5MpGdktMo1M9LTIQgCXG5MpnLM2aKt3q/ih/AqHXgPs+lSSvHOx9/h9fe/8qtAgJRS/LpiE26+8jz2MPvBq5tKLhD+TB/94yeaT2aanBiL8cP7YPjA7sg0doBB37KQrqiswZ5DBdh9sAC79h3G/tyiNovtQigmGI3GiMLCwho2BphgYfjw3SU5nYvaUqxotFpMnz4VM887D9ExMa16bZVKhfR0E3JzD7d4bOHRUkiSBI7zLES95LRB9KNdQRwvQNCFenSO1WbHA0+8jiV/rPfLQbxrfx57kv1FsrgcwL8FCwUa6s/OlaVWCZgydiBmTR2BzpmpHl8nJjoCY4b2xpihvQEAJ8trsGL9Dixfux17DxW0tnjR8MC5AD5mI4AJFoaPyEwzvkqBC9ri2lqtBlOnTcPs2bMQERHRqte22+0wm2thrjUjPNy9a9vsDpSWlSM5Kd6jr39/ysL8144gT6ioqsH1dzzu1z4IldW17GH2E0SX44xYPk5bLRyOMyM6jx/RF7ddcz7iYyIVu25cbAQumTEGl8wYg/zi4/j8xz+weOUW2O3OVlJqmM0ECxMsDB+RkZZ2HwWub/UvfI7D+PHjcMW8uYiOivL59Wx2O06UncDxsjKcKDuJk+XlaGho+Jd4cd8RNq+wxCPBItotfhXNlteGehRu/9jxk7jm1odRXFLm12NZJfDsgfYTqOgElUQQjoOzoRaSy46YyFO766IjwvDAbXMwfEB3n9YhPTUR9988BzdecR6+/nUVPvluBaxWn1s5x6WmpkYWFxdXs1HABAtD0Qc6dSxAHmnt63brlo3rrr8OHTt29Nk1amtrUVhUjLKyEygrK0NNjblZ83BYuPsWh4LCYxg5pK9bx0qSC6KjwW/6nPAqj5xs8wtLcM1tj3iU+6etSO0Qzx5qP0J0WEGpBMl1SiQkxEYhu1Manv/f9YiNCm+1ekSEGzD/0mmYOWUE3vn0V/y4bL0vs0OrVRx3DpiVhQkWhnJkZGTEwSV+CoBrrWuGhoTg6muuxsRJE5XNyYNTyy7Hy8pQkF+I4qNHcfJkuUfn6zyI53Ks7KT7k7bVvwLECTr3Y8gUHT2Oq25+KGByvgzr34092H4lWM4U6kkJ0Xjnmf+DVqNuk/rERIbh3psvwUUzRuOxlz/D7gO+8XkilExngoUJFoaCzxRc4scAWm0P6PDhw7DgxhsQFancerXL5cKRvDwczj2CoyUlcDpdXpelUqnA87xbEW9rzO6JEMlpgyQ6/abTebUOnJtLQceOn8RVN/+vVcSKSuDRISEGqR3iEBN96stbr9NB4E+JWkuDHVU1daiqqYW51oKTlTWot5zpD6HXaTB2eG/2ZPvzi4PnIfBtv2yXnpqId5/5P3zx4x9449NfFPdvoaATsrOz1fv373ewXmeChSGTzLS0BRSY1BrX0ul0WHDDAkyYMF5RS8rBg4eQk3sYTodyk41Gq0WDxdLiceZa95w7XXaLX/U7r3HPilRZZcbVtzyMMh8tAxmT4zGgdxcM6JWFrPRkxMdGgec9M/SVllUgJ78EhwtKkJt3DD27dUR4KIt0y3DzWeA5zDl/PIYN7IG7n3gXhwuOKVl8aENdw0gAy1lLM8HCkCNWMjNjqdP1aGtcq3NWFu6+ZyESk+Tneamvr8eePftw4NAhWOp9IwS0Wo1bgqWmtuVjREcDqCT6Tb/zah0Iafnr1u5w4qa7n8LRY8o62KanJWHmpKEYO7QP4mIjZJeXlBCDpIQYjB7Siz3UDFni+aMX7sSjL3+GJau3KlYuR6TpTLAwwcKQieQUnyRApK+vM23qVFy34DqoVPISPFeUV2DHrt3Iycn1eaAyrca9IGrmlpaEqATR5mfWFXXL1hVKKR584nXFcr3wPIdJo/rj/CnD0bNrBnv4GH6JVqvB4wuvRJfMFLz8wQ+QJPmxWyjINAA3s9ZlgoXh7VduSnp/AmmeL6+hVqtx0803yV4CKigoxI6du1BScqzV2sddcdVgbT6/mctu8auIthyvdmsb84ef/YTflq+TfT1CCMYM7Y0FV5wDYzLbucMIDOacPx7RUeF46PlP4BLlWUcJYEpPTu+YX5J/mLUsEywMbx4iTnyh2dzvMgkLD8PDDz+Erl27el1G2YkTWPfnBpQeK22D9nFv51JzO5yoJEF0+FfCVnfC7+/el4NX3vlc9rW6dEzDPTdejOxOaeyBYwQck0cPQIhOh4VPvgu7XP84QRoHgAmWtv5gY00QeGQajSMBMsxX5XdISsLLL73stVipravDsuV/4Ouvv2sTsQLA7XD7XDOCRXRYAD+yrhBCwKma30ZaW2/BXQ+9JOurkuc5zJ09AR++cCcTK4yAZvig7nj2gWtl72giFONYa7Y9zMISgEgS7lU49Mk/YqhjJp584gmEhYd5fK7T6cLGTZuxe/eeNk+mR9w0PjVlYfFH6woR1ACa7/gnX3wfx46f9PoaKUmxeGLh1ejaKZU9aIygYGi/bNx3yyV45MVFcvIRjQbAAxBZi7YdzMISYKSnpPcnBBN8UXaXrl3w9NNPeSVWSkuP44svvsLOnbv8IvMv5+6SUBOWGH+zrgCn/FeaY8uOffh16Vqvy++VnYEPX7iLiRVG0HHO+CG4ds40OUVEmkymvqwl2xZmYQk0hcnRhb54jXbr3h2PP/YotDqtR+c5nS5s2bIV23fsbLNU8I0KETctLBp1I865VIL4n+RuftH3QtOOxDa7Aw8++YbXfTBzyjAsXHCRXwQDYzB8wdUXT8aB3EKs3bzXq/N5SscC2MJasg3nQNYEgYPJZIqnoOcoXW7nrCw89tgjHouV8vJyLPrsC2zbvsOvxAoAt6LcAkBEWMhZf/O3IHGnBBgB4Zr+vvjsm99QUnrCq7Ivv2A87rvpUiZWGEENIQQP3zEXCbHeJWilFMNYKzLBwnC3syRcDkClZJnpJhMefeIx6HQ6j847lJOLb779HrVuRoptfcHiXmj/sND/CBYqQfIz35VTnd+0WKmtt+CDz370qtjLzh+HW66ayR4uRrsgLESPh26/3Nv8Z0PZO5MJFoa7XwigVypZXlRkJB57/FGEhYZ68JVBsX79RixdulxWvh+fCxaXexaW8PAz793f4q78/aA2E3vlky9/hrm23uMy586egFuvPp89WIx2Rf+eWZg4sp83p4abTKburAWZYGG0QEZq6lAKdFaqPJ7ncd/99yI6Jsbtc5xOJ3748Wds277D79vL5aaFJSL8XxYWf7WuAEATgsXhdOKbnzyPGj5+RF/cOHcGe7AY7ZJbrpwJrVbj+bwpSWxZiAkWRktQwl+iZHk33HgDunV3/2PBZrfjhx9/xtGjJQHRXu5aWKIiIv4ROQ6rX1pXgKadiJf+sQGVVWaPyuqVnYFH7pjrrVmcwQh44mIjcOmMMZ7Pwz6Mf8VggiVYIASSYs62AwcPxNSpU9w+3tLQgO+++wHHj5cFTIM5Xe5FtkxOivt7KvLHnUH/GgKN/vX7X//wqJSk+Gg898B1UKvYBkFG++aiGaMb3yXYPENYyzHBwmiG9JT0fgBJVqIsrVaDG66/3n2xYmnA1998h4qKyoBqM5vNvaWdDomnBIvotAFUCqh7LK+sxo49B90+nuc5PL7wSkSGh7CHitHuiQoPxdRxAz09LdVoNCaw1mOChdHUtzUnKmZdueyyyxGf4N7z5nA48NPPv6LWXBtwbeaw290ULLGnBIu/+q78PQjOXqpavmoTRNF9kXXDFeeiR5d09kAxGKe5+JzRnr80KWUB5JhgYTT9siLnKlFMYlISZs6c4daxkiRh8eIlKC8vD7jmcrlcbsVhUatUiImOBBWdoKLTv2+qkejBf25y3/l5UJ8uuOz88exZYjD+RXpaErplGT17aRLSn7UcEyyMRjAajQmgUGQr3YWzZ4FzIzgYpRRLl61AUfHRgGwzm909a0lKcgI4joPLr31X/uqTMwWLw+nE1p373TrXoNfiwdsucztdAYPRnpg+YbCHzyKYYGGChdEYgkSGK1FOTGwMxo13L+Hort17kJsbuJnU3V0OyjAln9rK7LT7/T3R/1iMDuUWwGpzr943XXke4mMi2cPEYDTChBH9PI3y3I+1GhMsjMZeVEQaoUQ5F5w/EypVyx7xZSdO4M8/NwR0mzU0NLh1XKYp5bR1hfr/OJDOXLLae/CIW+f16JKO8ycPZw8Sg9EEYSF69O3R0ZNT4jI7ZCazlmOChXEWRLZgEQQBY8e2bF2x2WxYvHipX2RbliVYLO7lAso0pkJy2gLiniilkETH3/8+nFfU4jk8z+GBWy5lS0EMRguMHNTTo+MlwdmDtRoTLIx/YTQaIwB0k1vOwIEDERYe1uJxq9esRV1dXcC3W4PFPQuLKSUOVBID5r4kxz9LQBWV1S0ef8HUEUhPS2IPEoPRAiMGeag/CGGChQkWxhnPhET6K9FH48aPbfGYoqJi5OQcDop2szS0nFdHq1EjJTE6oO5LdNpAT1u/WopuGxaix/xLprGHiMFwg8S4KKQkxbr/4lRoIwSDCZbg6RyCnnLL0Ov1GDBgQLPHOJ0urFy9JmjazR0LS1ZHEzjqDLA7o3DZzG653Fx98WREhBvYQ8RguMmAnp09eBIps7AwwcI486GQZAuW3r17QxCaD8O+ecuWgAwO1xgOhwNOZ8tCJDvLCEppwN2f5HLCZa9DdFR4k8fERoXjgqkj2QPEYHhAv15ZHhxNsrKzs9Ws1ZhgYfz1SBAiW7D069f8DjxLvQW7d+8NmjZz1+E2OzM1YO9RdFgRGxXR5O9XXTIFGo2KPUAMhgd07ejRnKCy1do6sVZjgoUBIDMzUwOKznLL6du/+SjSGzZtgsvlCpp2s7gpWLp0TAno+xzQq/FtmEnxMZgxcSh7gBgMD+mQEIOwEL3bx1POlcVajQkWBgBRFLMAyPpMTkhMRHxcXJO/V1VX4+DBnKBqt4aGlgVLiEGP1KSYgL7PEQO7ITkp/qy/XzFrAlQCzx4gBsNDCCHomO5+eBUOYIKFCRYGAHCSlCG3jM5ZzT9PW7dsC0g/juZwx8KSnZUGQgI7NonA83j87quh02n//lt0ZDimjx/EHh4Gw0uyMty3vFJCmGBhgoVxGtlpdTt27Njsiz338JGgazR3fFi6dkwLinvt1ikVH732CLI6mgAAl8wcD42a+a4wGF5/5HkiWCizsLT6hxprAv+EgjMRmSHjO3bKbPK33Xv2BnxE20YFixth+T10rvPjQSKhS2YKvv3wWezZm4OUWD17cBgMGXTJdF+wELYk1OowC4ufQkBlW1hM6Y0X4XK5sHff/qBrM4fDAYfD0eJx2R6mk/dnRIcVhBB07ZgEg0HLHhxG0HOkoBSbdx7ySdlpyfFQq9z+jo/IzMyMZT3CBAsTLIBJzvlhoaEICw1t9LfCwiLYrLaga7P6+pbTCsRGhQdV5mLJZYfDUhUwOZF8yW8rNsPpEsEI8n5euQk33PcK8gpLFS+b53kkxbsfAVuyS2msR5hgafdIgKx9t4kdOjT526FDuUHZZvX1LYfk79bZFHT3TUUXe2AA/LhsPX5dvok1RLDPjfRUMtCPv1vmk/ITPRAshBNTWI8wwdKuSUpK0hNAVlz1Dh0aT3pns9tRWFQUlO1WX+eGYMkysQEWjC8xiWJ/TiHe/3Ixs7IEe1+Lp/p36aptOH6ySvHyO8S7H/KAUpLKeoQJlnZNqEoVL/srISGh0b/n5xVAFINzQndnh1C3LGbBDUYqa2phdzhx/GQVflm2kTVIEPNXKAaXKOLzH/5QXrAkehCjiTDBwgRLO0ckRLZgiYpq3E+jsLAoaNutrgUfFp7nkN3JyAZYEFJe8U/26g+/WQpRlFijBCnSv2JHfb9kPWrMFkXL75DgSVBJiQkWJljaPbIFS3jE2YJFkiQcPXo0OCcxSYLNam32mIzUJOh0Gja6ghCn65+El6VlFVizaTdrlCBFq/kn56DNZsc3vymbaT4pPsr9FyhbEmKCpd1DieytcpGRZwuWshMnYLPbg7LJ6i31LUbtze7MloOCFZ4/Mx3BZz5YKmC0NQScoEZc3JnT4xc/rYLNpty8luSBhYUSsEmFCZb2jhQmt4TwiPCz/naspDRoW8zihsNt987pbGgFy6uLnHp58Wo9VLowGMLPFOi79ufhQG4xa6ig6GsevNoAdUgUVPoIxP0nP5q5th4/Kei3FB5q8CQWS5zRaGQBkJhgacdyhZJQuWUYDGdvMjpeVha0bebOlubundkOoYB+cfECeI0eKn0E1KExUOkjIGhDwKm0SIw/28n8y59XskYLcKEi6EKhDo2GoDWAcKesaDHRZ1uPF32/QtHNBJHhbk/BhHNxbGszEyzt+UGlIXLL0Gt1Z/ybUhrUgsViaV6wGPRaGJMT2OAKuGeBgFfpTokUQxQETQg4QQ3gzOSV4eGh0GnP9E9avnY7qsx1rBEDsM8FTQhUoVHgVbqzfm9MsJSeqMSytdsVq0NUpAdGbs7F/FiYYGnHUCJLsHAcB81/Ju/a2tqgjG77Fy1tae7SMQ0cR9jYCpSXFsdD0IZCFRIDQRd6WqQ0T2qHMwWpw+nCz0uDf4uz0yXi2PEKuIIgXAHHq6AyRIHX6EHQ+POanBQHlXD2ks3H3yxTLPt8ZJgHUzAhzI+FCZZ23Suy1i40Gg0IOfNhr6ysCuomaynpoSdp4xltKVQ4qPThUIdEg1frzhrHzYrSrLN9lL75dU3QbnGWJIqPvl6GiZcsxDlXPoApc+7Ftt05AXs/vNoAlSHy76WfplAJAtJNZz/PhwuOYeOOA8oIlkgPBAslbHJhgqV9kplqugwSxsspQ1CpzvpbVVV10LaZy+VqMelh50w2pwTGCysanODd1vPOnc4WLGXlVdiwdX9QtpfD4cCrH/4Ac90p62JlTS3uePRtmGvrA+5eBG0oBK37wb2zsxp3oP/oa2XC9UeFe+BGSEgce3qZYGl3H5fpqcb/UUI/BpHXLwJ/9umVVcFrYWloaDlwVJdMtszsv7MQgUofecqxkni/bNene1ajf1c6ToffCLxGlkXqLFZ8+PXSQJr2oNKFgVfrPBOnHRs3Qm/fk4s9B/Nl18oDp1sQSqPZQ8wES7shOztbnWE0fkQIHgIg29GiMZOq2WwOYsHS/HKQVqtBahL7CPLLCYgToDFEgxNUssvq3MmEiIizXzQbth9A0bGTQdd2jX2YAMCPS9YHTD4lQWsAp/J8V3C3LhlN/vbpdyvkC5YIT3xYmGBhgqWdkJqaGmmrtywBxeWKfXlxZ3drfb0laNvQ2oJgyUxLBM+zoe5339a8AJUhEiDK9A3HcRjYt/tZf6eU4vvf/wy+9iOk0XFdZ7Fi+x7/z8jOCRrwar13H3mdMxHehGPsqg27kF98XFbdQvSeWHxIFHuamWAJerLS0kwqwq0HMFrJcinO9JSXJMmtOCWBSktRLk2piWyw+d3MQ6DShQNE2Z1bE0YObvTvvyzboGg0VL+xUPCNO6hu3nnQ39UWVFrv42PyPIdB/Xs0Pv9RikXfy4t0HGLwaImKWViYYAluTCZTDxfIegBdlC7b6XCeaYGw2hTb7uefgqX5HEKmFBZ/xd9Q6SJa3A3iDaOG92/0ZWOus+CHpRuCrh3DQhq3UOw+kO/X9RY0IYDMMAPDB/Vp8rffVmzCiQrvNxqE6D2x/LAlISZYgpiOJtMITqJrAfjk0/+/O2ZsNltQt6e9hS/n9BRmYfGrSUelBcerfFK2Rq3C6OEDGv3t02+XB0Wskn8TH9N4VvYDuYWw2R3+WWnCeexk2xjDBvUGxzX+CnOJIr78aZX3gsXgiV8NCcnMzGRZVZlgCT4yU0znSBJdAiDcV9dwOs+0sNgd9qBuU7u9eUFmSmMWFv/6ujb4tPwp44c1+vcTFdVYrmA0VL8QLHGNu084XSL25xT6af/rFCknJioCvZvYGQYA3y1ehzqL1TvBEuJZHZ1OJ/NjYYIluMgwGudSTvoOgM6X13G5XJCkf4JltRSjJOAFSzMWFoHnkRjHLLb+83Gt8slS0L8Z0q8nIiMa94/46JulQRVILj4mosnftu057J8vHZVyuQKnTRje5G+WBhs+/8G7fFKeOd0CgiSwSYYJluAh3Wi8GxQfAkRojev928oiBWmkTwAQRREu0dXk73GxkWyHkB/Bq9S+v4bAY/K4oY3+dqSgFL+t3NQuBMuvKzYqmhBQEcHKCyBEOcE6cezQZjMrf/7jH15ZWdQqARq1yoP7EplgYYIlSMRKqnEhoXiyNa/532WhYMXlcjX7e0JsJBuAfvXCUrXKdS65YEqT/g2vf/yL//p3eEhaMw7lpScqsXzdDv964Sjc/2GhIRjav3uTv9dbrPjq59VelW3QuW8JkljwOCZYgmF+Tk8zvkAInmrtCzudLiZYACTGs6Vlv3ogSOtMOcaUJAwb2KvR3yoqa/D5j38ERXt27dR83r2Pv17mVzsECae8gfncicOa/f3zH/5Ag9VzPz6d3n0/Wo6Si9jTzQRLIMNnpKW9Q4Db2uLiDqejXTSyy9W8JSkxlgkW/1IsrTflzJk9vcnfPvhqKUqOlwd8c0ZHhCG2mWWh3IISbNrhPzFZCK+8YBk+uDfimmkDc50FX/7suS+LXuu+YKEEszKNxqfYA84ES8AxChAy0oyfAuTqtqqDxWJpF23dkoUlji0J+Rmt97U/ZEAPZGU0boGwWu148LmPg8IBt6U8WW988pPfWFkIiOJlCio1Zkwc0uwxn3yz/O8kkW4LFp1nzsGUYmFmqvFJ9owzwRJI8EfTjJ8AuLgtK2Gpq28Xjd2SYAkPMbAR6U9yRWpdJ9BLZk1t8rfdB/IUyTvT9oKl+WWhA7nFWLd5b/AKYEpx7sShzTrX11ms+ORbzzI567SeO4hTgrvT04wvsCedCZaAECunLCttK1YAoN7yj2AReCFoG7ylHVAehthm+Lq/XK27VDlt4gjERjdtZXt70S/IyTsa0G3ar0fHFo95/ZOfIEltb2WhVCnBSiE5bXBYquGy1yMhNgqD+3Rt9owvflqFk+U1bl/BUwvLXxDgNiZamGBhYsUD6v5lYdHqtEHb6KSFXDRhzMLiV4hOK1pzWUijVuHqy2c2+bvD6cLN/3sDFZU1AdumPbqmtyjMjxSUYvHKzW0vWESZmwGoBJfdAntdJZzW2jPKO29y8863drsT73/5u9uX0um834LPRAsTLH4tVjL9YBno3/zbwqLVBq9gaWlJPDSEWVj8CkohOlo3VcSsc8cjoZnggRWVNbj9kbe92kniDwg8jwG9Ord43Cvv/4B6LyO/KiZYHd7lNaOiCy5rHex1FRDtFoCebVkdPqAbYqIjmi3nx6XrUXC0zK1r6mXOmwS4LTPV+CJ76Jlg8RtGAUKG0fgFBS7xp3r924dFp22/Fha2JOR/uGx1kKTW23avVqkwf+4FzR6zL7cQNz/4WsDGZxnaL7vFYypravHuF7+3aT0pFSHa6t0yskmiC6LdAoelCg5L1WnrXDNfjTyPGRMGNz/2RBHPvvmVe4JFJz89ECW4NT3N9Dx76plg8Yv3ZXGa6S1QzPK3iv3bwqJSq5oMohXwHdDCEBYEno1SfxQtDeZWdcCdOW0skpPimz1m574juPauF1FjDrwddkP7Zbco3gHgyx9Xum1h8BWi0wpHQzUkpw1UEk9ZXKgESXJBctrgstXBUV8Jp6UKLrvFo2Wk8yYPazGy9eadh7DWDSdkrUaZfIYE9P8y0tIeYU89Eyxt+q7MSDW+QUCv8kXhPJG3/a/uP7uEdEHqx0IIG4iBCJVEOCxVkMTWsWgIPI/5l81o8bh9uYW4ZuELHjln+gOxMRHolZ3RslAURTzzxldt3/+iE05rLRz1lXDUlcNeVwFnfRWc1lqIDqvXYjYhNsqt5bHn3/4GjhaCa4bolUzATB7INBrvYU8+EyxtQnqa8XkQXOeLskM5DndFhskTLLV1Z5YZGhqU/cALze+A+ncSSIa/qRYKp6UGTl9aWyggOu1wWKoxaXgPdDIlt3hKflEp5t3+LApLTgRUc04dM8it47bsOoRVG3YF7bCa2YLzLQCUHC/Hlz+tavYYpSws/xruT2SkmW5kDz4TLK1KRprpMV9FsA3nOLwWG41pBj3kbEY2m8/8QowID/eqHJfLBZvNhrq6OpjNNTCba9BgaYDT4fCLYFSaFiYVS4ONDVg/R3LZ4aivgrOhBpLTDipzFxGlFJLLAZetDnZLOVxWM6joBM9zuP3aC9wqo6y8Ctfc8Tzyi48HTDuOH9EHGo17uXqee+uboMmn9F9iosLBcS2bXt/+7DeUnqhs8nc5u4SaGZ2vZKSarmFPvXcIrAk8Iz3VuBCg9/mi7Fiex5tx0TCezj6aoVYhx+FdEkNzjflMIdSCYHE6naiurkKtuRa1ZjMsDfVoaGiA6Gr6y5cQAoPBgJCQUBhCQhASEoLwyAiEGEJarT/U6uYnlfoGKxu0gWFugeRynIrTYj2VJJHjVSAcfyrDLwjAcWdsCqMAQEVQiYJKLlBRhCS5Tvs8NC56+vXMwohBPbB2054Wa1RlrsOC+17BB8/dgaR4/89tF2LQYfiA7ljhRsLDsvIqfPLtMsy/dFpQjB6bzY7Nuw7hh9/X48+t+9z6mLLZ7Hj8lc/w2mM3Ner/Y/DNMjoBoW9mpprMR4oLvmbPPRMsPiMz1XQZJdQnoZcTeR5vxMUgRfWPk2hnlfeCpdp8pmAJCzt7iam+rg7Hjx9H+cmTMJtrPLaYUEpRX1+P+vr/+Mvo9YiLjUNsXByio6NbXLaRg0p1yqG4qaWfquo6wMTGbsDJF9EJUfRNxvHb51+Ajdv2w+lqeRmqvKIGtz/8Fj568S63rRdtyTkThrglWADggy+XYPSQ3uho6hA444JSVFaZcexEJUpPVOJwwTHs2HsYBw4XeZVmYdOOg/h1xSZMHz+4EQuLxle3wVNCF2UajeYjhYVL2dPOBIvyYiXFdA4l0ge+cPM0CgLeiItBnHDmCl0ntQrwcsOC3WaD3WaD5vSW5sjICACnlnhKjh7F0eIi1NXV+aStrA0NKCoqRFFRIXieR2KHDjAajQgLC/fJ9dQaNWzWxpd+jp2oYIOXcQbJibGYNW0kPv/RvYR4uQUleOn977FwwYV+f29D+naFKSXBrZ1ATpeIB5/9CJ++ejcEvm120zVY7ThaehIV1bWoqalHlbkONbV1sFhssDTYUG+1obbOgtp6K+rqLDDXWVp0lvWUF9/9DoP7ZSPmP36DPhQsAKCiFN+kp6SPyT+av409lUywKCdWjMZBEqWfExDF2ytNEPBWfDRiGtmKZ1TJ+6KrNpuRcFqw8DyHgwcOoLi4sNllHqURRRElxcUoKS5GZFQU0oxGJCYkgii4zVqj1jYpWEpKy9kAZpzFdZdNx7J1O9yOcPvd4rWYPX0kTCkJfn1fhBBceO5oPPXaF26Lsfe/WIJr50xthblAwu4Dedi88yAOHi5GfvFxHD9Z1eZtZq6zYPP2g5g6buAZf/ckW7OXhBJO/N1oNA4vLCw8xJ7KlmFOty2QkZLRjVIsJoDiMd7TBAFvx0cjpomvmxRBXveYa8ywWCx4++13cdWVV6MgP69VxcpZAqqqCrt27MCf69aiolw5y4chtOmuOVZWyQYx4+wxo9filqvO8+hl+/aiXwPi3qaPG4TwMPf9yN7/cjEOHi7yaZ325xZh6tz7cM1dL+C9L37H+m37/UKsAECGMQmTRvc76+9adWssAZIYXsKyjIyMFPZUMsEii/T09FRw4lIAkUqXbVQ1L1YAIJ7nZcVjWfzrb7jqyqvw/XffweHwnx0BdXV12LJ5I7Zt3QKLRX6QrrDQppeajpaeZAOZ0ShTRg9A/55Zbh//x587UFFd6/f3pdWoMXPSUI/E2CMvLnLLp8dbKqtrUV5R43dtxfMc7l5wEfhG5mGVupV8lghS4BJ/TU9PD2dPJRMsXpGZmRlGROkXAElKl50mCHgrrnmxApwKHifHKLlk6VJUV9f4bRufPHEC69asRn5enjzBEtZ0zJqS4+V+kaWW4Z/cteBCt7bAAoAkUWzecTAg7uuiGWOg1bi/LTe3oAQffuW7sP16rdov2+mOa2ehT/fGs11r1K3qZN2DiNKP2dnZavZUMsHiEX379lVRp/M7AD2ULjtV4Fu0rJzxtRTkoVwlScKhgwewbetmOL20AjUXFK/BakfRsRNsUPsZoihh574jKDhaBputbZIO2uwOvPvZbx4J2kN5RwOifWMiwzBr2giPznnvi99xILfYJ/Xxx23hl50/DrOnj2ry91YWLAAwyl5veZPNDk3DnG4boaa88lUQMk7pcuN5Hq/FxbgtVgDA1U7a/OSJk/hz3Vr07tMXEZGercBptFqo1eoml7325xT6vbNke+P7JX+e4Riq02mQFB+N9NREpKcmISMtAZmmZCQnxLSYG8Ybtu3OwdNvfo38olKPzquuqQuYNr5i1kR8u3gdrG5moRZFCQ+/9DE+eeluxV/W8bFRCDHo2jxbNHDKMfn6y6fjqosmN3ucWiWAENKqATIpcGVGWlp+XlHR42yWYIKlRdJTjQ+C4Fqly43mOLweH40kD5Lx2ShFbTsKLW+1WrFp4wb06t0HCYmJHp0bFh6OivLGdwTtyynEtHGD2OD2E+wOJ9759Nf/9L0deYWlyCssBbD9779rNWpkpiWhY0YHZKWnINPYAaaURESEe+4D7xJFrNu8F98v/hMbtu/3qu5OV+B8QkSGh+Cic0bjw6+WuH3OkYJSvPSe8lu4eZ5Dvx6dsHrj7jZtE41ahf/93+WYOLKfW8JGrRZgtztbuZbk0cxUU/GR4oJP2WzBBEvTYiUt7VICPKT4xMFxeCs+GkYPA6iVOMV21weSJGHnju3o1qMHUlJS3T4vJia2ScGyP7eADW4/Yumaragyu2epsNkd2JdbiH25hWf8PTzUgNQOcTClJCIhLgKhIQaEhegRHmKAVqeGJFE4nE6UV5hRerISBw8XYdeBfNnLT6EhuoBq68vOH4fvfluL2voGt8/5+pfV6N+zE8YM7a1oXaaNG9SmgqWjqQMeuWMuOqUnu32ORqVqA8ECQgl915RiKiw4WrCOzRhMsJxFptE4iFK8B0BRp5HQ05YVkxcxVVZa22dYeUop9u3ZA47j0KGDe5NLTGwM0IQ/5OH8Y7A7nG2xJs1ohOVrdsguw1xnwd5DBdh7qHXFaGpSfEC1dXioAfMvnYrn3v7Go/MeefFTdM5MVdT3ZMTAHkhPTWz1/EwqgceVF03BlRdN9DhAnlqjBjwQewqi4Tjp+6y0tAE5RUXsi+s0zOkWQFZKShKl+BaAoskjNITghZgodPJCrDRQiq/rLe22Tyil2LN7l9vxWsLCwpvMK+R0idh3iD3z/sKeQ/mBO1cEYLiM2dNHIsPo2WbHOosV9zzxHlyiclZenudwz40X+8QnqdGXG0cwZfQAfP/uQ5h/6RSvovlq1O5900fyBJziGyRIjAvkN7bdmQmWv0lOTta5eP5HAIom1OAJwaPREejt5Xa+l6trUSNK7bpvqESxc8e2s3IVNUVcXNNfv9v25LCn3Q+ot1j9wvHSG7QaNXplZwRcvXmex+3zZ3l83r7cQryz6DdF69Kne0fcPn9Wo8kGlRRGY4b2xmev3YtH75qHpIQYr8tSu7mMrwPBNWF6X9xOFyJKXwDg2ezBloSIhhc+AEV/RQsFcG9kGMbovVvv3miz43s/sK50SIpHpjEZUZHhCAkxINSgh0ajgtVmg8VihaXBhpPlVcgrPIrjPsrZ43Q6sXP7NgwZNrzR4E5nCJaEeJSUNL7tdOvuXFw7hz3wbf6FxAXuN9Lwgd0DdllxYO/OGD6gO9Zt2evReR9+vQT9enbCgF6dFavLheeMgl6nwVOvfwmbXbmAluFhIThv0hBcMHUkEuOiWvtVgsl6LapFCV/XKy7IJ6enGh/NLy68lwmWdkx6qvEBABcpXe4NEWE4N8S7SP7VkoSHK2vQ2qHOeJ5D966dMGpoX/Tr1RWZ6WkIMbgvuGrrLdi0ZQ+Wr9mENRu2oaHBpljd6urqcPDAAXTr3r3Z42Jj4prM3LzvUAFsNju0vs8PwmgGvU6DmOgIt3P4+AsajQrXzpkW0G2/8IaLsHVPrkeOx5JEcf/TH+LzN+47KzmgHKaPH4yeXTPwygc/YPXG3V5vHY4MD8GoIT0xekhvDOjVGSqhbQwRf8UevCRUjxpJwrIGZWMLEYJ70tPS9ucXFX3WnuePdmtmSk9Nn0YIfQsKO9leHGbAgnDvHmyRUtxZUYXDztbbOtk504gbrr4Ij9yzAJdeMAV9enZBQnwM1B5+SWrUamSYUjBh9GBceN5EaNQa5OYVwa7QF5TZXIPomFjodLpmv95rqmsaDfcvSRR9e3RCcmIsUw1tzLHjFTiQWxQw9SWE4MFbLsOA3p0Dut1DDTqoVQI2eRit12qz40jBMUwa1d/tqMDuWUQMmDCyHyaPHoDIiFBoVAIaGuywNiGoNGoVUhJjMaRfNs6bNAzXXXYObr36fIwa3BOpSXHgfWC9+/qXNaipbXlJOprnMUl/ygWyr0aFQpeIYwqnOiAgk6MjwhdXmc1l7XXuIO3xptOT0zsSXtoCIELJcodotXgxNtLr/D/vmOvwjtn3gakIIRg7YiAumz0NfXt18dl1zOY6PPnyB/h16VpFygsJDcXw4SOazfRcVFiA/fv2Nfrb3NkTcNO888BoW46frML58x9qi+2iXj0rC2+4CLOmjgiKthdFEZff+gwOHfE8ou28Cyfhxrnn+ryOFdW1qLdYYT2dgV2tUiEmKsyjhI5KccH8h1FwtGV90EWtwpPR/3yoOijF/ZW1yFX+47OId6r75ZbmVrTHuaPdWVh6xMcbnGp+OUBSlSw3XaXCq/HR0HgpVg47XXiwohq+drPtkd0JLzx6O+ZefA6SEnxrbdBqNRg3chA6ZaZh7cYdcMp8eB0OB3Q6PcLDm3aaV6vUKCxsfEeQw+nEzMnDmWLwgy/9mKhwrNm0x78nR57DA7fOwcxJw4Km7TmOQ/cuJvy4ZL3HyzC7D+QhIy0J6amJPq2jXqdBRFgIYqMjEBsdgaiIUI/yIinJVz+vRk1ty/6EyQKPUbp/lpt5QtBXq8Z6qwMNykbKjaC8q0+12fw5gHaXJK3dCZaQ6NhPQcgYJcuM5jm8Gx+DSBkmyXsqqnBM9F2guLDQEDx89/W4+9YrkRAf06ptnm5MxrCBvbF6/XY0NMhzSKutNSPNaGpyl4FKrUbpsWNwOs/+eq+qqcOF54xm8Vj8gM4ZKYgIC8HmnYcgUf+bd7VaDR69Yy6mjBkYdG0fHRkGm92BXfs9Tzq6Yft+jB7aGxFtYO1oC77+xT3BkioIGK470z9ORwi6aVRYbXVA4cWh9KiIcK7abF7V3uaNdrWtOSMt7XYQKBpzWkMIno+NQjzvvfYrdLqwQ0Fv+f8yoE83fP/JC5g2cYRPtxM2R5esdHz42sOIipQXUsBmteF4afP5X2Lj4hr9uyhK2L4nl6kFP+HCc0bhgxfu9Du/ovTURHzy4l0YP6Jv0Lb9tXOmo6PJ80gOlgYbbn/4TVgUdKr3Z9y1Qmmb8O1JVwm4MzLEFzFa7ktPSzufWViClPTU9GGE0EUAUUykcQAej4nEIK28eHOL6izY5QPBQgjBgqtm45F7FiDUy11LShIRHorB/Xrgt+VrZS0P2aw2pKalNfm7y+VC2fHjTdZhWP9uTC34CXHREThv4hBERYTicMExNFjtbVqfqWMH4sWHrkdcTERwT/w8hz7dMvHzso0QPYz3VFNrQcHRMkwY0bfNPoBai69+Xg1zXcsWlk5qAQOaiLmVJPBQg2C3Q1GfLUJAJsaGh31daTZXM8ESRCQnJ0cJHFkKEEU3598QEYqZMoWABODRyhrUK2wWVwkCHr33BsyZPc2vJpWY6EikdEjAslUbvS7DbrchMTEJak3jW5R5jm/Sj6XBams2pTyj9REEAd07m3DB1OFIiI9CvcWKkxXVaM2VouxOaXjy7qtxyYwxEIT28R0XGREKjiPYssvzoIqFJSeg02rQs2tGULfRlz+5J1i6qlXo04yfTRe1gGqJIk9ZJ1wtJRgaHRv7SVVVVbtIPNcenkwSGxX1JQBFF6OnGfS4NVJ+xORtNju+UjhInE6nxevP3oOxI/1z/T0zPRWVVWbsP5TndRkqtRrRMTFN/KZCYUFBo/FYzHUWzJo2EjqtGgz/Ey5dO6bhnAlDcO7EIUhNjkOoQY/aeoviSxAcR5Bp7IDxI/ri/665ANdffk4bBBtre3p0Sce2PbkoO1nl+dy1Jwe9sjPRISEmaNvni59WuZU4srtGhZ6a5n3j+mjVOOR04YSiEcxJEqgUVl1Ts6Q9jNeg39acnmpcSAieUrLMXho13oiLhloBy8VjVTX4UcHkWmqVCq89cy+GDOjh1/3S0GDDuXNu8TpCblhYOIaNaHqr6aaNG1BVWdnob88/eB1GDe7JFEIAUVFZg7ziMhQeLUPRsRM4UV6Nmtp6VFbXwnzaKfKvFwshBKGngx5GRYQiIjwE0ZHhiI+NhCk5AabUBGSaOvx9TLtv2+paXHrD46iorvX43PBQAz5+aSFSkoIzvtGkS+9GeZW5xeMuCdVjthuZvOskCXdX1ioeo4WCXpBfVPQdEywBTEejcaBEsQ6AYttCkgQBHyfI2xH0b6YeO4ETCu0O4gUOLz56J8aMGBAQ/bN6/XbceNcTXp8/bsLEJhMe7t65E8eOlTT62+UXjMctV81kbyoG4zRbd+fghvte8difBQBMKQn48MW7glIAjrrg/1DnRu6rK8P0OMfN+z8hirizwoxaSdE1zxqeSn1zi4vzg3mcBu0uoeTk5ChJwjdKihUDIXglNkoxsVLodCkmVgDgzhvnBYxYAYBRQ/vKsgRVVzdtxhaaSVrmzXZOBiOY6d8zC1dcMNGrcwuOluGeJ9/zSuz4O+7mOvIk/lY8z+OOyFBwypoLIkRCvsrOzg7qte6gFSwaTngDBIrlgicAHoyOhFGlXPqlzTbldkRMGT8cc2ZNUaQsu8OJnMMFWLFmI35cvAo//LYSK9duwf5DeYomKwOAm+df6rVTcK25aRO2SJuePA8eLgqIKKsMRmty/eXTvU5yuHH7Abz8wQ9B1R6iKMHp5tKNpwFDe6hVuDxU6Z2bpJ/dYnkkmMdoUCY/zExLu4pC2Xgrc8NCMVavVbSem+3KCJZ0YzIeuus62V8Svyz+A8tWbcT2PTlwNOHNzvMcsjLSMHRAT0waOwRZHTNkLSx265KJkUP7YvWf2zw+t76+6TQG1oam/YKcLhG5BSXo3tnE3lIMxl9frxzBYwvn4ZIF3vmzfPb9Chg7xGPmlOCIDGz3YBuy2os58FyDFoedTqy3KvcRSCnuzEhLW5ZXVLQyKMdo0ImVlJQMCvKikmUO0GpwXbiykR0lANsViDnBcRweu/cG6L0UU5Ik4Ytvfsb4867Bw8+9h43b9zcpVv766jiQW4B3F/2I8+fdhQuv+j/8+vtyOG31oJJ3y1tzLz7Hq/Os1sbXlkWXC+bqmmbPPVJQyt5QDMZ/iI4Iw2MLrwTPe/dqePqNL7Ftd05QtIXN4b6QCPEivBcBcFNYKFIFRe0GHEA+6dyhQzQTLH7OKECQOP4zAKFKlZnI83gi2vuEhk1R4hRhUSDQxCXnT0KP7E5enXuyvAJzrr0bj7/0MarN9V6VsT+nCHc/9hbOn3c31q1bD2d9JUS7BVR0P95Av17Z6JKV7vkXkK3xra7FxUVwtXD9vKJj7O3EYDRC/55ZmDvLO38Wlyjirifew9HS8sAXLDb3BUuolwJPywF3R4ZCr+z7pYNTUL3LBIufU5xqfIQoGG9FTQieiY1EBK98Mx12yvehiIuNxk3zL/Xq3LyCYlx09d3Yc0AZB9T84uNYcO/LuO+p91BTVQGHpQoOSxVEh9Wt8NbnTfE8vZPYiMNyeflJ5Bw61OK5RwqZhYXBaIpr50zDwN7e+bOYa+vxf4+85dbuGn/GkyWhMBmCI0ngcFNEiNJbds/LTEu7igkWPyUzLW0wIbhLyTJviwhDF7VvnK5znfLXLa+dez4MXiwFlZadxPzbHsHJCuUjOi9etQUX3/A49ucWgYouuGx1cNZXwGWrgyQ1bfWYPG4oBA/zMYmnA8NJkoTKigrs3rUTWzdvbjRg3FmCjQkWBqNJeJ7Dk/dc7XV8lfyiUvzfw282u7zs79g82BQRKnPLz2CtGlMNyvpISiAvZyRnZDLB4mckJSXpKSUfQ8HIvWP1WswK9V3+nVyHvAe5Q1I8Zk4b67lVwiXi9vuew4ly36WfKD1RiavveA7L1m4HcCqBmOiwwllfBWeDGZJ49pdLZEQYhg7s5eG9uPDH8mVYsvg3bN60EcdKStw+t8pchypzHXszMRhNEB5qwIsPLfDqowgAduw9jIdf+MTtBIL+htXm/pZmJYKIzgszIEutnD8LAQzgpY+CyTARFDeiU6meBkFHpcpL5HncGxXh0zrnyVwSuvbymVB54az1+gdfY+8h38chcThduO/p9/HL8jNzBkkuO5yWajgs1ZCcNuBfc9nUCcM9vo5dxk6r0rJK9lZiMJrBlJKAR+6Y63XogSWrt+KdzxYH5L3X1Lrn1xeuUEAVHsAdEaEI5ZR8LdOh6UbjzUyw+AkZaWljAHKDUuUJAJ6MjUQ457umESmVFTAuPCwEUyaM8Pi8Y8dP4qPPf2y1vpEkikdfXoSla87eskxFJ5zWWjgslRAdVoACo4cP8PprzhtOlFeBwWA0z6jBPXH1xZO9Pv/dz3/Drys2Bdx919a5lzIlRMF3RSzP4eZwZf1ZCMWTmampXZlgaWOysrJCAfI+FEwxcEtEOLqpfRss8LjLBVGGlfScyaOh1Xhex9ff/6rV15RFUcJDz3+M3U0491JJhMtWB4elEhqeYlC/1svxc7Kihr2NGAw3uHbONIwd1tu7b3xK8ehLi7B556GAumd3sjQD8hxuG6O/VoXJyvqzaCnh3kcQJDsOaMHistufA2BUqrzBWg0uCjP4tM52SZLtcDvr3PEen1NVbcbvy/9sk35yOF2489F3UN6MQKCSCKe1FgN6tZ6PmLsmXwajvUMIwcP/dwUyjEnezdWiiDsfezug4h+5LVh8sIt0bqgeqSpF9cWg9FTjHUywtBGZRuMoUFyjVHmRHIf/RUf4NBukg0qoEJ2olJFzo1NGKtLTOnh83o+/rYLTdaZ1pW+PTnji7quw6pvnsfnX1/DtO//DzVeeh3AfOBtX1tTi4Zc+bdEBb4iXWym9IdC3XTIYrYlOp8Fz91+LsBC9V+dbGmy49aHXm/1w8Sdqat0ULJzybw01IbgjIkQRZ95/RCce7piW1oUJllYmOTlZRyl9FwotBZ3KExSBGN53FjMnpahwOUEBVMsQLCOG9PPqvKWrNvz93xq1Cg/cMgdvP3UrJo7sh7AQPQSehyklATMmDYXdR8tGG7cfwPdLmrfyJCXEIDmxdVLV21g+IQbDI1I7xOHJe672OhLu8ZNVWHD/q6itb/D7e61108LiTZRbt9paEDAnVK9kkRqRkrcAn36XM8FyVqvz/CMAUWztYFaoAcN1vnP2dOGUWPlLptTL2OY3amhfj8+pqjbjYG4BACDUoMPrj9+MGZOGNur5/93itR7FH/CU1z/6ucXJanAf338EGPRazJs9EQwGwzMG9emC2+fP8vr8/KJS3PzAa4onUlUat5eEON+9/6cbtOinUc6nkhCMyEg1XROoYy/gBEtGampfALcqVZ5JpcItEWE+q69EKSqdToj/2r9r91Kw6LQadO/qeRj+Tdv2QJIkGPQ6vPbEzejdrWmt9/Oyjb6dBGrr8e5nvzV7TP9evl0W0mrUeOmhBV4HxWIw2jsXnjMKs6aN9Pr8vYcKcPdT7zUarTrQBEso7zvBQgDcEGFQVhQR+kxWSkpSII67gBIsowABhHsHIIpE1+EJ8FBUhMepwd2FAqgQnXDiTIHi8FKwZHU0eWWKPXi4ACEGHd544hZ062Rs5riiVskB8t3v65oN2tbDh1mUkxNj8cHzd6BP945gMBjec+d1szBAxsfFuk178dQbX/qxYHFv2SqS8+1rNJLjcGOEosl3w0WOe5sJFh9TnGq8HUAfpcqbFxaCbI3KZ2KlyuVsVJx4a2HpmuXdi9xsrsd7Lz+Ebp3Tmj1u7eY97lkotBpMGzcIT95zNd588ha88L/rcOnMcdDrNG6db7c78fXPq5v8PTYmAvExkYr2h16nwbzZE/HVm/cjKyOFvW0YDLkffDyPp++7Bmkd4rwu4/vFf+LtRb/53b1JEkVNjXuRsKM53+8WHqBRY4Sb86t77ycyLT0tbWagjTkhUCqanp6eClF6QKnyOqlUuCrcd0tBZtEFK23cudbupQtLpwyjV+fdc+uV0Kg5OC01zR63dXdui2VlZaTg2fvmo0NizBl/HzmoJy47fxzuefI97Nx3pMVyflyyHtdcMrVJi1H3LiacWCc/fUByYiwuPGcUzhk/GCEGHXvLMBgKEhaixwsPLcDcW5/2etfdO5/9iqiIEFlLTEpTWVMLlxvLVQRANN86PqzXhhmw3yFvl+l/6v5ydmz2sv3l+wMmvkPAWFiIS3qFAIrst1UBeDgmEiof1bVOcqFeanqwi15aWOJio7w6T6fTgrbw8NkdTuw7VNDiy//tp287S6z8bRmJCsfrj92MXtkZLdapvMqMzbsONvl7zy7pXt2rQa/F4L5dcdvVM/HVGw/gx/cfxiUzxjCxwmD4CGNyPJ669xqvdw4BwNNvfIXPf1zpN/fkblDJUI4ouvW42bmNIwpndSbJNn39g8zCorR1JTV9Goh0rlLlXRMRio4q39x6gyTC3II4UHnpQCVnmURyNe+Rn19UCqer6XoTQvD43VcitIUXv0ajwjP3z8esax+FuYXAbMvX7MCQvtmN/tavZxYG9u4Mq81xRr04AoQYdNBqNIiKDEFUeBiiI8NgTElAekoCYmMi2BuEwWhlBvXpgvtuugSPvLTIq/MppXj+7W9QV2/FtXOmtvn9lFe6J1h8GQqjMXqpVRir12JFg00p0XJrRkrGJ3lH8/YxwaIAycnJOkKkl5Uqr5NKhcvDQn1SVycoqiWXzxo9OlqGYBGbjzmSW3Cs2d/HDO3drMPuGfWMCMPt11yAB5//qNnjNu480HQ/pSfjjSduYW8CBiNAOHfiUBwrq8T7X/7udRnvfPYrnE4nbph7rtcJF5XA3Wz2rbUc9G+uDNNjh92BKmWWhlTgXG8CGAHA79Nq+/2SkIZX3QcgXYmyeAI8EB3uE5UmUpwKDOdGlwteGvXUXlqFqCQCtPnBXXzsRLO/X3zuaI+uOXXcQAzu23y+rfKKGhQcLWMzPYMRJFx/+XRMGzdIVhkffr0UC594F/Y2DOx4osI9wRLLtX56Hj0huD5MyV1DZFiG0XhFIIwvvxYsGckZmQBVLP/BnNAQdPFBYkMKoEp0uO2bIrTyl4Mkthyg6fiJpjMXx8VEoGfXDI+ve9vV54NrYfnrQG4Rm+UZjCCBEIL7b5nT4sdKS/zx507ccP8rbsdCURp3fViihbZ5hfbXqjBEq9yuIVA8nZ6eHs4Ei5w2FMQXACjSK6kCj/nhvlkKqhFdHm1V1rSyFZG6Wl6mKmvGBDq0f3aLwqNRwWlMwqjBvZo95nBBCZvlGYwgQiXweO7++eguM57Szn1HcNXtz+FkeU2r34O7FpZoru1eodeE6xGiXEC5OIjU7x1w/VawpKemjiUU0xVR/QDu9lGAuHpRhEXyLFpjWCsPciq2bFptzkG2V1fvsyDMv3Rqs2vRhUdPsBmewQgytFoNXnvsJnQyJcsqp+BoGa6849lWCWj5b9y2sPBt9wqN5DhcoWCiWgJ6k8lkymKCxUP69u2rIoR7RanyzgkxYICS5rPT2KkEs+R5osBwL1VxnRfmUUolSG4IqvpmYihkZxm9bqOOpg4YPrB7k7+XV5nZ7M5gBCEhBh1eemQBYqPkrTQcP1mFaxa+gOJjJ1vnA49S93cJtYEPy78Zp9cgW61YgA4VJ9EXmGDxkOryygUAuipRVjjH4cYI5ZeCRApUulxeuVWHe2lhqaiq8fzhE51wx/nb0kTCQ57nZOfcueKCCU3+VllTy2Z2BiNIiY+JxHP/uw4amRHFyytqcPsjb/k0Mevf82ylGXZHy1bp1gwa11wdrgs3QEHZNCU9LW0KEyxukpycHEUIFItoe1NEmOK5HiiAatEByctdYN5aWMorPY/8SkX3LECqJuIJJCfEQJAZa6BXdkaTweQsXkbHZDAYgUG3TkY89H9XyN6mnF98HF//utbn9S0udc+S05pB45ojReBxbohygTEJ8HJmZqbGH8eS3wkWDc8/DCBaibKyNSqcE6JXvI51ogs26v2W9XAv1z0r3DRTniFY3FyyUgmNb5mOjlLGcXzu7ImN/l3y+53/DAZDLhNG9MXFM8bILmf9tv2+FyzH3POXiRd4v2nfC0N0iFPMn4ZkUofrWiZYWqBTamo6QOYrURZPCO6NjFD8Bm2ShFpJXkr0CI7zSpmXnvDc8UxyuSdY+Ca250WGK7Pff/iA7o3vGqBMsTDaN5yghtoQCU1oLNSGSPBqXZsGTfMVN82bgfS0JFllFB3zvZN+cal710jk/UewaAjBvDDlHHBB6AP+uM3ZrwSLyHFPAlAkUMrsUD2y1MpmCxJBUSU5FWn0BC8G++EjxZ6dQCVQ6p64UjURlC4iVLkARddddvamL61WBQaj/YoVDVT6CBBeBRACwqsgaEOhDokGr9YDCB7holYJWHj9bFlltMYSsrvOvUl+JFgAYLBWjb4apeKMkRgi0ruYYGkCk8k0ABSzlCgrkuMwX+Hw+xRApcup2BJGohcBhw4dKfToeEl0fweTuokloXAFIyoO6tMFfXt0OrOvfJQmgcHwdwjHQ9CHNfUjBG0IVPrwoLK29OuZhUF9unh9vl7v+ySmbgsWwf/2rFwTpodKseFCb8vIyEhhgqWxikj0SaU+J66PCEOowo62daILDgWXLxK9WG8sr6hCtQe7atyJv/KPMGncnBgRpqwP0N0LLoTqX2u/4UqaMRmMAELQhYG0MOVxghqCLjyYDC24dOZYr8+NjfLtKoUkURwrq3BTsPhfKr4EgcdUvVap4nTUJf2PCZb/kJlqmg5gjBJldVKpcK5BWRVulyTUyfRbUWqw5+a5H8reEwtLXHRE4180OmXbMj0tCTfO/SfxdlJ8NBiM9gbHq8Dx7i2HcoIagiZ4LJEDe3VGuJcBz2Kiw3xatxMV1W5taT41h/tn3NULQ/WIUuiDnYDOzUjJ6MYEy7/rQOijShV2R1Q4eAVNqBIFqkSX4mksU70c7Dv35Lh9LPVAZMXFRjUxsSr/aXfpzHGYPn4wAMCUmsDeXox2B6/x7IXNq7XgOCE47p3n0a+ndwFVu2YafVq3ohL3HG4jOA56P12q0xGCi0MVs4zz4MRH/eXe2lywpBuNF1KgpxJljTfo0EejbHLDatEJ0QdZt00qAZwXA37Ttj0+ESzpKfGN/l3wQSRHQggeuGUO5s6egMy0DuztxWhXEI4DJ3jqbE7AaYJn+dSYHO/Vef16dPRpvYrd3IXkr9aVvxir1yBTpdjcPaOj0Tiw3QuWUYBAKBRZI1MTgpsUTm7YIImwUskn964hBB288GPZvS8HVqvNTbHivtAypSY2Pk36KJIjz3O4ad55zYbtZzCCEU7QwhunFF7QABwXFG0QHen50o5GrZKVJsQdDhcec1Ow+Le1iwMU3eYsUTzU7gVLsdF4GQBFki3NDjUoOohESlEjij69/3QvFLDT5cLOvbluChb36WjsAL4RAcX7eIIMxngTDEazwkPlpVMkATheHRRt4I3NelCfrtCofRsGITfPvezxiYL/C8dstQr9lQsbMamjyTSi3QqWvn37qgjF/UqUFcpxmKdgvBDg1FKQBN8GNctQeSewNm7b5caM4JllSKfToFN6SqsLFgajXUEIiIz4HRwfHH4s5lrPE7mOHdbbp3WSJIq84uPuCRY+MObFK0IN4BT6JpQofazdChZzRcU1ANKVKGteWIjX4e4bwyKJskLvu0snLwXL8lWbQFuon+RF/RvL9yOxSLQMhnITrqCBnD3KhPBB0Q7FHkasVasEjBzUw6d1KjleDqvVveSK/r4k9BfJAo9xOoXSAlEMT09NHdumz09bXDQ7O1tNKblbibISeB4Xhiq3VieCosaD7cBy6KhWQetFD5SUnsD+Q3ktDC7PfW+GDzjbn8Tl42UxBqNdCRbeexM9FZ1w2euDoh325RR6dPzQ/t0QYvBt0LjDBe75r3AAkvjAsTxfFKKHRqGld0L4h9udYLHVNcwFgSIR9K6LCFWsMwCg2gdbmJuCB9BZ8G4CW7pqg+KCpW+Pjgj9z6QgiRIYDIZCE67guQ8KBYXLZoHDUuOxb5o/UnC0DCXHPcuLNnn0AJ/XKyfvqFvHxQucX2RpdpconsO5BqWCydGhmUbjqPYkWHgQ6U4lCjIKAiYrGKq5XhJhk1r3Bd1d451g+X35ny0uC3mKwPOYMKLfGX8TmYWFwVDm65TjQDwME0BFJ5z11RAdFgDBsTy7cv1Oj4436LUY1t/3scsOF7jncGsSAi//2YwQnWLR3ykl97fVfbS6YMkwGucAJFOJsq6PCFMsSJwIito2eDl7K1jKTlZix56DitfngulnOoK7JGZhYTCUESyePeuiw3raquIKmjYQRQk//P6nR+eMGdobGo3vRYK7S0JpQuD5EekJwQzlrCxjM1JTh7YHwcKBQhHrSqZawGjlciag2uXy+a6gRu9D4BHipRv3F98tUbw+nUzJGNCr8z8TjItZWBgMuVTW1Lrtv0KpBKelBi5bHYLFqvIXqzfuwvGTVR6dM3FkP5/Xq7a+AWXl1W4da1QFpuPzNIMWEUrt+iT8PUEvWDKMxlkAspUo68bwMMUq30Al2GjbWBI4QrxOCb5i9SaUVzb+kMmxO904b8bf8VFE5sPCYMhiy65DuOfJ90Hc2JIsiU446qsgiY6gawdRlPDWot88Oken02BAryyf1y0n76jbS+ymABUsGkIwM0QxK8vU9JT0fq19D60qWCiFIjuDuqnVGKZTpuEpALOrbU2u/bXeCRaXKOLbn1Y0pYC9rk92pzScM2HI6UmGWVgYDG9xOF149KVF2L4nFzl5xc2/0B0WOC3VXjnMBwKLV25GflGpR+d0zzKB530vEHYfyHfrOD0hiOUDd2v5JL0WUUrtcOLEhUErWEyppvEE6KVEWddHKJex0yy5fJIryBP6aFTwdlf/Nz8vb3zrsUzT3+3zL0ByYixcIovDwmB4y3eL16H0RCUA4Ocl65r4kKNwNtTAZbMEZRscO16BF9/7Hs++9bXnH6dZplap4/6cAreOM6p4BHJsbjUhmBWizEYVAnJeRnJGZmvWv9UEC0eku5Qop5tajYFaZcJTOymFxQ8sCHpC0M3LkNMnyyvx8+JVjQ4nORj0Wrz++E2IigwBg8HwHFEU8fG3y/7+98atZycupZIIZ0M1JFdwLQFRSrFpx0Hc+vAbmHH1g1j03XJYGmwelxMTFdYqdd1zyD0Li1EV+JGGx+kUs7LwlJduCzrBYjKZegBEkQh514Qr9wJtzZgrLTFERjTCtz76Fs7/LGsRBcyWyYmxmD5uMHvzMBhesH7rfpRX1Pz97yMFxThZXvn3vyWXE46GalAxeHYBOZwufL/4T8y69hHccN8rWLdpLyTJu1mWEILwMN9nqC4uLUeN2T3rllEIfMGiIsAMg1JWFjo3MzMzNqgECy/hLtmf/AA6qVQYopDvikUS4fCjteJhOrXXwYhKy8rx8+9rzuxYosyDxZITMhjesWzt9rP+tmPPodNixQ5nQw0QJGEDrFY7Pvt+BabPewCPv/oZCo6WyfvITUnAe8/ejkmj+vu87nsP5rt9bKDuEPovk/QaRCmzY0gvOVwLgkawZHbITKags5Uo6+rwEEXWDyUAZj/7qtETgn4a75e63v7omzOtLARu7UpgMBjKI0kUm3ecHSdp9/7DkJw2OK1mBMOWZUuDDR99vQxT596PF979DhWVNbLKE3gec2dPwOev39dobjNfsMdNh1uOkICMwdIYakIwTaG4LITgph7x8YbWqLfP32hUEG8FIDvqT7pKhVEKRbU1iy7443fNKL0aG2x2r84tLSvHtz8tx8XnT/7nAeNVEIPI3MxgBApHj5ejylx39stx3yE4bbUBr1XKq8z47PsV+HbxOrcTBrZE726ZuO/mS2FKSWjVe9nrpsNtAscpmgamrZls0OIHiw118q180fU63WUA3gpowdIjPt5gAb1KibLmhYUoYg5yUYoGP83H0UejRijHeT2AXn33S0wcMwRRkeGnBIughuiwsrcHg9HK5DaRl+ZATj5sVju0Wk1A3lfpiUp8/sMf+H7Jn7DbnYqUGWLQ4bo503DhOaPBca0rCKxWO/Lc3GqdHiTLQX+hIwRT9Vp8Wd8guyxCcROAt+FjKe7TJaHTqitCbjlxAofxCjkJ+ZOjbWPqcazO+2Wh2rp6vPjmon86l1cDzAWFwWiTF3tjOF0idh8sCLj7yS8qxQPPfogZVz2IL35apZhYmTSqP7579yFcPGNMq4sVANiXW+h2cMxO6uBbYp9q0ChlNeqanpo+1tf19WkPEEARZ5w5oaGKVNRGJdj9PCjTFIMOPzfYIXmZ2PDHxaswY+po9O3ZFSAEhFOBik4wGIzWo7qR5aC/2LY7FwN7dw6I+9i57wg+/W4F1m7eo2iy1QxjEhZefyH69ujUpve3dVeO28d2VquCbpyGchzG6DT43Yst52e97znpJgArfFlfn1lY0lNTx4Kiu9xyQjiCc0P0suvjDxFt3SGO59BHxoNBKcUTL37wdzA5XqUGg8FoXWzNWCCWrNmqeKZ1JXGJIlas24F5//csrr7zeazZtFux+mq1Glw7Zyo+e/XeNhcrwKm0Ce6gIoBJCM5NDOeFaMEpYWWhmJaZkuJTT2mf9QABd5MS5VwQEgKDAo1pkUQ4A8TTbYpBg2127wNJ5RwuwOvvfYVbrr0EvEoXtBE0GQx/pblwAKVlFdi1Pw+9u2X6VZ0tDTb8vGwDFn3/B8rKqxRvjyljBuDmq2YiJjLML+633mLFgcNF7n2AqwSognR5PY7nMUijwgab7OCFnMQJCwDcHlCCxWg0GkExTW45akJwUah864pEgdoAStHeS6NGssCjREam5PcX/YAhA3qif+9scCoNJKcdDAajddC34Iv27W9r/Uaw5OaX4Lvf1uHXlZthsyk/T2RlpGDhggvRs2uGX/XR9r257vuvqFRBPV5nhOiUECwgoFf2iI9/cM+JEz75SvaJYOEpuQagsl2qJ+h1iFEgYmudJEIKoG2EHIDzDTq8bK73XqRJEhY+/DJ++Ph5hBp0TLAwGK1I9Omdek2xbO02XDxjDLplGdvMurBkzVb8uGQDDrppZfCUmOgIXHfpNJwzYTB4nvO7Ptq885Dbx3ZRBXdMq04qAV3UKhx0yPZ3jGjQai8C8H5ACJZRgHAUdK4SZc0OlR+LRgRFvRR4sUhG6tT4sp7HCRm5jk6WV+LBp97ES0/cAcLxoBLLvMxgtAbJCTEtfFBQ3Pv0+/j05bsRHtoqMbdgdzjx55a9WLJ6G9Zv3Qe7wzfO+HqdBlfMmog5543x6+3bWzwQLJ00wR+Ec5peq4RggQRyTcAIluK0tHMIkCS3nJ4aNboq4JVdK4oBGaOJIwTnh+jwhgwrCwD8sXYzXn33K9wwbwZc1jr2JmEwWoGMtJanwGPHK3Ddwpfw6qM3ICY6wif1qDFbsH7bPqzbshcbtu33KgGhu2jUKsycPAxXXjwZUeGhft0/FZU1bqcPiOI5xHBc0I/ZwVoVonkOlaK8nbQEGJiZltb7SFHRTr8XLISS+UrE/rhQga8Ofw4S5w5j9Bp8W9+AkzIH0Dsff4vkpDhMH9UbksQi3zIYviYpIRrREWGorKlt9rjcghLMuu5RLLjiHEwfPxhajbxdffUWK3buP4Ld+/Owfe9h7Pcgzoi3qAQeMyYOxZUXTkZcbESbtvtfViNNCx+7m3d6sJ1Z1T5SnHCEYJJeg8/q5AcblcBdBeBGxfWFkoVlpaWZXCBHIHO7dAzP49cO8bLVVKXLCSsN7ORia612vFBTL7scgefxxjML0bdrCnubMBitwL1PvY+la7a5fXxYiB6D+nRBr+xMJCVEIzE2GrEx4WctGTVY7SivMqO6pg7llTXILy5FXtFx5BcdR3HpSZ8LlL9QqwRMHzcY8y6ahMS4qDZta5vNjh+WrMe2Pbl47oFrW0za+uDzH+G3FZvdKntemB7nKhS41N+plSiuPlkNh/xt7GaDzdpBaedbRaWjC9zVAJVtO7sgxCC7Yk5KA16sAMBwnQa/NNhw2CHPMuISRdz+4Et4/albkZ3p36KFUoqcvKPYm1OIwuLjqLNYMWRAb0wdOwiiyw5QCQyGvzN6SC+PBEttfQOWrd3eaJZnf0Kv0+DcCUNwxQUTEBvTthYVq9WOH5eux8ffLEN5lRlvPXVri2JFkig2bj3g9jU6qdpPEtkwjmCYVo2V8vNDhdfrdLMBfOivgoWHAs62Ak5tsZKvFIPDwZQAmBuqx32VtbLLqrM04Lq7XsCL/7sO/Xpm+d29mmvr8dUva/HDknU4WVFzxm879+dj2uSxUGsNEO0NEB0NYDD8+mNjYHfodRo0WINjh15SQgwunDYCM6eMgF7Xts60lgYbFn3/B778aSVqT+fCGTGoB/q7Ma/tPZTfaGLKxlARIEPVvrLeT9ZrlRAsIJRc5beCJcNoHA8q39l2pAJbmV2UwhpEO2Ky1SoM0aoV2SffYLXh5gdfx1P3XoMRA7v7xf1JEsWPS9bjtY9/grm28eWv0rJybN25D4P69YCgDQHHC0GR9ZYRvGg1apw7cSi++HFlwN4DxxH075mFmZOHY/SQnuD5tk0A6HSJ+GXZRrz16S9n+AfxPIeb5s1wq4w1m/a4fb0slQpq0r4SsnVUC0hXCch3yvV3pENNJlNWQUFBjlJ1U046UlyhRDHnKRCG3xyEjqVXhxmwy+5EgwIhsu0OJ+589G08cOscTBs3qE3vq7SsAvc89T725RS2eOzOPTkY1K/HqYlUpYVAKVw2tvOJ4b9cMmMMvv11DZyuwPqASoyLwuTRA3HepCFIamGLdmt91KxcvxOvfPgDjh2vOOv3mZOHIz010a2y1nogWHpoVO1y3I7Xa/C2Wf57lJOkSwE86FeCJTMzM4w6XefILSdJEDBA5r79U9aV4PNxiOI5XBGmx5tmZXyYXKKI/z3/MXbsO4K7rp8te3eCN6zdvBf/e+6jv026LVFQfOyMf/PqUwHxJNEBBsMfSYqPxqzpo/D5D3/4fV1DDTqMGNQDU8cOwoBeWS36grQWazbtxmsf/Yz8otJGf9frNJg/Z6pbZRUdO+n2dmYA6KEW2uW4HaXT4JPaBlhlfyCTywE8BECRl7IivUEd4kUgkG0amRmik52N0RzE23bH67VYY7XjgEO5e/xp6XrsPVSAp++5CulpSa1yH5JE8c5nv+K9L373KKmao5GgRrxGD6mBCRaG/zL/0qlYsW77WX5Z/kBCbBSGD+yOEYO6o3/PzlAJvN/Ubdf+PLz64Q/YtT+v2eOuumiK23Ff1mzc7fb1dYS0K4fb/977UJ0GK+TH7UnLSEsbmVdUtMpvBAsIlb0cxBNgmkGe5glW68pfcABujQjBbRVmWBTMNZBfVIrLbnkaCy6fjgvPHQ3Bh+vU9RYrHnj2Q6zdvNfjc2NjIs9uE0EFEAJQ5szC8F/Lxf9uuxw3PfAqpDbOEaLRqNAty4QBvTpjxMDu6JSe7HftVXC0DG99+gv++HNnix80GcYkzDl/rNtlr9nkvmDpphGUyWIcoEzQKyJYAEquAOAfgiUjOSMTEAfLLWeEVivb2dbcDoKixfE8bgoPwdPVdYr6m9rsDrzw7nf4cdlG3DRvhk8ccnfuO4IHn/8YpWUVXp2f3bmx5GkEnKBmuZIYfs2gPl1w07zz8PL737fqdSPDQ9C1Yxp6d8tE724dkZ1l9Csryr85WV6Dtz//Fb8s3+hWLBmOI3jgljluf2BVm+ux91CB2/Xprla16zHbSSUgTcWjyCnT/4rQ87Njs2/cX75fdkAx2YKFcuIlRIEAdNNC5FtXbFL7iM8xSKvGNIMWv1iUD7OdX1SK2x56A9md0nD5BRMwakhP2RYXq9WOtz/7FZ/98IfXX5g6rQZjRw5sYuJSQQITLAz/5vILxqO2zoIPv16qeNmxUeGIj4lEanIcMo0dkJWRgkxTB8REhvl9u1Sb67Ho++X44qdVsNvdz2VzwdSR6N7Z5Pbx67bs8SioXo828OvzN0brtPjIKddvkoRYDZbpKMcXbS5YCMFsuWWE8xyG6LSyyqiTxHa1w/WKMANyHC7kOn1jVdqfW4SFT7yL2KhwTBjVH2OG9EKPLungOPe1qbm2Hj8u3YDPvv+jxRDlLXHxBZMR2tSSIUfAYAQCN86bgWEDuqOy2oy6eitq6xtQW9+AuroG1NZbIDWyBEIIQWiIDiF6HQx6HUIMOoTotYiLiUBCbBQS4qKgDkBfi1Nxl1bj0+9WeByrJjYqHAuu8Gyfxx/r3E9tE84RpPmpJao1GaVT45M6C+SuZBLgIkC+YJE105tMph6cRHfLrcRFoQbc0UI69uYQQVHmdLS7kBxVooS7K82ycw25S4hBhx6d09GlYypSkmKRnBgLrUYFg14Hu8MJq81+OlR4GXbsPYyd+w4rsp0zMT4G33/6YpOCRXI54GyoYW/DdsxPS9djYJ8uSIiNYo0RAELli59W4bMf/vA6qN5zD1yL0UN6eWTFmXTp3XCJ7s1Hw7Ua3B4ZwjoLwKNVddhul72xwWEXXYklJSVVbWZhISK9SIlsRHKdbS2i1C7jh0XxHP4XFYZ7Ks2obQVnvnqLFRu278eG7ftb7R5VgoBnH76taesKAMKxL6H2jiQB5857EJPHDMCTAQJCAACAAElEQVTlF4x3OyYHo/U4drwCX/y0Ej8s3QCbzfsl3OEDunskVgBg+dptbosVAOiuUbEOO80YnUYJwaJW8/wMAB+0nWAhdJZc95V0lQqdZTg3UQD1VGy3g6mDwOP+qDA8UFkLe5DtlCGE4OG7r0ev7p1bOJADo30zeUx/vL3oF/yyfCN+Wb4RvbIzcO7EIRg/rC90bRxGvr2za38eFn2/Ams27Za9SyoyPAT33XKpx+d5ktMJAHpqBNZxp+mvVSGEI6iX+1FMyYVyBYvXn6Ymk2kAoVgotzHmhIWglwznJosoBkWSQzlE8xwyVDzWWx0IlpYghGDhLVdi1rnj3TpWYrmF2jWCwEOtFrB+6ynrX1l5NdZs3IMvf16FwpIyEEKQEBcFgfkltAp2uxNL12zDE69+jnc/X4zCo2WyIw8QQvDE3Veja8dUj84rLavAS++5vzsrnudxUaiedeJfIoEQlIki8mTuFiKEpkXFxLxdXV3ttRev1zKSkyTZ1hUCYIKMtN3t3bryb/po1HgwOgxPVtUpEJ2w7bn1uksxZ9YUDx4GHpS62EBox8ycMhzfLl6HvMJ/IqI2WO34bcVm/LZiM7QaNQb37YrhA7tjQK/OSIxj/i5KQinFvpxC/LZiE5as3oo6i1XR8i+cPtKrcAu/r97qUYDKflq2HPRfhus0WNYgdycmESCK5wF4u9UFC0Bmym2EHho1EmVsmbVRCS4WMOyf9lSr8HB0GB6tqkNdAG/xvuumK3D5RZ7tACA8D0hMsPgrBORUHxH+9HfOqY8dKoqgVAQUsJIKPI/7b74UV93xXKNLDza7A6s27MKqDbsAAClJsejfKwv9emShR5d0JmC8FCkHDx/FH+u3Y9ma7Sg9UemT63TpmIabr/LulbNktWfLQX2Z/8pZZKtViOI5VMnd4CFBlmDxykRiMpl6chLdJfvFFBmO2aEGr88vF52wSxIbTf+hxCXiocpaVARg29xy7SW45vLzPT7PZauD6LCyzvcnkUIIeJUWRNCCE4TmpxtJgiQ6IIlOSC4HqIxs629+8jPe++J3j8+LjghD185p6NbJhM6ZKcg0JrFdR41QWVOLnXuPYP3W/diwbR8qqmt9er3I8BAsevUer/oit6AEFy943O3j1YTg0/hIaAgLlfBf3q+1KBH7y+mkUnxxcXF1q1lYeErPk2vX4ACM0Xsfe8VFKRMrTZAs8HgiJhxPVdcpkCK89bj+ylleiRWA7RTyNzheDZU+zH2HaI4Dx2nBqU7NCZLohOho8CqC8fxLp2H3gXxs3e1ZVvvKmlqs27QX6zb9kzYixKBDpjEJGalJSE6KRVJ8NBLjo9EhPgYR4Yag70ebzY4jxcdxOO8Y9uYUYPf+IygsOdFq1+d5Dk/fe43XwnHJqq0eHd9drWJipQmGaTVKCBaVGvxUAItaTbBQivPk1rq/Vi0rFH+dxHxXmiOO5/B0dDg+rrPgVx9ExFWacyaPwg1XXeT91zwTLH5lWVHpw0/lePJa8KjA6cIhClaI1npQDwIX8DyH5x64Ftfe/RIOHSmWdS/1Fit27c9rNAGfTqdBUnw0khKikRwfg6T4aMTHRiEyPAThoQaEhRkQERbit6Hw/8vOfUew91ABSk9U4viJShQdO4FjZRVtmv/ozutmo2+PTl6dK4oiflu5xaNz2HJQ03RSC4jjOdlxvyih53krWDyeUTqlpqaLhMuTe/P3RkVgppfh+CVQHG+HgeK8ZZPNgVfN9YomTFSS9LQO+PrD56CVsVuMii44LFWss/3BuiKoodJHyCpDctrhstWf8m/xkipzHa6+/TkUHTvZpu2h12kQER6KqLAQhIcZEB5mQGiIHjqtGhq1BmqVAINBC55wCAvVg+c56HVaaNQqaNRnf1MKggC99uyt2i5JQkPDP8uidocL9n9lOE9PSUBsTNP9cvGCx5FbUOI34+iqiyZ7HM323/zx507c9fg7Hp3zVmwEEthOsib5pK4B39fLW3qngMUhumJLSko8LshjC4tEyAy5N80TgpEyQvHXSxITKx4wSKtGqiocz1fXI88Pl4j+d9f1ssTK6c9q1tF+Y2KREReHSnBaayG5ZAeqQlR4KF5/4hZcdftzOFFR3WbN0WC1o8Fq9zrpp1LMv3Qarp0ztfF5XaLILz7uN0PonPFDcP3l02WV8f3v6zw6PlUQmFhx410iV7AQwKARhIkAfvT4Y8hzdUSmy73pHhoVonnvJ7UGkS0HeUoSz+PZ6DDMDzPA4Ee5d/r1ykbfXl3kvyNBWAC5AIdKIhz11YqIlb9IjIvCJy/dhexOae2+ffOKSpv8rcpc51EkWF8yZmhv3H/LJSAylhRLjpdj885DHp0zgG1nbpGOKkHWu/ufh51O9eY0j66cmZkZBmCo3LqOlmFdsVMJLmZf8QqOEEwxaPFWbAQm6DXwB9kyccxgBT/s2ddRwIoVKsJpqZG1BNQUMdERePfZ2zFl9IB23cZHmlnuqa2z+EUdJ4zoi6fuuQq8TIvp97//6VHsFQAYyLIzu/FhqFQ7kanwwiXFM6nkECcCkC1DZS0HMeuKbEI5DgvCQ/B4dDgyVW37ku/WJVNBwcIsLH4xqXkRG8nZUOsTsfIXGrUKj9w5F/MvneZRxvFgoqSsAna7s9Hf/MG6MmFEXzx21zzZYsXpEvHLso0enRPFc8hUs3D87jBIq4iwS8xMS+vlU8FCQafIrWUnlQodBO8GhkRPBYtjKENXtYBnYyJwX2RYmwkXQUHfE8KxCccfkDwUHqLdAio6fS+kCMG1c6big+fvhCklod31iyhKOFlZ07hgcbbtvHrJeWPx2F1XyhYrALBqwy5Umes8OmeARg22mdnNj0y1gDAFRD8FPNYTnEfHEkySW8lRMmKvWCSRLQYpPYnjVHKr52Ii8Hh0GAZp1WhNO4W5rl6xsji2JOQXUA/iI1EqQbS3bh6o7p1N+Oy1ezF39gTwfPuyylU38SJ3iW3jjM/zHBYuuBC3z79Asb74fvE6j88ZoGXLQW7Ps4SgryLtRXwnWNJT0vsCkP1ZMkLGcpCF5Q3yKdlqFe6ODMU78ZGYE6pHh1bwmD9+QsGdE8zC4i+KxW3/AdFu8SjGilJo1CrcNO88fPDCnejZNaPdCxZRbH0LS0S4Aa8/fjNmTx+lWJkFR8uwbU+uR+foCUF3NXO49YR+akUE3sDOHTpEe3KC+zM8kSbLrV00zyHLy4FhZ3mDWo0YjsMFITpcEKJDgdOFzTYnttgdKHAq7+5cXFKmnF7hmWDxH9HiAkjzzzqlFJKz5aCG5joLdu0/gsKjJ3CyohoOlwsqQcBd118ou5rdOhnxwfN3YPPOQ3jp3e/8Kg6JL6iqrm/S0tGaDOjVGY/cfkWzcWG8YdH3Kzx2tu2tVUHF1oM8opdGBR6ATBMC7zi1vflzxQULIXS83OzMw7Rar0uwsDD8bYJJJcCkEnBRqA61EsUBhxP7HE7kOUUUuJywyeyWo8fKFK0v4XhZeWgYyiC5XOBb+DiRXLZmXy4NVjueev0LLFm9tVELwJghvdCvZ5Yi9R3YuzMWvXoPFq/cjPe++B0lx8uDsl/qLI0vv2lbaUlE4HlcdfEkXH3xVMWdnyuqa7H4j80enze8kSB8jOYxcARZagEHHPKWEjmQsYoLlh7x8QYLiOw9gUN03g0MCRQN7CXU5oRxBIO06r+9xCUAm2x2PFPtvR9KUYmywaoIJzDB4g8GFjf6oKU8QR98tQS/NfMCWvTjH4oJlr+sDNPHD8bUsYOwdXcOvvxpJdZt2efxF7s/43Q1/oLRqn0vWAb06ow7r5+N9NREn5T/1U+r4fAwMGYIR9CXbWf2in4atWzBQoFxHgledw6q12pHEUBWrwoABmq981+xMuuKX8IBMAry1n6P5BXD4XRCrVJmDZnjVZBcdtY5bS1YWtz1Q1s8pt7SfETN9Vv2ITe/BJ3Sk5Ud1xzBwN6dMbB3Z+QVluKLn1di6eptaLAG/rgSm9i+rPPhSzs2JgI3XTEDU8cN9Nk1bDY7vvvdc2fbwVo1Ww7ykr4aNT6pk+0wn5qenN4xvyT/sLvvHHcOGyO3Vr21GoR4aQK0sC9mvyWCl/e0O10u5OUfVaw+hPmx+IdgkVxozuGJiq4WLReTR/dv9ndJonjlgx98eh8ZxiTcf/McrPjyWbz0vwUYN7xPwCQzbPR5a2L7slan/LJIXEwEbr92Fn5872GfihXgVKA4c63nlt6ROrYc5C1pKh6xSvg+CZLbVha3ZncCOk5unQZ6uU7oBIWDOdv6LXpCoCZEVh/tO5SHLlnpTLAEk2ChFJQ6QZpwvJWklk3JPbtm4MJzRuGrn1c3eczG7QewacdBDOrTxaf3o1GrMHxQdwwf1B219Q34Y91OrN64C9v25MJmdwRMvzhdjVu19FoNeJ5TZLdQalIc5s6egCljB7WKuBNFEZ//uNLj86J5Dl3Z7iBZ9NKosLxBnuWRo2QsgDcVESwZGRlxcInd5QsW70yOLG+Q/xPLczjm8r6fDuTkARivjGAh3KmcQizAYJvTnOMtdfO5vn3+BThSWIrtzWxVffzVz/HNm/dD20rOk2Ehepw3eSjOmzwUdocTu/bnYcuug9i8MwcHDxf5dZ80JUh4nkNoiA41Zu9C9IcYdBg5qAemjh2EAb2yZOUB8pSla7fj+EnPM7WP0LVuzKlgpIcCgoWCjgXc23TUomAhTmkUJfK2B4VzHLK8cOqiYLuDAoFEnpclWPbn5CtaH44XFE2g55OXuUSDPkS8JDrBQ9fEw+3eeOF5Hs/ePx/X3/MycvIaXzosLavAm4t+w21Xz2z1e9SoVX/7u9w0DyivqMHug/nYfSAPew7m49CRo36TVPCUhaXpukSGhXokWJISYtC/ZxaG9uuKYQO6Q9MG1gpKKRZ9t8Krc0ew3UGy6ak+JfpkvqUjMlJTe+UVF2+XLVgkghFyp9V+XkZPdUgSJBbb1v8Fi8ABMkT24SNFijreEl4F+Llg+ebXNbjwnFFBPS6oy9mMYHN/igsPNeDtp2/DDfe+jP25jVswPv9hBQb2zsKQvtltes+xMREYN7wPxg3vAwCw2504eKQYOXlHcaToGPIKjyOvqLRFh2Jf0VxE24jwEOBoU78ZYEpJhCk1Ad06GdG/ZxaSEmLafIyt2bSnSSHbHKnCqXANDHmEcQRpKgEFTrm7hbhhAOQLFgI6XO5NDfBSyTYws35AkCTITVbmwuG8YmR3VibiaCD4sWzYth+hofqgziBMqQgqSU0kpfTsQyTUoMPrT9yCWx58HbsP5DUigCjuf/pDLHr1HiTFR/tNG2g0KvTKzkCv7DPH9vGTVcgvPo5jx8tx7EQVjp+oxLGyCpSWVaC23nepClyupufUyWMGoHd2R4SF6hEWokNoiB5REWEwpcQjPCzE78aXJFG89ekvXp07Ts+sK0rRQ62SLVg4QoYDeFmWYDEajRGg6CZbsGg8385MAVhZKP6AwKSAY92ufTmKCRaeV8EF4vFLsTUJDzPgqde+QM/O6eiQGBO0Y4OKDhCukedf8rxvQg06vP7YTbj14TexbXfOWb+b6yy487F38O4z/we9n+/+SIyLQmJcVKO/Wa12VNXUobKmFmazBVW1daisNsPSYENtfQNsNgfsDhfqLQ2w2hyNLvPYHc6/l2gMei14jkCjUaNzZmqTdTp/8vCAGlvL123H4YJjHp+nJgRj2O4gxeipEfCTReY8AToCaHnSblawcJQOPeXB6D3xPI8ULzIB26nozZzGaAOMgkr2OubGrbtx6QVTlKkQ4UB4HrSNErq59VzERMHSYMO9T7+P95+/Q9Gs1X71FexygFM1IlgI9UpP6nQavPzwAtx4/6vYue/IWb8fOlKM2x5+E688ckOb+FQogU6nQQedJqiFrFxEUcI7i3716txhWrXXITYYZ5OtViRMf6zJZOpUUFCQ06wmaXbeJ2SE3Jvp4+1yEHO2DRi0HJAo08qydcc+RZ0TOc6/X1am1FN5RPflFOLtT38L2rEhNenH4v0LQ6tR46WHFiA5MbbR37ftzsHdT74Hu8PJHs4g5fdVW1BYcsKrcycZtKwBFURDCDIU8AfiJbRo4mveekIh20bYS+Pd7iArM68EFJ1lDlhLgw179x9WrD5E8HPBkhL/939/9M0SbNl1KCjHBaUi7HUVcDaY4bJbIDntoAp8jIQYdHjy7qubtEyt3bQHN97/KiwNNvZwBhkuUcQ7n3sn8juqBXRizraK00UBayYl1HvBkpmZqQHQR24lems8vxErldok5TzDe7I18gfsxm27FasPx/u3YElPTfo7qJYkUTz4/MdeReoMDNUiQXLZIdotcFrNcNRXKJLvqWunVFx72dQmf9+x9zCuvvN5lJ6oZA9oEPHTsg04drzCq3PPM+hYA/pi/lcrIAIpHeK1YCEuVy8AsjyTwjkORi+2qtrYclDA0U0Bhb1hyx7F6kM4Xq77lU/RaFTo0jHt73+XV9TgkZcWsYHkIXNnTULfHp2a/D03vwSX3fJk0Fqw2ht2hxPvfb7Yq3PjeR6DNCyyrS/oohYUCMJHMjoldYrxSrBIkvzszL00nsdfoaCwstxBAUcczyFepuPo3oO5qLMot6WTE/w7C2vvbpln/Hv1xt345re1bDB50sccweN3zmt2222N2YIF976Cx1/9LKDC6DPO5tPvVuBkRY1X584I0YIjzNnWF4RyHJIF2VYWIqrs/b0SLCBSf9kTshf+K3aJLQYFKv208r5eRJeEzduUs7Jwfu7H0r9n1ll/e/Hdb5FfVMoGkwfExkTgvpsubv5DiFJ8v/hPXHbzU82G+Wf4LyfLa/Dh10u9OjdB4DFez5xtfUlXBZaFCCEDvRMsILLTa/bwQrCwYHGBS3+tfIvGH2u3KCdYeP+2sPTvlYWwEP2Zgt3uxMIn34fdzna4eMLYYX0wY9LQFo/LLz6O+QtfxL1Pve9V/hlG2/HS+9/BZvMupPYlITowV1vf0kkBwUIpBngsWIxGYwSAjnIuLADI8tCvgQKwseWggCVbpYJOpsl1zfrtim1vJhx/ypfFTxF4HsP6nx2XMb+oFC+9/z0bUB5y53WzYUpJcOvYpWu2YcaVD+LxV/+fvasOk6u62++5Mm7rnt1NNq7EDZeWAqVQd6e0UFcqX1tKvaUtUIoXd7cESUISkhB3z2rWbVyunu+PDTQhO7szc+/ITu77PDzA7J0z55577jnv+cn7ewR9KboYDGQOu/Y34vV121P6bgPPYrkhFJd+wqJD9hUBFmEEzYNhCQtHyEJAW8HDBhMPc5Kbl6CqMOwrYxc8ARZqtLIEgiFs2b5ftz7lehzLJefMH/bzJ196C6ve3mlMqiRgMZvw559/HeYEAytlRcGzr76NK778S/z0D3dj3+EWYxBzEKpK8dc7ngSlyQcLEABfdzmMqswZQBXHwq5RkI8ChROqJ8SVPB/2+Fno8XwCwIVafvhcqxVnW5PzGQZVBRI1IljGOmlZF9UW2Gi3W3HO0nk69YhAlXJXi6O6ohjPvbYRkejpfdywbR8uXD4XHpfdmFgJotDjhM1qwcZtiZNeVaVoauvC8ys3YPPOQ1BVinFVpTAZeh05gedWbMBzK99O6bsXWM24zBCKywgIgD2ihB5Fo9mBpRu9Pt/+hAlLgctzPYi2GkIfc9oxJUmXkF+VDQvLGEcZx2JFRICogXj29A3iC5+8HESPiH7CQBGjOTteDMMgEIhg5/7TZeYlWcHeQ024/KIlYFnjjJgoZkyuw8GjbWjr6E1h7nmxbvMePPrCauw73IJIREBxgQt2I2AzKwiGo/jx7+5ENIXsLishuKHQqdlNbSBxdMoqDmhUmKYUR71+36qECUuhx/N7AJpKnl7ndqEwiUVWoiqCRvzKmAcDoF9VcVRD9c5IJIqzl8xFWan2qruEEFBF0kWoLF2oqSzBEy+9NazJu2/Aj3A4imULZhiTK4lnvmjuVKxYvQWRaGpBmoqiorW9B+u37MUjz6/GW5t2o7ffCxPPocDtzNvaT7mGW+59FltTzOr6jNOGuWaTMYgZRIxSrI+JGt9fhLx+3yMJEZZZZWV2ieP/Cg0xLBaG4PseV1I57xGqQjAyhPICpSyLlRol0d1uJ5YsmK1Ph6gKVc5d/Q2n3Yq29l4cbRm+8uy+wy2YWF+F+nEVxuRK9HRtMWHapFq8unpzSrEP78eAN4Ad+47hhdc34v6nXsPra7dj3+FmdPcOgmMZFHpcYIyCerpi94FG/PHfjyGVx1fJsvhegdOIXcn0e8cQvBDW7IJ3eP2+vw9LZt7/wYTa2qUA2aDl12aaTfhvWXKVRntlCaJBWPIGvxoIYK8G02BleQlee/o/uriFqKpCDPXn9Hgda+7Ep667Ke7m6rRb8citPzcq+CaJ+55YgX/f/2Laf8diNqG6shg1FaWoqSwZ+ndVCaorSlBU4DLiYZKEKMn47PV/QFNbV2rrT6ET8wzrSlbwpR4vfBrV6lWGlDc3N59W3ZIbhsHM0XoemZykHL8CapCVPMOldosmwtLZ3Ycdew5i3uxpmvtCGAaE5UGV3NU2aaivxLmLZ+GtTcPXUwqGo7jhT/fg3r//+L0aRAZGx5c/8UE0tnRh5Vtb0/o7MUHEseZOHGseXvTP5bChqMAFj9uBQo8TxYVuOO1WWC0WOBwWWE1mWCwmOOxWWMz8ewSHYRg4bPHr3wiSBOF98R0xQYL4PpdsKBwFpRSCKL2n8RMIDalKC6IAUZKhqhShyFC8Vywq4ttfvgqlJZ6sPLe7HnklZbKywMIbZCWLqOdZ7BS07ecsMBvA66MSFkrJLGg81E5MMthWMDKD8g6LzTwKWQaDGiLGX35tnS6EBQBY3gRZyW0xtm9/5Sqs37IXSpwx23+kFf+691n86BsfNyZYomSVEPzf9z+P9q6+rKYtB0KRIYJwfGyM25zpE7JGVo40teOhp99I6bscgC8bWXVZJiwcdmoUvqQKnTMcYTndxUcwU2uHkxWMM8Ti8g8MIbjEqi2z4rXVmyBK+pAMhs/9LI+66jJcdsHiEa95/IU1WLNxlzHBkoDZxOPvv/oGqitKjMFIENd89vKs/K6sKPj13x9IWTzySrsVlUZAdHbXMT0swAymD//xaXwFUzSdZAlBQ5L+2pjhDspLXGI3Q8vUDQRDWLdxuy59IYQFw+Z+HMF1X74SDnt8FwClFL+9+UF0dvcbEywJFBd58J8/fhdlxQXGYIyC+bMnY9FZU7Ly2/994jUcaWpP6bsFDIOPOq3GA8wy6vWJ15o6KmGpq6srp0Chll+p4VhYkgiUlCiFaniE8hKFDIPlVm2+5JdW6le9mOFy38pSXODC1z996YjXBMNR3PDHe0+LUzAwMirLinDHn76HkkK3MRhxYDbz+Pm3P5OV325q7cR9j69I+fufdVphMzRXso4qloFJ63OgdCqGSQo6hbCwlGoOGJhgWFcMnLKI2DQVHVu/aQf8gZBOhGVsBOJ96iMXYHxt5YjX7DvSgr/e8YQxwZLEuKpS3P7H76KitNAYjGHwo2s+gdqq0oz/rqIo+M3ND6ZMwqs5FhcY9YJyAgwhqNbsFiKO8ePH14xIWABGM2EZzycbcGsQlnxGKcviUg3S2KIkYeXqDbr0hbAcGCb33UIcy+I3P/jCqOq2z776Np5fucGYZMmuUeMq8MC/fooZk+uMwTgJH/ngMlz9oeVZ+e0Hnn4d+4+0pvz9zzitSel+GUgvqnWIYyGqOm1EwkLj+I2SQTL+KwpAMPxBeY9POWwoYFKXcHrqhTd06wtjGhsS69Mn1eIrn/zgqNf9+fbHse9IizHJkkSRx4W7/vwDXHLOPGMwAFy4fC5+fn12XEGNLZ24+5FXU/5+A89iicWwruQdYRmGjzCnXkA1E5a6JAiLSCkoDMKS77AzBF/TkGp46Egz9h08pktfWN4KYGycxL7+mQ9h2qRxI79Dkowf/fYO9A/4jImWJMxmHn/42Vfxo298POEKz/mIqz+0HH/82VezUq9KURT85h8PaIrHutphg2FbyS3U6EBY6DAhKu+foZM0nV4B1HKJExaBGunMZwqWWU1YYEl9U3jy+df16QghYPixEcvCsix+8/0vjqqS2jfoxw1/vg+KYrxPyU8Hgk9/5AI8cuvPsXDOlDPq3l0OG373ky/jF9/+bNaKa973xGs4cKQt5e+XsAwWn8FkM58JC0AmnrYmvvsfdXV1Fgb4o5bjZxXH4XMuR8LX+xUFimFhOWMww8TjjYiAVJRVmls78KmrPwizDgqWhDBQpdiYGLNCjxM8x2HzzkMjXtfVO4jeAT/OXTzLmGgpoMDtwOUXLcbkCTXo6OpD34A/b++1rLgAn73qIvzhhq9ixqS6rPXjSHM7/u+v/4WqISzg4w4bphmEJedgZxg8G4pCW4Qq5bx+/z+GJSzFLtckEHK9luZnmU34oD2xPHgKwK8YaZlnEqwMgZUQbE9BBVFWFJSVFGPmtInaCQtzgrCMEYXlmVPqsftAEzpG0V453HgcbpfDCCbVgLqaclx16XIsmD0ZvmAIHV39uhRPzDYqy4rwwfMX4ntfvRo//MbHsWD2JJhN2dvoZUXBd371b03EkAPwgwIHzEawbc6BAbAuJiKgKUaVONwFnr/4fD755Gf+LneZAI3Wjho+cTNQTFUN28oZiA/aLXg7JuCAmDxZfeqF1/CZj12qQy8IGN4CRYiMiTFjWQZ/+NlX8dnr/4Cefu+I195811OorSrFknnTjMmmAXNnTsTcmRPh84exauMOvL52O3buOxq3bEJObRYMQV11OaZPrsPMqfU4a3oDxudYpe97H3s1ZYG4dzHbbIKTMeox5yoqOAbtsiY3NcNTWg/g4GmERWXoBKKRQVSzycSvGOnMZyrzvtZtx/f7/Eh2Kh9tOo6dew7hrFnaYw1Y3gpFiAJjhDYXuB34yy+vwdd//PcRAxQVRcXP/ngP7v/HT1BfU25MOI3wuO346KVn46OXno1wJIYd+45ix96hf440tWddvM9s4lFdWYJxlaWYPKEGM6fUY8bkuhHVkrON/Udace/jK7WTSsMVlNMoZ1kA2kqrKMD4YQkLoXSC1uyJZFKZDMG4MxfjOA6X2a14MRxN+ruPPbtSF8JCGBYMx0OVxTEzbjMm1+EH3/g4/nTbYyNeFwpH8b1f344H/vFTeNxGITi9YLdZcPbCmTh74cwT5FBBW2cfjjV3oLG1E509A+jsGUBPvw99/V5I2k6X4DkWbqcdLqcdbpcdhR4nxlWWoqayBNUVJaipKEVJsRtkDLlEBEHCr/92vy6Wqkk8Z0zKnCcsGtdpSiac/P8nPfFT/5AKqhKcQAooZKNC8xmNTzmtWB8V4FWTW7heW7MB3//m51BRVqy5DwxvHVOEBQA+ftk52HuoCa+8uXnE69q7+vDD3/0Ht//+u2d0ym46wbIs6mvKUV9Tjotxup5LOBKDPxhG8ESlZkVREYpD0gkBnA7bewTF47TDmofKrbfe/zyaj3fr0lYxZ7iDcpqw6PF8GMQjLKjT1i4SrpIpGmTljIeNEHzOZcOtvuRk9xVZxcNPvYIfX/9F7RsOb4IicKDq2Ar+/sX1n0VjSxcOHRs5HXTX/kb8/M/34i+/uCZraatnMuw2C+w2C1BWZAwGgK27D+OJF9fo1p6xjeQ4YdGnanbd+3nGu6jW0moZyyZc8Eg01G0NADjfYkJ5Cvn6z774ZtyTanIgYExjr7qr2czjn7/+JkqLPaNe+9am3fjL7UbNIQPZRSgcxW/+/qCmFOb3o1k2skxzGaUsq71cAkXNaYSloaHBBcCpiU0lsfEYAbcGgKEiWR9Loc5QMBzBcy+/qUsfWN4ypmIA3kVJsQf//M23EnIbPP3qOtzz2ApjwhnIGv56x5Po7hvUtc3XwoIxsDkMngAFjOa1tfo0wkIFOk5rq4kSFgpAMgiLgRM432ZBaQruioeefAWKrF3ZlZCxaWUBgMkTavDHnyQmqX7HQy/hhdc3GhPOQMaxZuMuvPzmO7q3u0UQsVuQjAHOYRRpTzsvrq6utp5CWMAq1VpbLUvQXyVRQ3/FwP/AAviALXkrS2d3H95Yq88iyPF2kDFajeTsxTPxva9ePfpBgVL8/pZHsOrtHcakM5AxdPcN4qZbHk5b+7f5QwiqxgE4V6FDYDQxw1x1KmFRSU2mCItgREoZeB/Os5qRyrS+/7EX9ekAQ8ZMFefh8JmrLsTHLz931OsURcUv/nwf1m3ea0w6A2mHKMn46e/vhs8fTttv9Ckq/uELQzX2lZxEEaND4C0r15xCWAhDNVtYShN0CUkGGzbw/knNMklV+X4X+w4ew/p39LEYsKaxrVfyk29+Ehcunzv6+ycr+MlNd2L9FoO0GEgvbr7zKew73JL239khiLgzEDEGPAdRwupguabMqYSFUlqhvWMJWlhgEBYDp2NminVNbr/3SV1+nzAM2DFsZWEYgt/96EuYM310OSVJVvCzP9yD7XuOGBPPQFrwyqrNeOqVdRn7vdciMTwbihoDn2Mo1sHCQhlaeQphASWlWhtNxCWkgEIxLHcGhkFNir7OvQeO6mxlGbuF1MxmHjf/+psJ1Y2JCSK++5vbsWt/ozH5DOiKnfuO4aZ/PZzx330wGElJPdtA+lCkh/4TRemphIWgTNNCTwg8CaQvGforBuKhQMPE1s/Kwo5pKwsAuJ123HrT9ShJQKMlGhVw/a9uxbbdh40JaEAXNB/vxg9vvCNrNZbuC0TwYjhmPIicWde1HwAZkFMJC4U2wuIhBGwCWhaG/oqBESZlyt/V08rCme1jUpflZJSXFOK2G78Nl8OWEGn5zv/9G+vfMWJaDGhDvzeA7/zqNviD4az247+BMF4ySEtuHKD0qKZN6PssLIAml1BhgqdjQ5LfQDwMKNo0VfSysoAwY1aX5WQ01Ffin7/9FiyW0YXlBFHCj266Eyvf2mpMRAMpYdAfxPW/uAWdPQNZ7wsFcF8gbLiHcgBmQmBhND/Q/xGWyspKGwE0pUgkQlgMwTgDI6FR0kZY9h44inWbdIxlYciYH9PZ0ybg77/6BkwJZGDJioJf/fW/ePbVt43JaCAp9A/4cM2Pb8bR5o6c6dMQaYngoWDE0P3KMtyE1fos3/MAMU6eL9PaoYIEAm5lSo2JY2BYKAA2xLTLbP/j9gd1KVtPCAFncuTF2C6eOxW//+lXElLDVVWKP9z2KO5/8nVjUhpICN19g/jaT27WrQKz3ngmFMXt/pCh05JNwqL98FeCE94g1u0qmkgI/bqW1hZYzVhqGTlYMUZVxAwLi4Fh8FQwiu06SGwPegMoKynC9CkTNLfFsDyoFAPNg4WuflwFyksKsfadPQldv2XXIfQN+rB0/nQwjFHl2cDwONx4HNf9/NaccAONhCZJQausYKHFlFCspQF9sVWQ0KGtjApjdzpuCQQCUYYS6tHaoYIEFjXJYLgGhsEbEQGPh/QTfbrtnscQjugTcMdanHkzzldcvAQ/uOZjCV//3IoN+M6vbkPQiAMwMAxeXb0FX/7hX3UvaJguvBMTceNgEGEjUzXjcOlw6LExjAcA2GJ3wXwQfFxLYxfarJhmMo14TZAqUAzSYuAEVErxUCiKB4P6KlRGowIIIVg8f6bmtgjDgioyqKrkxZjPnFIPQoDte44mdH1Hdz9Wv70TS+dPh9tlNyatASiKgn8/8AL+cfczurhfM4leRcU7MQFnWUxwGpbDjOGAKOGQ1jR3ggcH/f4uhgIerR1ykEQsLIY7yMAQ/CrFb7zBtClTPvTES+js7tOlLd7qHLOFEYfDNZ+9HJ/5yAUJX9/W2Yuv/vBv2HOwyZi4Zziaj3fjKz/8W1pinFiTBQUTz0K6hRs7FRU39PtxWJSNB5oh2HQgh+/yFLbQ7bkQBBdraexKhw3jRshEkClFME9OqQa0YWNUxO+8AbTJ6ZsPsqJg0OvHxect1t4YIQAhUGUxb57BknnT0Dvgw6FjxxO6PiqIePnNd8BzfELS/wbyC5RSPLdiA358051piVchhKBi8QfhmTATJnchIl0toGk84AoUWBsTUMayKdUwM5AcWiVFc4wiBV70+v0H2UJPwYcAnK2lsU847SgbofihQCmihoXljEZApfiXP4THQ1EIGfAMHms+joVzp6OyXHPVCTAMD1URgTyZw4QQLF8wAy3tPWhq7Up409qy6xBa23uwZN508MZCf0agraMXP7zxDjz18lrISnoOGcUzlsJdNwUAYHYVwlZWi1B3C6gspe2+VACbYyJYAkxPsY6ZgcTQqah4J6b5wPe61+/fyRZ4Cq4mwEItLX3OZR8xtTmiKoZo3BkKFcCbEQF/9AbRmGG57l17D+PqKy4Cx2kswEUAwvJQpfxRz2QYgvOXzkZrew8aEyQtANDY2om3Nu7C/FmTUOBxGhM8T6EoCh5+dhVu+NO9aO/qT9vvFE6eh6JpC075jLPa4apuQLS/C3Isvaq5e0UZvYqKeRYTjKiW9KBPUbFeo2wFA6wb9Ps3sQUe96cJyCwtjX3F7YR9BD9ViCqQDcJyxqFZVvAXbwgrIrGsEFZfIAhVUbF4wSzNbRFmqHiAqkh583wYhsH5S+egs2cgKdEvXyCEF1/fhKICF6Y0jDMmep7h0LE2/PB3d+DlN99Jm1VliKzMRfGMJcPPTd4EV80kCP5+SCF/2tepvaKMhRYTzEbas+7wqxSrotoICyFk86DP9xZb6Cn4HICpWhr7hscFfoQH7VMUQzTuDEJQVfFAMILb/SH0ZTmTYPeBIzh/2QIUFxVo3+BZ01AsSx65NxmG4JxFs9DR3Z8UaVEUFes270F7Zx/mz54Ms2FWH/vvbTiKf9z1NH5/66Po7U8fSSCEoGTmUhRNXTDKIYGFq6YBYjgA0Z9erZd+RcUWQcRcswlOxiAteiJMKVZqlpqgW71+/xtsocfzZQANWpq61u0EE4ewKDACbs8UyABeDkfxF18I+0U5J0gqVSn2HjqGj152oXYRNAIQjocq5ldhNYYhOHfxbHT1DuJIU3tS3z3a0oFXVm9BXXUZaqvKjJdgDEJVKV5ZtRk//t2d2LrnCNJpDCUcj4pFl8BdNy1RdgNn1XioioTYQHrVdIMqxfqYgMkmHiWs4SDSC1EVeEUjYaFgdnr9vlfZArfnGkJQm2pDJkLwdXd8X7aoUkSMgNu8xxZBxB8HA1gXEyHmmDmtf8ALq9WMubOmam6LEAYgDGgeZQ29S1rOWzIboXAUew81J/XdSDSGlW9tRU+fF/NnT06odpGB3MDuA4346e/vwpMvr0UkKqT1t3ibE9XLr4CtpDrpk4K9bBwYjkektz2tfRQosD4mopxjUMsZ81gPSJTiBY3Vsxlg/6Df9wJbWOD5FoCqVBuyMQy+5Ipfd8WQ5M9vNEsybvaF8EwoimAOxylt33UASxfORllpkfbNneUBNX8E5f5HxgiWzp8OE89h6+4jSX//cONxrFizFQ11VaiuKDZejhxGT78Xf7z1Mdx89zPoHfCl/fdspTWoXv5h8A53ym1YiyrAmi0Id7elta8KhpRxOUIwzXB16jKez2pXzD7s9fueYQvdnu8CSDn308Uw+NwIhCWsqoYsfx7Cq6q4NxDBnf4wesaA4qWqqnh78y5c8YFzYLVatJMWzgRVjgF5OLfPmtGA0iIPNmzbl3QtpVAkildXb0FbRy9mTq6H3WYxXpYcQiAUwd2Pvopf/eW/ONR4PAO/SFA4ZT7K5p0PhtO++VsKy8BZbIj0tKa953tECf0qNTKIdMBTWkVCCZq8Pt/jbKHH80MAKUckFrIsPuWML9sdMiT58woipXg2HMVffUEcyZE4lUQRDkdx4HATLr/kHDBaA+sIAWG5IdKSh5jSMA4NdVVY+86elCTYj7V04JmVb4NlGEyfXAfWkELPKmIxAQ8+8wZ+9od7sHnnobRm/7xH6nkTKhZ/AJ7xM0B0zL6xFJSCtzkR7moF0rwCNUkyDksyFllMIyaWGIgPlhA8GYpqelKEoG3Q53uILfR4fgYgZUGFEo7Bxx3xCYvfyBDKC1AA66NDeirvxCTIY/ShdnT1ordvEOctn695ESUMC5JnKrgno76mHIvmTsWGLftSim+QZQWbdx7Cm+u3Y1xVKWoqS4wXKcOQZAVPvbwOP7npbqx9Zw/EDGkhmVyFqD7nSliLKtLSvtlTDN7uQqi7Od2cBT2Kiq0xCfMsJtiNDKKU8Gw4Bm0UmXR7/b772EKP+2cAsaXaTAXL4qo4hIUCCKhGzYaxjsOijL94g3g5EkMkD6xlB480w+sL4OwlczWTFoblAaqAKvk5z0uLPfjAufOxY/9R9A2klurqC4Tx6uotONLUjknjq1HgdhgvVbotKoKIp15eixv+eC9eX7cN0ZiQsd92Vjegeull4CzpLZhpdhfD7CxEsLMp7ZYWv6piQ0zEWSYT3EYGUdJ4MaxRi4ugx+vz3c0Wegp+DiBlR3MZy+EjjuH5jkQpwkZK85jFgKLijkAY9wXCGFDzK3B638FjCEdiWLZojua2GM6cd/osJ8Nus+CyCxajvasPja2dKbfT0t6DZ15dj+NdfZhYXwWX06gArTcCoQgeeuZN3PCne7B6wy6EI5lzWRJC4KibivK55+kSr5IITK5CmN1FCHU2pT2eLEqH0p6nmjiUsKwx2ZLAC2HNJVl6vH7fXWyhx/MLAOZUWynnWFwZh7AIoIiqRobQWINEgefCUfzVF0KTlL8Wst37DqOjqxfnLJ2nOcaC4cxQpFjaT3rZAsexuGDZWeA4Fjv2HU06GPddUEpxtKkDT7+8Dj39g5g0vhoOu9V46TSit8+Hex5/Fb/8y33YtP0AYkKGFZkJA1vdNPAFZYgF/WDNFnC8KTOkxVkAi6cEoY70kxaRAm/HRNRxHKo4g7QkipfCMUQ1PBsC9A76fXewhR7PLwGkTIcreRYftg9PWCKqCtFIaR5T2BqT8HtfEBtjIrJtGzO7C1E0bSGKpi2EKokQA4O6/8bhYy3Ytms/zl+2ABaLOfUXihCw72YO5SkIIZg7YyLmzZyELTsPaTq9q5Ti0LHjePrldRj0BTF5fDVsRkZR0tix9yj+cc8z+MNtj2LX/kZIchbeWoaFY8JM8O7i90ipEAqAqipMNvvQdpN20uKBxVOcEdKiANggCPAwDBoMzaGE8GJEG2EBaL/X7/8PmVBbF9NiYZlnNuPOsuG1LQYUGVHDJTQm0CEruDcQxg4hu7VyCMPAUdUAz/gZsBafGrA3eHg7+vdtTosVo6aqHH+78QeYPmWCpnZUWYAU9SPfI839wTB+f8ujWPX2Dl3a4zkWl5w3H5+58gKjPtEoiAkiXl21BU++/FZS5RTSxGJhr58BzlUENRqCHPJCiYZBZQmqIoM1m2F1FcNWVg1bSQ1Yc3pJabirBZ3vrMyYRtJVDgs+77Qbac+j4JpeL3q1yV8cbGxtmUYm1NZKAEmZJi60mHF7HDGublmCbFhYchpRSvFkKIKXQjFk0/nDWR3wjJ8OV/00cOb4MeD+loPo2bkGUPVnBBzL4htf+jiu+cLVYDWYexUxCjkWPCPmz3MrNuBvdz6JmKBfptRZMxrwmY9cgHMXzwZrBDi+h90HGvHKm5vx+rptCGoX4tIF5qJKgOMhDXSNni1HGLjHTUbBlLkwOTxp61OoqxVd77wKmqFwhKUWM77nscNkpD3HxbV9PnRrsf5RHG1sa5lEJtTWqdBgs1tsMeO2YQgLBdApiaBGUnNOggJ4KyLgoWAEg1mMMzJ7SlAwaQ5c1Q0ASWxzCnU2ofOd19IW5DpzagN+94vr0FCf+klfEcKQhfAZMZdaO3rxp9sew5Zdh3Rtt7K8GJ+64lxc+YFlZ2ycS1fvIF5ZtRmvvPkO2jp7c6+DhCTtgiEMg6Jpi1Awac5QqYu0WVpWZIy0TOI5/KLQBbeR9jwsvtXrQ6c27Z+mxtaWCZoJyxKLGbcOQ1hkUHRLovGkchCNkoy7AmEcFrNlUyGwV9SiYOIc2EpSqwoROH4EPVvfTDn4czSwHIOPf/gSXP/VT8HjSU2mSBbCUM4Q0gIAb6zbjpvvfhq9/T5d27WYTbhg6RxcdtFiLJg9Oe+tLj39XqzZuBur3t6BXfuPQVXz89BnKxuHqsUfBElTRlG4sxmdm1dmjLSUsiz+r9CJaiMY9zRc3+dDuwYLCwWam1pbxpMJtXUygJRHeJHFhH+Xnl43JKaq6Fck40nlEAIqxcPBMN6MCMiGTYUwDJzjpqBw0hyYnAWa2/M170PvjnVIZ8CI02HHN774MXzyqktSkvSXYyEoYuSMmWPRqIC7H3sVjzy7Ki1qqiXFHnzo/IW4/MJFGF9bmTfj1ny8G29t3IXVG3fi4NHjaSPiuQZLYTmql18BJk0ZRaGuZnS9kznS4mAIflbgxAyjBtEp0NMlJABIebbMt5hxxzAWlrCqwKsYonG5AJVSvBIR8HgognAWTmuEZeGum4bCyXPBWfUVDRs8vAP9+zal/R7cbic++7FL8ZmrP5S0xUWJBSGL0TE9hwRRQjgaQyQSQyQmwG6xwGazwGrmh82uamnvwd2PvILX121Lm4Vg6sRaXHbhIlywbA7KigvG1Hj6AyFs23MEW3cfwZadB9Ha0YszFbaycaheehmQpvINoc4mdG1+LWOkhQNwnduB821mGBiC1qBbAhw61toylUyorYsASNlBfJbZhLvLTrew+BUFQUPlNuvYLUi4JxDG8SykOxKOh6d+BgomzU6r6mXfno3wHt2ZkXuyWi248oPn4qrLL0wqo2gsxLQoioJDje3Yc6ARBxvb0Nbei46ufgRCkVGtJR63HeUlRagsK0JleTEqSwtRV1MOs4nHcyvfxutrt6VVFn58bSWWzp+OpfOm4awZDTDlWLppvzeAg4dbsXXvEWzddQjHWjry1tWTCgomzkbJrOVpaz/T2UMEwOdcNnzU0BgCAHytx4t+bYRxf2NrywwyobY2CJCUj72zzSbcOwxhGVQkRAzRuKyhR1Hw30AE78QyH0fEcDw8DbNQ0DAn7WmMwJDuQ9eW1xBqb8zofU6eUIuPXH4hLrt4OQoL3AmQlghkIZRzc2XH3qN4edVmvLVpN/wB/ftXVVGM0iIPDjceT6kmUbKwWMxYMGsSZkypx+T6ajSMr0JFaWHGxrO3z4fDjcdxsLEVB4614eDR4+gf8BmL0mjzZPmHYS+rSVv7kZ42dG5aATWDlv8r7FZ8xWXDmR6K+5Uer6bkDgLsPtbaModMqK3zAXCn2tAMkwn3l59OWHplyRCNywIESvF0KIYXwlFttRtSmVQsC8/4mSicMg+sKbMiYFRR0P72C4j2d2V8zFmWwZwZU3DRuQtxwTmLUFVRGp+0SDHI0UBOzJWN2/fjjgdfwv4jrXn/XjjtVkwcX41J9VWoKi+Gx+NESaEbRR4nCj1ueNyjWwAlWUEwHEEwFEUwFMGgL4iO7n50dPejvbsPHV0D6Ozu1zXF+0wCa7ai7gOfA5tGhdxIXwc6Nr4CKmcuvvI8qxnf9jhwJofifrFnEH5tFsUdja0t80hDbd0ABVI+fkwz8Xiw/PQqrJ2yCJUaJs+MbdgYqqb8QDCCASXDRJEwcNdNRdHU+brHqCQDVYyhbc0zEEPZPc1OHF+DRfNmYuHcmZh/1jS4nKeOiSoLkCOBrKX8+4Nh/PG2x/DGuu3Gi3MCPMfCelIsjsViAn/CrSRKMoKhKGIZLCB4psJWOQHl884Dl8YDT7S/Cx0bX4aawSzW+WYTflLgOGO1Wj7f40VQi8eFYGtjS8tCMqG2rgtAecqLM8/hsfedKCmADsl4uTOFJknGPYEwDmQ4TZkQAue4SSiaugC83Z0TYyGHA2hb8wxkITcyc1iWQcP4WsyZPgkzpjVgxtSJGF9bBQYKpKg/Y4GA7+J4Zx+++3+3ndFBngZyF4Rh4Jq+FK7yGlhd6XPjCf5+dKx/KaPrxFlmHjcUOM9I0vLp7kGN0vzY1NjaspRMqK1rBlCXaivjOBbPVpad8pkEih5DgyXtyGaasq20BiWzlsHsLsq5cYkN9qB93fMZ9VUnNXY2C8bXVqO+thK1FUUYV1mMuupy1FSVpjVYtN8bwBe/+2d09w0aL4+BnIWppBq26omwON1wFlekTVxODPrR8fYLkCKZU6WebzbhZ4VOnGkViK7uHtAoTk5WNbY2X8QB0EQxo8N0wnAFpRfZTFM2u4tRMmspbKU1OTs+lsIylM2/EF2bX0cuFvWJRGLYd/AY9h08dsrnLMugorQI9TXlqK0pR3lJAcqKPSgudKO8uBCFhU5wKZa1V1WKn9x0l0FWDOQ8pIEu0PI6xIJ+SLEo3GXVaXERmZxu1Jx3NdrffikthVWHwzZBxF+9QfykwHnGxLTI0F5JhRIaAQAOIFEti/pwgZ2yQVjShgOijDsDIbRKmU1T5mx2FE9bDOe4ySBjwKTprG6AFPKhf//mMfNsFUVFe1cf2rv6sH7L3tPPGISgyONEcZEHpUVulBR6UFTohsdlh9tlh8flQIHbMfTfTvsp+igvr9qE3QcajRfIQM6DqgqEvg5YKuqgSCIGO5rhLCpLi4uIszow7tyr0LHp1YwF7G+Oifi7L4gfeZxnRNFEQYdDNQGiQ4SF0IiWQ+hwfinZqB+kO7yqigcCEayNChkdXcLxKJw8FwUT54Bhx5Yhs3DKfIghPwKth/JiDlBK0e8NoN8bwKFjCZwgeQ4ulwMelw1dPYZlxUB6YCMEZkJgIgSDigI98m/EgU5Yymvfq1UU7O+GGI3AWVIBhtHXNsGYLKg++yPo2bkWgZYDGRmzjVERDzARfNlly3/CoseOpeKEhUVFREuSuEQpVOAUpqgYfEU3qJTi1YiAR4MRRDJquSJw1kxEyYyl4Gz2MTt+ZXPPhxQOINrfmZb2GYaBmqN6Q6Iko3/AZ2iA5DnMhKDMYoLHbMI+fyitLnk3y2C5xYyZZhOmmUyYaOLBn7KvAK2ShK0xEa9EItgvpEZfVEmAHPKCc/7PqiKEA5CFKFxlVeDN+m70hGFQPu98mF2F6Nu7MW2FVU/GC+EoqjgWl+S5Iq6og4WFEnKCsBBo0gynAERVheUkWWUjhkUfHJFk/McXQnOGVWrNnhKUzj4b1uKKMT+GhGFQueRSHE9DuvO06dPx7//cjn/+4x948fkXzpj6LwayAwZAtdWMaeXFmFhbifGTajFlzmSU1lfjyLZ9+MUf703L2mtlCD5gs+IimxULzCawI7iEGQD1PI96nscnnHa8HY3hpkE/+lOoKyUO9pxCWABAkSV4O1rhKCyBzVME6CzJVjBxNiyFpeja/DrkaPpFHu8JhNHAsxjP528YrqjPlIwBAGmorX+Ygn5WS0srq8pQfFIwYLcsQTZE41JGhFI8HIhgZSSW0ewf1mxB8bTFcNVPGxNxKkm9NEE/2t56GqoY063Nx596CvMXzAcAHDx4EHffcSdWvPoqJMko+mlAOwo5DlOK3JhWV4lZsyZh9rnz4SjynHpgVFU89I+H8Z9V7+guFFnJsfi4w4GPOKxwaqjz068o+EpPPzqTPHgRloN75jIgTpaQye6Eu6QShNE/fFURouja8gYivcfT/pwrOAb/LPbAnKfpzodFGT8d8Gu1sdzU2Nr6K9JQW3c7Bb6ppamnK0pRdxJD7JREqEYcS0rYGBNwTyCCwYyKvxG466agZOZSMBlWqM0kov2daF//oi71RDwFBdi6Y/tpxM7n9eLll17Caytfw7atWw3yYiDBNxCotpgwq6IEZ01vwLxz5mLczEkjfqevvRv/9/NbsKXPq2tfqjgO17id+KDNMqI1JRkcE2V8oacvaVJlnzALvCu+dALD8XCnwUUEAJSqGDiwFYOHtiPd2YYftlvwFZc9L+f2dkHE7wa1po6THze2Nv+NUyl8Wudk6CRrCgU1yEoqpxBVxZ3+ELbGMrvBmZwFKJt7HqzFlXk/xtbiSpTNPR/d21ZpXoBMJtOwVihPQQE+94Uv4HNf+AIi4Qh27NiO/fv2Y9++vTiwfz/aWtvGjOvIQggWWs2YyvMoZRlQEERVijZFxhFRwiFRgmC4wVICTwgmOm2YPq4C88+ainnnL0BBRUnC31/33Cr85t5n4dfxYFPKMfiay4UPO2y664Q0mDh8yeXAXf7kNi7JPzAiYVFlCd7OFtg9JbAVlOjqICKEQfH0RbAWlqF725tQxPSJob4cEXCe1ZyXrqGwPllCPmCoErZWWw2CJ3XICLhNDiqAleEYHgyFEcugUYWwLAqnzEfhpLkgDHNGjDUFYC2thn3cZITbtGUO9fX2oqurCxUV8eN8bHYblp99Npafffb/3pVgEC3NLejoaEdXZyfa29vR3t6Ogf4BeL2DGOgfQCiU3QKJVobgqy4nPuG0wzbCaUYGcESUsE8QsVcUsSsmoktRcnoOcAA+v2AGOJ7Fyh0HcTxDxUFLeQ7TSgsxc2ItZs2fhhnL5sJkSb5mDlVV3PX7u3HPpt26xauYCMHnXXZ82ek4JRZRb3zB5cAzwTAGkghSVxKJO6NA2NsHMRaBu7RK92xGe0Udxl3wcXRuehWCPz3ZdiqleDgYxf8VOvOPsOgxT+kJwkIY+LQaRE6uEWBYVxJHl6ziVn8w45L6ttJqlJ11HniH+4wYZ0ophJAfEV8/ZEkEX1QBUzgAcaBTU5t3/ucO/ObG3yb1PafTiZmzZmLmrJnxiYAsw+v1wjvohc/nhdfrxcDAAHwnPhsYGEBvby8GBgYw0N+PwUH9FtE6nsM/iotQw48eF8BhqJbYNBOPT2DInN0mKdgixPBOVMA2QUBIza314MNT6nH9jdcBAK4FsGv1Fqxb/Q62HzuOw4EwJI2LKwegwmLG+CIXGqrLMXlyPWYsmYWyuirNfY/4grjhh3/B2539uo3HuVYLfljgQiWX/pO9hRB8xuXArb7Ei38qsTCoLIFw/OjWmGgYg+1NcJVWwqRzTTPe7kbNeR9D95bXEOpKT7HQHYKIo6KMiab8srLoYWFRQXwAQCbU1X0SFI9raeyGQjc+6hhasKKqigHF8NuPZlV5ORzDI8FIRk3qrNmKklnL4Bo3+cwYZ0VGNOBFNDAI9f0nf6oi1LQXsgaFS0IIHnjoQSxdvjyr9ylJEtrb29Ha0oK21ja0trbgnU2bcPjQ4aTaKWNZPFhegiJWn1O2Qin2iRLWRWNYE4miTc4N68vy8mL89s/fg6f0VFdDLBzFoa37cbyxDcePd6OzbxDhmIhQTERMUUBAYWJZEBA4rWYUOKwocA0J+VWOK0fd5HpUTqoFx+kfBNq4+wh+9Nvb0RbVxy1RzLL4SYELF9isGR17r6ri0vZuJHNEs9fPAO8pSebNhL2gGPaCYuidRUQpRf++TfAe2ZmW8fmgzYJr3fkVy/JgMIJnQ1Ft464yC5qON20jE+rqPgiKFVoau97jwpdcQ4w2pCrw5WgNl1xAp6LgVl8YB8VMkjoCd/1UFM9YCtZkzvsxloUYokEvYkE/6AjZalRVEG7aCzmYetBiQUEBbrn1FsyZOxdWW+6IQD3y8MP49S9/lfD1JkJwV1kxZpj4tPWpSZLwVjSGtyIxHBSlrNpiS3gOv/3mJ7Ho0uU5P59XPbESv33wRb1iAXClw4bvelyaMn+04Ht9g3g7mni2nrm0GtaqiUn/jslqg6u0Oi2Cl4OHd6J/3yboHYzrZBg8UFaQVwq4t/tDeD2ijWhThZnU1N50lC3yeIoBfE1LYxN5Hkus5hMWFgrRSGke1qryUjiKv3hD6Mmgn9/kKkTl4kvhmTBzzCnVJm1pECII9XcjNNgLWYiOupgQwoD3lEKNhaGmWLU1Foth1apVmNQwATzPQ1VV8BwPhs1upZB9e/dizerVCV//VbcTl9rTe9ouYFmcZTbjKocdl9mtKGBY9KsKfFkQ3ouoKlZs2Yfw/mM4a9FscGkkaqmfKlXc+bs78NeX1+miZTGOY/GXkkJ8yunIagotIcDqSBLyAqoKc3HyLjVFlhAL+cGbLWB5k673YC2uAGuxItLTpmu7IqU422qGK4/iCldFBbRrtK4yZvZ3g4ODEbbAUWQBQ7+jpbFqnn3PtBilqmY/cL6hX1Xx58EgVkYEZIqqEIZB0dSFqFx4MXi7K2/H9t34lEBfByK+AShJVgknhMBUUAbGZBmytKQwdwVBwJurVqOwoACVFeXw+7yIRiIAKPg42UTpxuuvvY5tW7cmdK2HZfCH4sKMlr13MQzmWkz4hNOOc6wWWAmDLkXJqJozBbCnux+vPL8KpYKECXOm5My8joYi+Nn1f8CzB5o0n+FZAnzR5cAfigtRw2X/0FLNcXgsFIac4I1RRYKlpAZIYROnVEUsFABVVZhsdujpIrIUlIKz2BHuatF1fKaZeYzj8qc04ssRAf3astmUxuamXwCgbFFpkQxVvUFLa8Usiw/ZbSdOLopRS+gkrI8JuGkwqJlhJgOzuxhVyy+Hs7ph6DiTh1BVBVH/IAJ9HYiF/KfHqCS7qNucMBWWDVlbUhCXU2QZGzduRG9PD+bMmQNCCCLhMPxeH0RRACEAz2eOvNx3zz1oaUlsIf2q24GFluy5CotZFkusZnzaacc0kwkRStGhKBlbRcKqijf3H8OeNzZixqRxp8W2ZBrth1tw7bf/gJ2axbZOBFGXFOFyuw1cFtYCFfTEcyTvUQWOEBwWJTRLiYcO8J4SMHzqc1QSohCjYZisDl1rEVkKSkBVGdGBbv0Ii4nHpDwKvH0mHNEafN/v9fv+gnfp5oTaugiAlO3Bk3gej57QEOhTJAiq4RIKqxR3BsJYFxUy96OEQdHUeSiaMj+uOuRYhyKJ7wXSpkvPROjvQLSzEUiRBBUWFeHaa6/Bueeee5o1x2qzw+F0wuF0gKTpGSmyjLmz5yAcDo96LQPg5cpylHK5NV/6FAUvhqJ4IRxBp5y5mDiGAOfXlOMrX74aUxbPzPh9b3rpLfzizqc066swAD7jcuCbbmfa3D8KpZAohYyhfyugUCiFgiHLJ40zvhwYrIzEcIsvcU0We+008IVl2p8vy8JVUgWTTb8sIkopujatQKirWZf2PuW04lOO/CmK+JnuQY2WU7qvsbV1JgCwAFDo8XwdgCflfZIQfO5E0G1QVXCm05W9ooTfDgZwMIPpymZ3EaqXXQ5nzaS8tKq8G58SHOiBlGK8SaLgbC6YPKVQUrS2RKNRrF//Ng4e2I/6+noUFP6vHookiQiHQvD7fJBEEZQCHMfpqoWzd88ePPzQQwldO89ixieduZeVYD/hMvqk044pJh5eVU1a2j2lpRFAsz+E59Zuxa7XN8LNElROGAcmzTEF78ar/OH5NYhpDK6t4Vn8vaQIH3HoZ1VRQBFTVYSpioAylFgRVBVEqIrYiTAA+UQhXDrK+Cqg4AnwahJxLIzFBt5ZoAu5eNdFxFvtulg8CSFwVNQh2HEMqg7ictNMPGaacy+mKhWIlOJRjRlCANnn9fseBHBC0JCgFxS1qTbnVYfMtwRntg6LQCkeCkbwajiDNYAYgsJJ81A0dUHeCcBRSiFGggj7+iELsYz+NmO2wtEwB+JgN2KdjVCl5AXGtm/fiZ07v41zzz0HX/jCF1FZ9T+ROVVVEQwEEAwMaVKYLRbY7HbY7Q6YLdrKI7yz6Z2Erz3PmtulGBgMaYWca7XgmCjj8VAIK8LRtMsBUACb+7zY/J+nUHDXs1heW4FLLlqEhVecB07nOBB/nxc3/ORv2Nw9qHmsPua04ztupy4CcBIoIoqKKFUg6zzeVRyLAoaBN0FrvKrrIYUi4h+AFAvDVVYNltMekEs4HmVzz0f7uhcAIyTif3NbHx2m3nf/Y8jC4i64EsAkLS/3Jx12WBiCQI4rXaYLOwUJvxsMYqeQuXRNs7sQVUsvh2vc5LwqVkhVFbGgF/7edsSCPqhZTJNnrQ6YiioBVYGaQvVWSilaWlrw8ssvo72jA5VVlSgoOP2kqMgyYtEoAn4/QoEAREkEVVUwDJN0xtFtt/wLbW2JZS9cX+BCETs2AvwKWQbnWC242mmHiQCNkpwRHaMYpTjiDWDF9oN44snX8c6K9WjeeRChPi+cbgfs7tTdC3vXb8e1P/snDvvDmvpYx3P4a0khPuqwa7aqKBTwqTJ8igyRqmk5fBEATbKC1oStZgTmkipd+6AqMmJBP1jOBE4HuQfe7oLg69NcFX6RxYTJpvywsHQpKl6PaD1s0jVev3/FexYWAtqj9bXvVRW4WeaM45YdsoL7g+HM1gBiCAonzkXRtAVpqVSaLSiyiKjfi2jQC5pDcVCE5WCtngRTYQWix49AjgSSvzdFwepVq7Fm9RrMnz8fV119NebOnTMs0ZQkCZLPh4BvaOFjOQ5mswVWqxUWqxVmiyUuQRVFEdu3bU+oTy6GQQM/9hbGAobBN90ufNHlxNPBMB4NhtGfoYNSUFGwtd+Hrf0+YNsB4P4XYCYEJSYeRTYLSlw2FLkcYBgCu9UChmFhNvHgzRxCwSHTeCQWg6IoiAkSXjncqqnKMgfgi24Hvupy6pLlJVKKAVlCJkKep/BcwjF+qhAZyuDT+WBGVQWB3naIUTecxRWa48oKpy7QHMviziNLuU7vZc/J8x0UpFurGatXVjCey2+dj5PRLSt4MhTFWzEBmVQfN7kKUT7/QlgKSvNmLCUhimhgELFgALlsTmVtTjgmzYUw2IVYZxOonDxJpZRi69at2Lp1K6oqK3H5FZfhoksugcvpHIHIyYjIIUTCQxYeQgh4kwkmkwk8bwLLsWBZFizLYcuWLYhGE/MZTzVxY1qgykYIvuBy4JNOO14IRXBfIJQx4nIyBErRLohoF0TAG8jY784w8fhlYQEadMookUHRr0gZc+vXJVPoj1KosqgpU2gkxIJ+yKIAV2k1OA2aLZaCEpjdhZpqDuUTYRnQoTgnBbpOJSyEHica52iPopwR8Ss9ioIng1GsyTBRAQgKGmaheMYSEHbsW1UoADESQsTbB0mIjp2OEwJzUSVMBWUQulsg9LWnbA3q6OzEnXfejf/+9wEsWLAA559/HhYuWgiz2Twq6REFAaJw+ul09RtvJPz79Xx+mJ3NhOATTjs+7LDhyWAYDwRDulYxzjUUsyy+6XbgcrsNrI4WB58i61ZQMTHCwoIkcURRxfQRFmBIIdvb0QRncQUsGuqs2cvrtBEWNo8sLKr2AwSlzPFTCAtUph1E2wveI6tQ85ivdMkqng5F8FY0c+Jv7z0kix3l8y+ArWzc2CcqqopYyDck8iaP3ZpThGFhqZwAU3EVoh2NkHy9KbcliiI2bNiADRs2wGK1YNmSpTjnvPMwf/7cpAM8GxuPnXGE5b3T7QmLy0eddjwYCOKhQFiTuyXXUM6y+KTTgY87rLpXVZboUBZQJmEjBOUcgy45sd+lsgAgvdWMqaoi0NsBMRqCs7gypdhAi0eb9bskn1xCsvb3jzL0VMJCWXpcI19BbwaFnjKJdlnBU6EI1sekjJ4+3mPrlfUon3cBWJNlTI+jIkuIBryIBbxQ1fwJzGZMFtjrp0MOVyPafgxKRJtLIBaNYdXq1Vi1ejVcTieWLFuGBfPnYfbs2XC5R1csbmk9nvBvpaKmKVIVsRMprApVTyHv7w8xYE5IhRECkHffHULAnPQaETIkKMaCgCcE3Il/NL0zhOCbbhcus9nxV68Pm2LCmJ9nJkLwWEVJ2ur/xGh23sl6jkeXnGAcSwYPOLGgH3IsCldZNbgk117WknqJi2KGgYPJnwSKfh1IsD1sbz+FsJhFsV3itJ22evPMJdQqKXgiHME7UTErujIMy6F49jJ46meM6XF8Lz4l5M/rbD/O7oZz8jxIvj7EupqgxLSnYQaCQby2ciVeW7kSDMOgfvx4nHXWbJx11lmYOWPGsOnPXm/ihRxLEnQtUgBhVUFQVaCMRtrpMP9D38dq4l5/Yu4TwAQWZobATBjw5GSd1MQxjmdxa2kR3ghHcbMvgL4xnMEoUorXI1F81JEezRwhS5aoWo7FxkQvlsWM9k2WRHg7WuAoKoXVVZjw9wiTekxRvSl/kigAYED7O+fd37c/dAphOdTRMXBC7TZleb0uJT8E+XsVFY8GI1gXFbImgGf2lKBi4cUw6SCUlA28F5/iH4AUDeNMAu8pAecuhjjYDaGrGaqkz+leVVU0HjuGxmPH8PRTz4DjOIwfX48JDQ0YXz8eZeWlKCktHTauJS5hScDCQgH0yVJGC5qqFIhBQUw52cLAwEwYWAiBiWGSoi8X261YZrPgDl8AT4TCUMboQvV0MJw2wqJkyZ9fkYTCspphwjLEr1UE+7shCTE4i8sTyiKiGizItXmUuKJSqj3olqD9lIPhSf/dDg1aLJ2yAnkMV2kWKcWz4SieDcWy5vcmhMAzcQ6Kpy8ekyJwlKqIBf2I+JMvQphPIITAXFQBc2EZhP4OxLpbU8ooGvH0J8s4cuQojhw5mtL3LYTAnoDrZSDDZCX++6lCpCqCAIgCWBgWVoaBlSRGXmyE4AcFblzusOEPA37sE8fe/DwqydgZE3GWxaR729l6whVJJBBQKXsxb7GgD1IsAncCLqJU1LHfs7DkEWHpU1Xt8Z6UtA1LWAhBK6WpExaFAt2KCscYdL8dFmX8yxdEZxYzCzirA+XzL4SttHrsMWlFRjTgRcQ/qOl0kX/MhYG5pAamokoIPcch9B0HzaII3vs38NHwrux6zhFjAFFVQfTEXLMyDOwMC0sCp99JPI/7yovxXCiMf/uCCIyxumfPhiNpISzZQkUScVTZXlsUScRgRzOcRWUjuohkKXXCMjGPih4mGkw9yin4+LCEhapo0lp5u11SMGUM+eBUAM+EIngsFM1qhpOzagJK55435gJrZTGGiH8g5/VTss9bWFgq6mAuq4HQe3woFTrLGVKJFMQL5gi5Gg1RVUVUVcGDwM1yo2bQMAA+6rDjEpsVjwfDeCwY1p24EACzzCYstVgw3cSjnGdhJQTNooAOWcEuQcLaqJB0Ubi3olEI1K17QUOGICuuMgdD4GQYBBMYf5oL5JlSBPu7IUbDcJZUDlv5WQqlFnhfyjIozaOU5m49YsYIPTYsYQEhjVo3nU5FwRSMDcIiA7jFF8psNeX3LxIsh5LZZ8NdP23MTEIKQI6GEfEPQogEYSBJ4lJeB3NpDYS+dgi9x7NGXMyjZCLIJyrxjiVIJ4TPiggPawLWFifD4OtuJz7ndODNaBQvhSLYKYiaVkELQ/Axhx2fcNhROYz1QOY4VHMsFllM+LzLhseCEbwcjiX8m1GV4p2YgHN1rgHFEHJ6QHSmrCxsYoQFOTQfhXAQstAEV1kVePOpoZ9S0JtSmzNM+SUz0K1PsdKm4S0sUBuJRhNLJqqp6kVWbhoIYJeYvVOuyVWIykUfgCmJ6PPsHiwohNBQfIosCjCgkbiU1cJSUg2hvxNCT1vGAwpHO6EL6tiNRwsoMqxJFLSzMgRX2G24wm5Dv6JghyBie0zEPlFEhywjlID5lQFwtcOOa91OeEY4JZ/MC2yE4KsuO6bwPG72BRP29++IiboTFg4E2XqrC1kGSGQpzjH3pCJL8Ha0wlFYApunCDixf4qhFAmLOc8Iiw4hFirDNA5PWBimkWj0i4wVwnK7L5RVsuKum4qSOeeAYXPfX/lufEo0MAhVMeJT9D3WsjCX1sBUXAlxoBNCz3Hdsoq0EhZpDLv4JEohUhWmFOrCFLMsLrFZcYntf1oafkXFK5Eobvb6h/0OS4D7SkswPYENZzhF8WVWE2Jw4FZfYsU1W+TTXXUhlb4nK+FKIWCfRfaCDwsT7W9OKpNShAZ7IQpRuEsqAUIgBv0pWljyq7RNjw58wBayDW9hsYVsjTGbthTU42OAsLwajmF1ltxADMej9Kxz4Ro3OefHSRZiiAa9iAX9ueE7znOLy1BwbhXE/k7EettA00xcLHlMWABASJGwDHvAYJkRN1UHwyREVgDE1aq60GrGzpiIt2OjW9qaRAn/8vlxWJTRKsnwquopmY0sIfAwBOUcizqOw0SexxyLCVN5Pq6UP5PFau+FCcZt5PI6JIaDGBCaYHc4UwoOruZYlLL5o8GiAnoksfScrMFyCmHZ37c/NKG2rhdAyrrCnbIMBcjZKJZBVcXDwUhWftvsLkbF4g/A5PDk9ulUiCDiHYAQCcEIpM00cWFgLq2GuaRyiLj0tKXN4jJaZV9ljD96Sef+R0eIn3AkSIwk0BHfqC+67NgsiKP2vUtR8FAgPMKzoxhQhjQw9gsSgKFaXXZCcI7NiotsFiy3mE8hL0wW3/VECQtyPKZKlSUMth1J6bsL8yjzCxgqhqyDGGHj+z94nw2KHAVoyoRFAdAlK6jmcpOyPBqMJh2Vr8sJbfxMlM5alrNFC434lJxjLjCVVMNUXAVxsBuxnlaoOheIHM26PtZVq/Xuf2yEAeMTNE5Io8QFlbAMllrMWJsmC7BAKbbFBLRIMjZFBXzF5UTpCeG2bD7tgkRdQiT3NTPUFIUyF+ZZ/MpxPVKaCY6NQljUgwBZpq2juUlYQirNeEYQy5tROu98OKsm5ObLpSqIBbyIBrxjuhBh/hIXAlNRBfjCcki+Pgg9rVCiIV2aVkaRCqNjvGignjEZOwURL4XjW2YTtebEEhjTZRaTJsLiZhhMMXFo4E2o4liUsyxKOAalLIeiESwZ2awE50iQiIyFKvVyOPnMSQ/DYJIp3wiLdkkEquLAiISFAAe1Ttt2WQaQe+atdVEhowq2loJSVC76ADi7K+fGQpHE9wJpKTXcPrnPWwhMBaUwFZRC8g9A6GmFHPZranO0TTaLWa66QKtOiUIpNsYEPBWMYGMsNgoRGf00qQKIJBDbMDmFjauYZXGF3YbzbRZMMfFIJXJHyOLDdiRoYRkL6t9KNHkNlvkWE/JHfeVdHqA9npWh5OCIhIUSckAr0W6XczMwanfGsoIIPBNno2TGkpx7wSQhgohvEEI4CCM+ZWyCdxeBdxdBDvkQ626FHBxM0cIy2vFm7I4RRwisTPKn8dgJl8mGmIA1kRj6E8yK86kUCqVxA1oBIJRgIKb7RLBsIhoWTobBN9xOfNxhG/G3R7UKUAoxi2nsjkSXSZLbFhYqCVBTcKkvMudX/IpehIVSZmQLC2WYA0RjZG+blJvqmEcz0C+GN6F8/oVwVI7PnZeIUoiRIMK+fshCDAbyA5zDA0eDB0okCKGnDaK/LymTyGhVl4c0mcYma3GzXEIOoaCqYrcgYteJfw6IUkpWWIVS9KkqyuO4LBRKk1INLmIYdCegyvIllwOfcmovhhhUlaw+aTtJbLYRJrcJi5yCkKaZEMw251c6M9WHsMQa2xubRyQsTU1NxyfU1oYA4kj1V47LCmScFhyTVQRUisE01wkyu4tRufiD4B3u3Jg0qoJYyI+wbwCqEZ+St2BtTtjqp8MciwwRF293QsRltBlBxihfsRASV+W2V1axQxCGCIoooEmUdSv61yhKKLeycSwwyVWyZxM0lpylw8k8SlWEs1yjhyEELIYEPUe+MLcJi5ICYZlj5kfN2Btr6JZVPZJbjmAYQzA3DDk6BGB+yiwTwHFJRj2fO5QllOb8/VwSglNkEVG/F9GgF1Q19FPOGOJiscFWOwWWijqEWw5CCftGeU9HXlCYMWpheb8rqFGU8Xo0grXRGI6J6bOyHpEkLBtGfTaoyogm+R4m6iEp17jeRFUVgzlSL4pjgNGiCUiO19mRw8nHryyy5J87qFmfA/KBYefJ6Udzsg8kdcIy1GElpwhLNE0KiQzLDQnB1U7J+j1KQhTRwKBRiPAMB2OywFRQjOgohCWqjnbqHZvT6N36R4OqigcDIayJxOBVlLTLGewRxGEJgT8FdWh/gtZgVwr7twIKkVKEVQWxHDrQcAkQZMKZc3ruqdHkLCwMIZifh/ErLZIeFjuSGGGhDHYTqrXDMmDNncmVjiJuJocbFYsvhdldlLX7ogDESAgRbx8knXU6DIxdsJbR4xpG26wYjE0zdVhVYWVUFDIMvudx4XueoSy9CKXolBR0yjKaZBlHRQlHJBktkj6avnuEoXbIe/1Q4EvBeiED6EiQsEgALHHXPBXCiQKWCoaCgmVKc5aDJnKmZPncJSxqLJq06306z8HFkLxbf5r1SGmmZGdChIUBdmmd1E1Sbkn0O3TO1nFWTUDZ/AvAcNlhx1RV30tLNvRTDJz2DidAWCKjnWbH6L3TExWbCxgOtpPcQzZC0GDi0GDicM7J1gxVxR5BxBZBwJpwDN0p1svyqypaJAn1PI+AoiCgprZoHxHlhAN/pWEOMBGqIqjIkMdYTnoio0VMuWuNkFNIZ16ch+4gAGgWte//hCe7EyIsoqru5glDtaxZzbIMTQ3oDI9ehIUwKJm1FAUNs7Jyd4osIRrwIhbwQlWNQoQG4hAW3gzCsCPWNBFUOuI7yuYyYxllcaEUGFRkCJTCzbAj1slxMwzOtlpwttWCH3jcOCBIWBONYnUkirYkMx12xiQ4GG2VrtcnIRonq3gv4IUC6JclCGOw7hcFEiJYDGfJ2XtQkhSMI3lKWIKqin6NrkYCDB5rbDw+7Bx4/wdtbW1eAK1afjCsUnTnkB6LnSGas5Y4iw01534EBQ2zM05WJCGKQF8HBo4fRcTXb5AVA5qtLBQjb6xsLttYEuxaWFXQLYsIJbiAEgDTzTyu97jwbGUZHiovxmV2KxKVctsmxDSRlYBKsSaWuPTAyWJvQUUZk2QFGKrTlEjPc9nCkqxg3ER+ZOXhsYpGPfRXMLw7aFjCcgK7tP7oUSl3XBUEQCWvLSWOEgJLQVlGTx1CJARvVyu8Hc2IBf1GLK2BhJFIHEt4hPmUL0upCsCnSOiVxaQ1VqaaTPhtUQFeqirDV90OeEbZYI5qFKd8OBhGLAnOET1pm4/RsXuI8SdQaZOwXO7qsFCadEpzvrqDjuiQiUeB3UmtS4TE/0LihCW3BOTGc9psLEo0jODxoxmY+yqigUEMth2Dv7sNUorFtAyc4YTFOrqUkn8ESx2bZ9oQIqXolUX0y1JCNX1ORjHL4ptuF16pLINlhCDJViX1CrUboiLeiCSnknpyQcaxLGAQSMAqxVhsOdt/JRpMWkJiscWMfIQehgpCkyQsUMgOzUwr1wgLr52de4/tTns/pVgUwf5uKLJo7LoGUicsjtFrWPWNcLIlIHk5LjGqol8W0SOL8CkyolQdsfCfSgGRqgifEFiT1JGvbUph3XsnJuKf/mDSBtQoPXkhH7vPqyeBQOdECHi2kGxdr1qeRSXH5OX7pYuFRY3vEhrW7EBNzDvQ6ItqlnJL8VYPXRjB14doXwesJVVp6ydvsYIQYhQlNKAJnNUJwjAjnvxGqpXDkvweH4lSSFR5r8YPwbuKqwTqCepA6alVjBWMXoPpqKRgaoIFDCOU4tFgBK+EYyl5e09OUuYJgThGl4zuBNK4c5uwJBe/siRP3UG9igK/ds2zYFN704GkCEtjY2PvhNq6NgDjUv1VkVK0SAoa+NzwO9ZznC7and6ju9NKWAhhwJkshq6KAa0TCazVOeLpr28EwsKAgICAniGBUxRDNX9GsrYk4u55PhxFj6JglolHPc+imGVPMWMLlOKwJGNLTMRbUQEhDQs8fxKptBAGYYzNOJaOBHQ7cpmwKElaWPKx2CEAHNbHq7JtpHNBfLMDwWbQ1AkLABwRpZwhLA6GoIZn0aZRIybc3QIp5E9rzSDeajcIiwHNYO2ulAkLADCEQjEMfe8hkdiXQUXFK+EYXgnH3iMVToYBD4IoVRHQUXXbeZJcg4UhIMrYjMs/NtqaTEjOEhY1yQrNJSyTUyrweuKoDu4gQrBlxDUp/pGDbNX64wfF3IpjmW3iNbdBKU17LIsphwPMDIwdcPaRSfVotXVYEGMQT4KYAtmQ6BCJ6VEUXcnK0ObHnnS+JKcI5Y0VBFUVnaOEHzAmS85mCCmh5KwrC/LUugIA+/WIX6F0c0qEhWGwWfMNSLmlwjpLpzx+f+shKKKQtn7yFhtgbBYGNIK1jRx4e2QUWXpizMFTIOSY+eLPgz48E4q8ZzV2MmOPYu4XR69kzTs8Odt/OZIcYVlozU/CElP1keRnFWVEC0tc21RYELZZeV4GSMr2q0FFRa+ioJTNDXY83cyBIYnVrRiRBcoS/M0HUDj5rLT0kzAMOLMZshCDAQOpgjGZwZjMcU3WQVVFhyyjOk7KP0uIof1zMmHJscF4MxLDm5GhNaKMZbHQYsYUE4s6jkUlNzbIy2Zh9GxIzlmUs/1XQokH3NoIwQwdrPy5iEOyBO0GRNp+pL29Y8Q1Ld4fOjs7IwDZq7UL+3LILWQjBBN18h/6GvcAaVSW5A23kAEdwI1yOj08wvtpuITeR1hyOHOvR1HwUjiCv3qDuK7Phy/0eHHTYBBPhqLYLUgI6liZWa9RkAFsi41ihScEnKsgJ8ecqgrkJCo0z7Hw4PL03Tgg6OBNIWTTqOvZKI/kbYBoMiMcFCVckEOVm+eaTCMu0gm/bNEQgh2NcFZPTEs/TWYrjLBbA5oJi7MQ4mBP3L/vF0VcaBu+RgtDDPPKWCEs70dQVbFNELHtJAtGMcOg3sSijuNRz7EYx7Oo4Fgka//Wi8auiwqjEinO7gJhc3ObV8L+odz3BLEwj+NXDuhhmFDJek2EhVBmHSX021r6sF/IrcDbRVYTHgtFdGnL17g3bYSFMywsBvSYR46RT6dbYvFjsQwLy//gVyleDo9tF22/qqI/pmLrSXWeWQy5k6p4BlUsiyqOQwXHoIRlUMSyabMIUAAvhkY/kvGu3HUHyUFvwtcyBJhnzk93kAx9lO0JUd/WRFhkhr7NajxUdCoKBhQ1Zwo91XEsSlkWvYp2zYJofxfEwCBMrkLd+8lyPBiOgyrLMGAgVTAmM1izDYowPEk/IkrwKeqwdXIYYhAWANglSPiXLwSvmh4XsMVqwfx587Bw0SKMH18Pu82BgcEBNDU2YePGjdi9e3fahCSVE2t0p6KcQmSAoXgBD8ugjGVRwjIoYBgUsQRuhoWHIShgCTwMCxeT/Dx5MyKgJQFxUt5dnLPzQkqCsEzhuVPS0PMJh0VJD+tj4Fhr6x5NhKWlpaV7Qm3tMYA0aOnJHkHC+bbccQstspjwUlgfh4u/5QBKZi1PSz9NZhticgAGDGgiv86CuIRFBbBFEHCJzXo6YTnDx00B8EgwgudD0bTU6imvqMBVH/kIPvjBD8BiPdUtV1lVgZkzZ+DKj3wYTY2NeODBh7D5nc0ZVcBWMZQ4MaioODjSyRiAg2FgZwjshMDBENgZAgchMBMGJgB2hoAnBGZCYCbAA8HRa6SxdveoVcezBVWWoERDSe05+Yrdgi7ZwBswupD06BY/ArKOAtoIiyThfOQOYVmiI2EJtB5G8fQlIGnIhOIsNiBsEBYD2sC7CiD2xw++3xIbnrCcyS4hv0rxZ29AH9/8+1BbV4tPfepTOPfcc8AmsG6MnzABv/3tb3DwwEHc/I9/oq21NafGimIoZiaoM6szF1fkLpkN+ZKKX1mQx4Rljz6CcesTuW5UwkIJ1oPiKznAwHTDFH7IjKmHkJMixhDqaIRz3CT9LSwWq7HbGtBOfB0FI9an2hAVoA5jUWHOUL5yVJTxZ28Q/Tq6gBiGwfz583H5FZdhwYIFYFJwD0ydNhW3334bHn7wYTz59FNQFTVvnwHhzTAVlOVs/6SQL+FrqzkWlSybl88pQimO6KC3pqqMPoRFJWQNo9EMOaioaJcVVHO58dAYQrDMYsaKiD5BdL7mfWkhLJzZYhRCNKB98Wc5sDYH5PDwKZh9ioJ9gohZ78tiICC66BaNJayOCrjDH4aYxDs3f/58fO3rX8PGjRtx8MBBdHS2Q1UBm8WC8Q0TMGvWLMydexZKSko094/neXz5q1/G4iWL8ac//wXdXV15+RzMxRUAyV2npBIcTMK6wuft+7JP0EN/BRHGxCSkrD8qYWlubm7VI45ltyDlDGEBgLOt+hGWaH8XxKAXJqfeegEEnNkKKRaBAQNawDoK4xIWAFgViZ1GWACcUr04n6ECeCgYxnOh5NaE8fX1+OWvfgGr1Yr6+rqM9XfqtKm4447b8Z/b/4PXXns9756HEgnmbN+oJEBJYk1eYDbn7XuzR9TFe7L22LFjCUnHJ0ZhKVmltUe7RDGnBnqqiUOJjplL/qb9aemnUVfIgB7g3SOnh66JRoelJWeCPL9AKf40GEyarBQVFuLGm26E1Zod163VasUPfvgD3PT736G0tCSvnokUGIQqibnZt6Av4WtdDMEUns3bd2eXLuEeNGF+kdCOTaCdsOwW5KTMrOkGAbBcx7oO/rbDoIr+5d0NPRYDeoC1uUC4+KbpTlkZVq2SzfPU5gFFxQ0DAWwRktscLVYLfvu73+ri5tGKBQsW4K6778JVV30EHJcnWqqUQuhqzsmuyUm4g+abTXkrD9CrKGiXte95KsO8qSth4RRxNaAts0+kNKdk+gHgbIt+pjpVjCHYcUz3Pg4F3hp6GAY0EnRCRhXhejUSSW2BGKM4Jin48YAfTUmKXjEsg5///AZMnDgxZ+7FarXi2m9ei//e/19cftll6SUuhIDwPDirHbzDBdZiB5MGNVphsGtEN+aYICx5HL8yalmFxJhpf3Nzc8IlgBKaZYc6OgYm1NbtAjBXS9e2CyLm5pDa33ieQw3H4risj2XE33wArnGT9V0bGBYsb4IiCTBgQAt4VzHEwe64f38tEsX3Ctw4+Q1l85Qrb4wJ+JcvnJLg1XXXXYdFixbl5H2Vlpbg29/9Nj7z2U/jzVWrsfHtDThy7KimjKJinsPkihqUTJoKfvxUmKbMAMuevo5Hgn70NB9D15ED6Dl2COHeDqiKhkMqpYi07odz8vyckedXIsGEXVU8Ac7KYzn+bbq4g8ibyRhDEp8FBG+CaiMs22ISvu7KrUE/32rGg0F9glqj/V0QQz6YdC6HzlusBmExoBmcuxAgJK5+hE9RsT4SxQUnabIweWjdeyYUxcPBSEqhxFOmTsHll1+W8/dYVFyMT37yE/jkJz+BaDSK1pZW9Pb2IhQK4+ixI3j1lRUjft/BMJhbOwFVF18Bfnpiy77N6Ub9rHmonzUPACAJIvavfR2NW9Yh3NeZ0n2oQhTh5v1wTJg1NHezDMk/kPC1M008rHnqDhrymGgnLMmGmyQcDVTk8cgAvqSlc2FKcbbVDFcOSRSXsSxeiuhXOJ41mWErqda1j1RVIORw1LyBsQFCGMghH1QxfnCpAOADJxEWmQJRmh96HyKluMUfwosaagL19/ejpLgYDRMbdO8fx3EoKCpCSWkZikpK4S7wwGyxQlUVyBq0LnieR3FJMWrrajFx0kQEgyFs3Lgx7vWziopw7v/9AwVnXwy2NHXxNpZjUT5hEqadczEK6idioKsDYhIBq++RFjEKRYzC5Ml+vFCssxFqgofHDzusmMjnZ33mnaKENVHth2jKMt/2er3+RK9PmDm4i4o2APBr7eA2IbcivwtZBrN0nFSB40cBndNAjcBbA3phtGyhjZEYBk8STMuXGJZBRcUvBwJYG9W+/vz737fjyJGjuvbP5Xajpq4enoJC8CYTCCFgWQ4OpxOV1TWoHlcLh9Opz6YbHdmiXFBQBMaqryT+uCkzcdVPbsKSz30LvCN5M7s02INox9GsziEqS5CjiR0cCfJb3XZ7TA/rCnY3NTW1JfOdhNej7du3SxT0Da2d3BzLvVQ1PescSSE/YoM9+hIWngfD5m9qnIEMEhbXyMXkZAArw//b0PIhS6hJkvHTAT+OSPoE/YuiiN/deCMCfn3KZhQUFaGkrHxE9VuzxYKyikqMq6+Hy+0B0fBcwtGRy5JwJkvansXEBUvxyd/cguqzliR9D0JvO2LdLVmbR1JgIGE5/nqeQ3GeFjukQNJZdcNBpXg12e8kNaKEkFe0dvKQKJ9ygssFLLaYYNNxYfa3HtG5h0MCcgYMaAVjtoIdxWL3Uihy0gIxtgnLm5EYfjYQQJ/OMva9vX3445/+BFXjWuYpKEBhUeIViXnehJKyMtTWj4ensDAliX8hNrJLjLdY0jsHeQ4XfOk6LPjE18FwySVhxLqaIYxQFyvthCVBLMzj7KCjkowBXd4nJr2EBSz7KjSmN6vQKx1KP5gJwVKrflaWUMdRUJ1JGW8QFgM6gRslvfmoJOPwiYC6sVpPSKQUt/nDuC1Jmf1ksGP7Djz7zHMpf99qs6GopDSl77Ich6LiEoyrH4+CoqKkiEtsFIXvTLmgpyw9Bxdd90twSbqfou1HkyIP+pgVVMiBJOT48zg76B19vCTecW1N76SVsDQ2NvaCYLv2G869jJcLdCQsihBDpKdN1/7xRiFEAzrB5Bn9RP/SCU0WgrGndtt3Il7lTZ1Kb4yE+++/H41NTckTDpZFafnoAa3RaBRvr1+P5559FuvWrkXkfVo5LMuisKg4KeISiY3iErJlLmaufPwEXPbj3yUX10IpIq0HQTOYOSmHA6AJpmgXsgzG52mwLQC8E9WFsLz21pAHOo0WliGi+bLWnu4RJERyrKDfVBOHMh3jRAJth3W2sNgM+TgDuoC1uUY1xa8IR/CuHXQsabGsjQr4Xr9Pt3iV0SBJEv7ypz9DTLL0SFFJ6Yjiboqi4JZ//hNzZ83CZz75SXz3+uvxuU9/GnNnzcI//v53KO9T1T6ZuHgKC0FGKBwYi45M5NgMB/m7i0px2Q9vBG9LPKiYyhKiaRDqjEtYknEHmU15u1a3SQo6dVB0JzS18JLkCQtLntf88AFsy7HgWwLgfJt+ZrxwVwtUWb97JAwDls9fM6OBTE52ZlS3kF+hWBuJprZIZAFBVcVffUH8wxdCOIXyseMsFnz0io+nJLnQ0tKK++67P+HrLRYrnC7XCAYEiu99+9v421/+gnA4fKp1JBLBP/7+d1x37bXDxs+wLIui4hLUjq+H21MwbGBrbJTCfaw181mJrsJiXHL9DWCTCPgVvb0ZK5Io+o34FQB4R58sX0mEkhnC0tzcvAeA5qjSDTmYLXSexawbM1YVGcGORl37xxluIQN6zaVRCAsAvHBis8z1wNudgoTv9vuxIQVTNQvgoinTcN7vboP9oitx8VWfSomgPf/cc9i7d19C1xYWj+ySe+rJJ/HC8yOfC1995RU89sgj8e+L5VBcWopx9eNPyyqKjOIqY2yOrDzHoqpxWPa5axMXiCMEJAOZOIoQhRoLJ3StjRDMNOXvwfJtPdxBFKvb2tq8GSEsJ37xRa193h4TEcyxbKFyjsVkk37sONimb7YQbzb0WAzoNJdchaNuDJtjIvoUJWctLIOKipt9Idw4GMBgClkLNRYzPvGl61D5zZ8DJ0729nM+hHOnTE9+RaQU//rXLZBGEXgzm82wjhIjcu9ddyX0m/ckcB3HcSgpK0NNbd17Oi6xUWJYGLsza8+0bvZ8NCy/JKFrzcWVYCz2tPdJ8vUlfO18iwl8nvqDWiUFbbIOrlYGz6X+1dTwnNY+ywC2CFLOPZRzdazgHO3rgBwJ69aeEXhrQC8QlgM3SgkJlQLPh8I5p8WiAHgxHMX1fT6siyavUs0Q4MLJU3H+7/4N/qwlp/29+pofY5IreXGz421teOLxJ0a1CoyEcDiMgwcPJvR7jY2N8HoTO6jyJhPKKipRU1cHYRSzfjYJCwAsvvqzsJdWjdxHjoelvD4j/UmGsCzO4+ygt/XxiqgyTd3gkRJhaWxtfQdAl+YBiOZettAyixl6hd5SShHs1C8wjDOZRwymM2AgOSvL6NlCKyNR5JIddJsg4vt9ftwXiKQUuF9tMeMTX7oeVd/6xXtWleHI3KJv/gyOFILwH3/8CRxvi58hKI0SnBuNJFfXLBJO7kBkMpkhiCOvu4ynMKvPmGEYLPvM10a2rpTVgXDpjxWhkgAlkphAoIkQzM1jwrIhqkfWHdnU2tqaMndIdfdTQaHZLbRblOBXcytbyMUQXStshnSNYyHgzBYYMKALYSkYvTZLq6TgsJjdeDMVwJaYiB/1+3DTYDAlszRDgAsmT8X5N/4bpjmLR3/TKsfh4ouvSP40Lkn4179uAY1DplRVRWwE4baCwkI4HInFkFitVpSWlSXdx2gkvkuIBQBH9ivU7lu9Mn4fLTaYS6oyY13x9yd87WwzB0ueniePijI6dRGLUzV5Z1IeXgr1Kc1dp0Nl3nMNZ+voFooNdEOO6ecWMgJvDeh2kuXNYBNIJd0uSOCy4BaSKLAmIuC7fT78wRvEMSm1dMpKixmf+MK3UP2tX4AkQfidl34MCysrk/69vXv3YfWaNfGtIqFQ/M2YZfGBSy9N6HcuvuQS8HzyVobwCFYZRw6UABnoaEPXvm1x/26pashY5WYxCXfQEos5b9cKndxBVCHkmawQlqa2tjUAOrXewdpo7mULLbaYYNbphaCUItTVrFvfTIaFxYCeVhb36G6hzTERLiZzG1m3rODBYARf6fXiX/4QjsupERWGAOdPmooLb/w3THOXptTG5GtvQEkKpOC+e++LK4EfDodG/O4Pf/QjuN3uEa9xOJ340U9/mvwGLIqQR7BQ2XKAsKx/+C5QdfhnzjkLwSeQ4aYHVFmCHPIlPNfm56k7SAXwtj6GhXdaWlpaskJYhu6DPqP1Dg6JEjpkJacekJkQLNax0ma4o0m3tniTkSlkQE/CMrpb6LAkI0oJ+DSeamUAG6Mifj0YwDf7fHg2FNWURVhqMuETn78WNdclZ1V5P4i7AOdf9dmkE7v7+/rx+BPDB+CKggBRiL8BVNfU4P6HHkJRnPTnwsJC3Hf//airq0v6fkaLebHy2dUQObx5PQKdcfY0QmCrbshYX+Qkih1O53m4mPxMD9olSPrUDqJ4XGsT2jxulD6hx4CszcHg23N0dAuFezugiPrIhDM8D4bNX9lnA5kFa7WDGaVOlUIp3orG4Gb0n3dNkoz7AmF8rceLv/iC2C1I0BrVtqCsHB/81d9hmrdclz5all2EJTW1SX/v6aeeQXfP8JXbg8GRAznnzZ+Pt9avxw9//GPMX7AA42prMW/+fHz/hz/EmvXrsXjJktTWolGCei1ZFKdUFAU7X4y/p5mKqzKSxvwuksoOsuRvsO2aiC77s8pR5emsEpbGtraNAFq0duKtqAA1xx7SHLNJP8ZMVYS7WnTrmxF4a0BPmApGD9xcFYnCwjC6uEr7FBXPhKP4Tp8fP+j348VwDD4dNJksDMFVy87F1J//DXAV6DpGE77+IxTyyblLRFHEPXffM+zfQoHRM0/cbje++/3v49kXXsDbmzbhuRdfxPd/+EMUFKR+b6NaWEzZi8N45/nHIIb8wxtXWA7W8rqM9YWqCuRgYinjBMAia34Slgil2KKPuu1bh48f1xxCojWmmYLgSa2d6FVU7BdzS5OFBbDcomcFZ/3Sm3mTEXhrQD/whaMTlq0xAYdFCe4UrXvtsoJnQlH8eMCPa3q9eCgQ0UeE6gTqbDZc/a0b4PzE19MyRsRdgPM/cHXS33t7/ds4fPh0AUlZlpNOSdZlAxrNwmLNztoS8g2iadOq+P0qr89IGvN71pXAQNw4mtPILM+imMnP9KC3oyIEPer+UaKLN0bzKBNKH9ejIzqZnXTF2bq6hdqhyvqQMt6wsBjQk5ybbeBsrlFOJsCNgz6oILAkoAUUoRRbYxLuC0RwfZ8P1/f58FAwgqOiDL2FDM6pn4hzfnsLuInT0jpO9ouvxLyy8uTWaUrx3/v+O+zfAn5fxp91eBSSZMpSFuL6R+8BjaMSzFrsGUtjfo+w+HoTvnZxHmcHrdEnXENkZf7ZnCAsx1pbdwLYo7WdDTExpaJl6cQUE48SVh/mTBUF4e4WXdrizIaFxYDOVpbi0dN3D4sSvtLdjwOSckpd+KCq4rAo481IDP8NRPCTfj8+1+PF770BvBiOoj1NQfU8IfjwORei7nu/jisCp/ua8JXvwZqkW2znzp3Yvn3n6aQuHB4xYycdGEmDBQBMVnvG517n0YPoO7I37t+t1RMzlsYMAFAUyP7BJAhLfrqDOmQFh/TxfLx6pPNIvx4N6RRFRx4C6F+1tCBQinUxAZfacsd6QAAst5rwXEifgNlgRyOc1RO1s0yOA8NyUBUZBgzoAVNBGYTOxlGtgEckCT/oGwQBYGcIVIqUFGe1ws0yuPTjX4JpyQUZ/V22vBrnzVuMFds2JfW9/953H+bOveWUIoSUUgT8PhQWFWes/5HoyC4hkzPzsvwbn7gvbjYO7ykB5yzIaH/EQH/C7qBqjkU1x+blmvBaRNDHGkrwgF590sV8oDJ4CKCad8/XwrGce2hn62juC3e36UYyDLeQAV3JOcOAL6pI+HoKIKTSrJCVGqsFl3/n/zJOVt5F8ae/gRpLcu/f0aNH8fb6t0/7POD3x1XFzYqFxZVZWf69q19DpK8rzpxkYa1qyPjzlbyJu4MW5al1RQbwli5S/Biw2O2v5hRhaW5u7gHI61rbaZEVHJFyy2ownudQqZOYEpUlRHvbdWnLcAtl6UUO+SH2d0AODAJUzat7M5fUgOR48OCswkKc9/O/gq1ryFofCMdh6dWfS1qb5eGHH4b6vmwoRZYRDoUy1vfRgm65gswRFlkUsPf1+KEN5tJxYEyZPZhRRYYUSMIdlKdicRujAgJ6hGgQPLJ//37d1GF1W50IJbqYfV7PweDbc2w6Bt/2tBmEZQyCUopI60GEju5A5PgRhBp3I9Z+JK/ukeFNMBVX5mz/ltWOx5xf3QziKsh6X8yLzsP88oqkvtPS0ooNb2847XOfdzBj/Y6O4hLiisoy1pe3n3wQcnT4IGDGZIW5bFzGn6vk70/4IFLMMGgw5acmll77MKH0AT37pRthkRn6IgCv1nbWR4WcC749z2KGXiFfoe5WXdoxXEKZhdDTAnGw+5TPYv1dYGQxr+7TXFYLkoPChOdPmooJP7gRYHKnb5M+c03S6r+PPPLIaVYWIRZDLBrNSJ/D4ZEJC1NanpF++Hq7cXz723H/bq1uyIq1Lyl3kNWEfNS27ZYVvWRG9h9rbd2Rk4SlpaUlRkEe1bwxUIq3ckz5tpxjMVUnJi2HAxCDXu0PjuXAcIbibSagyiJi3XEsY0IErCl/0hoZzgRL5fic6tMls85CzXW/yLmxYmsnYsmE5ILom5tbsHHDxtM+9/u8GenzSBYWEyEgDndG+rH+kVHqBbmLM/48qSxBChrZQa9GYroE21KCe3Rfn3R94Azu0qOdV8LRnFO+vVDH7KWwTlYWwy2UGYj9nXHNxNHBHnjKqsGw+ZMpYC6qBGd350RfLpg6HeVf/WHOjtW4z18HR5LSB488/MhpgbahYBCSlH7xzMgIQbeuDM3h5r074G09OvwfCRlKY84CJF9/wrWDnAyD6Xz+HRhjKvCmPu4ggRNND+c0YWlubt5Dgc1a2+lUVOwSckv5dqmOFZzD3frEsRhuoQwRloHuuH+TI0GwvBmu0irkjX2YENjqpoPhsnuCXF43HtXX3pDTQ8V4irB89vykvtPU3Ixt27ad9nkmrCzREYJuHab0P29VVbHlqQfiEgNzSTVYS3YKvIq+noSvXWjmwZD8cwitjsZ0yfwjIE/rpb2SNsIyBKqTlSW3UpythGCZTibAaH+HLqq3hkR/+qEIEahi/FOpFA0DoDBZHXAUluXNfTMmM+zjp2cta2huaRnqv/ubMTFWJZ+6BiVJVjl+8omnTvss6PefFt+iN0bSYXGY0+/a3LHieQj+geE3Od4MS0V9Vp6hKglQQr6Er89HdVuKIXeQPk5KG04AAHoYSURBVIceenda1iXdWaqiPAbAp3liCyI60qSQmSou0sktRFUVkd7jmtsxiiCmH3LAO9rDBE4EidvcRbA43Xlz76zdA/uE2SCMdldBMnVg6m1WTP/+b3M+xfq9ezNbsOzci5P6zp49e3Do8OHTrA/plusPh+JL89us6bVsxEJBHHorviSHrapBl7mWCiRvb8J6OBYGmG3OP3fQLkHSS5X68LGWlnVjgrC0t7dH9Qi+pQBWRnLLyjLNxOmmaqhHHIsReJt+KJFgAnP1fwudq6QSJqstb+6fc3jgmDQXbIqS7YzFDlvtFNiqJyV0fQHHYen1vwCxOcbUODkv+xTq7ck996efPN3K4vd6E9o4RVHEoYMHsWvnTvj9/oR/MxiMP5+taR7zdY/eDVUcfk3nXQXgC0qz9vzEwcTdQXNNJpjy0B30akSvTDV694ktPPcJCwBQBnfq0c6qiJAVJc2RcIlNH1NguKdVl2dquIXSTFiio4t6nbrBELhKq8FksLJs2i0tVgeckxfAWjkBDD/6/CcsB95TCvv4mXBNWQBTYQWkwOjubAbAB676LNiqujE3RoRhsODyTyT1nY0bN6Gjo/OUz+RRhORCoRB+++tfY86MGbjkwgvx4csuw5wZM/Clz38ex44e1URY0mkd7Go8gu4DO+MNHizVk7P3jsfCUKLBhK/Px+ygDlnB9pgucaMxVjI/kK5+poWwNDc37wGwVms7EUqxMsdiWc6zWsDrQK7lSDiuLzepE7A5fyuF5gJUIZIAQz+VeDIsB09ZzSl1Y8Y8CIG5bByc05fAMXEOzKXjwLuLwTnc4Bwe8AWlsJTXwd4wB+6Zy2Gvnz6UmkrIULqor2/Unzh30lSYll88ZofIsvQiTPckLmqnKAqeefrp0z6PJyTn9/vx0SuvxL13343QSaRGURSsXrUKH77sMmzZPHLOQyg0AmEpTF8q8YZH744baGspGwc2ixmPUhLWFRMhWJCHhOV5nTJzCfBoOoJt00pYAICC3qpHOy9HYsglsX4XQ7BIJzlmPbKFOMPCkjZQRU6oCBodJuWZM1vgKqkC8kxaihACzlEAa9UE2MfPhGPiXDgmngV73XRYKurBOwtOq6wb62kBHSWYtM5mQ/U3fjzmx2dmklaWN954E16v75TPhFhs2GyeG376Uxw8eHBE68u111yD0AhWlGBgBMJSWpGWMdm9egUi/cPXCxpStK3N4ktOTxOEHAlzzXzS1bpzHX6VYm1U1Gk41dvT2de0EZam1tbnAbRobWdQUbEux4TkLtEp+FaXwFuTYWFJm3VFTGzexbOkmB0u2D1FZ/QYKrEwhL6OkRchQrD0k18B4cb+ydW04GxMc3sSvl4URTz//POnfe4dPNX62trSgldeemnU9vr7+vDkE08M+7doNApZjn/8Y8uqdB8PMRbBvteei/t3W/XErAZXy2E/VCnx/WWZNf+sKy+FoxCpLnWD1je2tW0fk4QFgEKJPrEsz4ZyS0hupplHuQ7Bt9GBLlBFW1Q2y/NjJptizFlYEpLdJyBs/HgVW2EpTHbnGTuG0fajo4pxLa2tAzdncd7c84zLP5bU9a+89DKi75Pmj0YiiMX+99mmTZsSzmLZuGHD8NaVESwvBABbWaP7WKx/7L9QYsO7VXl3MTh3dgl9MsG2ZkKwIM8OiAKleE2vukEquTXd/U3rTseJpnsAaA49bpcV7BRyp2YLAXCxVfvEpYqC6ECX5t5wJiO9OS2EJQFNDMJxI8aqEADukqoz0hIm9ndAHqUMhZtlUf/l7+XVfVsWnoep7sQDWIOhEFauWHHa577B/8Wy+LyJi8p541w7EmFxMgyIznEk/e1t6NyzZfj3gmGzpmh78vst+RKvHTTPwsOSZ2fDNyICgrpo/9D26rbm58Y0YTnSeaSfAI/p0dYzoWhOPejzbWbokeAcGcVcnhAxNPRY0rSijW79YvjRTcSEYeAuH5dX8v2jQYmFEO04Nup1S+bMB8lDt9nMD308qeufe/5FKO+ztoZDIYjC0Om3ojLxKtqVca4dKbbFk4bg/fWP3Bk3BsxSXgsmywct2d8PqiQeIbk8z8TiZAAvhPXZVwkht7+F9Iebpp0vygR/BbR7dA6IMvaJuSPXX8gwukSLR3UgLLxhYckaWDax9GWW4+HOt8yheFAVhJsPjGqhcjEMSj/6xbwcAsvi8zDZ5Ur4+p7ubmweJsPn3Yyh5WefDXOCpOLCi4fPtAoG46dLu636WlcObnwLwc7htaZYsw3m0nFZf0aCN/FgWwsDzDPzeTVHV0cE9CnarSsUCHOSdFcm+px2wtLS0nIIwEo92noqx6wsF1q1E4XoYI9mmX7WCLxNE0YnF0wSkuy8xQarqzDvRy3afhRqLDzqdYtmnQXYXXk7DrM/eFVS1z/37PPDWkVkSUJRURGuufbaUduYMXMmrvjwh4f9m9cbvxKxQ8fnoMgydr70RNy/W2smnZZJlmlQWYIcSLwy8wKTWbdacjlxpqAUz4ciurRFCO451NExkIl+Z8gjR/+mRyu7BQkHc8jKMs/MoUBrwCtVEe3v1NTEUAzLGXByzzhfGf3ZJiKkdsr1bH4rE4veHggJxGWZCEH5VV/I67GwLLsYE52JB1zv2bMHjU1Npy4PlL4Xv/KDH/0IH7kqPgma0NCAu++7D2wc1+NAf/w9xZGEfsxo2PDkA5DjKESbCkrBOQuyP08HuxKuzAzkX3bQ2qiITkWXVBaFVdVbMtXvjBCWxtbWNXpUcQaAZ0K5IyTHEIJzdZjIkV5tbiFCiJHenA6+kkDMCWOM+/9ObWIU0bbDiVkfysrzMnbl/ZjzgSuTuv7F51447bOA3wdFlsGyLP512224/Y47sGTpUlgsFnAch4aJE/Gjn/wEr6xciaqq+KnJAwPxCYulQB/Ln6+3G63b1sfh/yysVQ25QawHEncHWQnB3DxyB6kAntNPkPWpI21tTXlFWIY2VfxDj3a2CyKapNyRkrtAB6n+SF+75jaMwNs0zNkE6jRxvCHc9y6ibYcTEtoDgLrlF54RY2I9+4OosyVeY2j1mjWn1QailMLv8713OLn8wx/GE08/jSNNTWhqa8PqtWvxne99D7ZRfqe/P74AqaWkUpf7XffwnXEDWS2V9SB89gm+EglAScBl+S4WWvKrdtDGmIg2Wac9lKp/y2TfM0ZYalpanqFAs+bxAfBoMHdiWcZxHCaatJn5RX8/FFEb4zUsLGkgLMzopyrWYhBFYMjELgUTS70t5FlYl110xozNnKXnJz6OoohXXj69orHf54WqMf10YCA+YTHVjNd8n007NsPXOnw9I9bqgLm4Kjfman9yUhLL8kiKX6UUjwcjejW3Jt1CcVkjLG8BMqNTLMs2QcRhMYesLBo1WSilmrOFjEyhNBCWBCwsrFEaAVSWEOtoTPj6iWVVAHPmVBl3XvpxlCQRnP3Syy+fluKsqir8SWixDEtY4sSwsACYmnptVgtVwZbnHo77d2v1pIRiwtI+V1UFYhLaKzZCcJY5fwjL2qiIdlnRpS2Vkj9muv+ZnUE8fy+ADj2aejQUyZlJsNxi0lwQUasei+ESSgNhYdhRVYRZY9wR6z2eVKZb1bQ5ZxzxnT9rfsLXDw4MYO3adad97vMOarKyxIthKTHxCZHzkbD5+cchBoYnVOaiCnAOd048C9mXnPbKYh3W9lyBSqlumbYU2Nzc1vxGXhOWY8eOCYTg73q0tVuQsDdHMoacDIOFGs2G0X6NgbcMC4Y7c06tGcMoOivMmW5hoSqkgcSz3BhCYF96wRk3TMVXfQGOJDIKX3ju+dM3HFWF35e6lSUeYSmyOTTdW8g3iMYNq4Z/3hwPS+WEnHkOQpLK4vmUHfRmVESnouj03jM3ZeMeMm6ji4jinQB69Wgrl2JZLtToFhIDXiiStpoOPG+c9nV/QUYhgZzlzCYskn8gOR0hSnH4rr9CbW85o8aJOJ1YMHFKwtcfOnwYBw+cXpnZ500tliUSjgxbARoAPG5tacZvPfifuHW3zJXjQbjcyLBRxSjkUOKEz8EQzM4Td5AM4Gn9rCu7mtqaXjkjCEtnZ2eE6pQxdFCUsD1HagzNMfEoZFMfTkopYkmk2g1rDDAbgbe6bzTsyAsWe4ZnCUkhX3KbBoAtnR148m+/QvvtvwcNeM+Ysaq8+gvgk8g2ef7501OcVUVBwOdL+rdHCrh1FZemfE+NO7ZgsPHg8GTe5oK5sCJnxl8cTG59XWwxI19s1ivDMfTqZV0BvWmIt5wBhOXEqfV2ALqsVP8NRKBSmvUJwRCCszXWmohqJCycYWHR/7mOUivoTI9hUaPB1DYPSrH68EG8+JvvwvfQbSCikPdjxZZXY15ldcLXr1+/Hv19pxONVGJZOjvju+3sZdUp3Y8iy9jyzP3DE31CckLR9uQD4ZmaHRSlFE/pF/N5sKm19bls3UtWCMuxY8cCALlZj7baZQVrYrlhZdHq74xprNxsSPTrD8KZRiDefELicnlNWCRt755fUfHitnfw+i++icjKp/N+vOqv/HTCmtSKouDFl14a9vNkrSzHjx+P+zfTuLqU7mX94/dBCgWGb7OkCqzNmTPjLgcHoSbhcncxBLPyRCzu6VAUflWnQz3BjdChNuCYIiwAYInY/gmdYlkeCUYg5ICVZSLPoUSDWyjq7QU0ZAFwJrMh0K83YRnBwsKYjZRmvYo5dokinl7xPDb98psQd2zM2/HiJ8/C9CRUZVesWAFBOH2jTdbK0h6HsBAATN3EpO+jv70Fx7dvGP694M2wVIzPqXEXkyx/sthiQj4cRQYVFS/rpmpL9zW2tDyZzfvJGmHZ37c/BJC/5d5D0UI+h/yeKU8HWULM369p8xjNhWEgyRdkhPHkDO0b3QMqjwaDeOKB27Hvxu9AObgrL8ds6vkfTPjagD+ANavXnPa5oigI+H0JtxPPwuLhODBWe9L3sPaB/8RVNbZUNYAwubPdU0mAFEiuNt8yS35Yqx/W8zBPyK+QRetKVgkLACiE3gqddFl0NXtpwDKLtgU8NtCj6fscb7iFMkVYWMPCkhazPwWwY2AQj935dxz900+gxlFPHauwnHMpKpMIkH/++eeH/dw36AWlie0f7ceHL/9RmkTZgHex87WXEI5T/4x3FcBUUJpT4y30J1fo0M0QzDSN/XDbVknBW7qFS5DtjS0tL2R9Pc7mj7e0tMRAyZ/1aCtKKZ4IZl9MbpLGbKHogLbKzUYci94WhBEIi6FyC86Rvsq7KqXY1NWJJ/5xI1r+8SvQns78mFOE4Ky5CxO+vrm5Bbt27Tr9wKfI8Pv8CbURz8JSWlyS3PoU8OPAm3H2LcLAUj05p8aaUgoxyTV1icUMJg9qB90fDOuXkELoL5GlzKCcISwAYHHa7tSjxhAArIwKaJGVrA/oXA25+1ozhXiDsGSMsDCGyi04V1HaY3kkSrGupRlP/emn6Lj996D+wTE/boVXfAb2JITknhtGSA4YimWho2xKgiCgr3f4cEF3eU1S/V7z4B1x655ZysflnNVRDiQXbAsAy/NALG5zTMROQS9hVbKhsaVlZS7cV9YJy/79+8UTed26nMjuC4SzPqhaSpHL0RDkaCjl7xsWFr0JCx83sJTljHghQgjsddNHLWGgB2IqxarDB/Hcb7+Hnv/+EzQcGrvjZndi3viGhK/fsnkLuoZJTVZkedRYlvb29rikxj5+UsJ9OLZjM/qP7YtD3q0wl9bm3DiLA8lFHBQyDKbxY9sdJNEh64puJIHBz3Pl3phc6ERTa+v9FNilR1t7BAnvZDnNeY6ZB6PBohjVkN7Mmcy6ZW4YGNqQ4wWWGgHOJ4ibzQlb/YyMBVqGFBWv7dqGF391Hfrvuxkk6B+T41bz4U8n7HpQVRUvvPDisH/zDo5sZRkpQ8g8eVZiG78gYOtT/40bC2KrnpQR0prUAVYSIAeSs8Yts459d9BL4Si6ZJ1iYyleONrcvM4gLO+bWwD9hV6N/TcQgZjFNGcbIZiigaVHNemxGJlC+ltZhh9PQ1n4f+BdRbBPmJ3RuedXFLy6ewee//W30X/v2CMubO1EzCwsSvj6FStXIhgKJW1lOd7WNuznRTwPuDwJ/fbaB/8DKTK8RYsvKAHnKsy58RUHOkd1l70f549xd5BPVXWT4AegEKi/yKX7yxlK3NTa+iqANXq01aMoeCnLac7zNMSxxAb7tG0ehlsoI4SFMVxCp4BzuOGYPB+csyCjv+tXVLy6Zwee+79vo2+MEZfJF3wo8XUhGsMrL7087N9GsrIcPXps2M8rnIlleLXt24Wu/duHfzcYFraqibk3sFQdyg5KAtUci/Fj3B30UCCCiG6Btrj3WFvbfoOwxOsMwQ+gU573k6GojrUTksdMDXEsgr8PoKkPA2tI9Os7L+NYDVhDh2WYsTLD0TAH9roZGS96F1BVrNizA8/++tvovOvPUMdAcK5l+SWosSQ+j5577nmI4ukub0WWEfQPT9SOHD487OfFJeWj/p4qydj4+L1xXUGWynqQHJRSkAKDoEkG2547xq0rB0UJq6P6lLigQFim9Dc5t77kUmeOtrTsAvCEHm0JlOIef/bSnCfwHMwp+kKpokAIpL7Ycibj5J8JwsJwvDE4ccAXlMA5dWFWNDmCioo39+/FC7/9HrrvuznnicucuYsTvtbn82H1qtXD/s07ODCsleXo0eF1bFxV40b9vbcevRticPiyb6zVAXNxVU6OqZikW50AONc6di3TKqW4yx/WLe+YIfhba2trV67dJ5NrHVIIfg5AF3/OFkHE1piUlftgAUzSYF6MeVN3C3GGS0hXxJXnJ6wxOCMtLpwJtrrpsE+YA9aa+boyQUXF67t34NnffBftt/4OaldbTo6T+4pPw5FEwOozTz8zrCy/LMsIBk61svT29sLnHZ5wWCdMHfF3Oo8eRPvOTXHmPoGtZhJAcm4LORFsm5yy7RQTj9IxVBcspFK0Sgq2xiS8ERHwZ28IzfpJenSxZvPfc/G+c85h19LS0jKhtvZvAPmlHu3dFQhhltmTsrVDC6aaOOwVUyNMgrcXqJuaGlniTSCESVgF08AohCVOrIqRjJWgtcVVAN45D6K3B7GuFqhiNKO/H1EpVh87DNOff4GFVdWou+rzYBqm5Q6xs9kxt74B6xqPJHR92/Hj2LJ5CxYvWTyMlWUQTpf7vUzBeO4gnhDwE6fHPzgqCtY/9J+4rmlTUTlYuztHrSvJB9uek4PuIJVStMsqGiUZTbKM47KCfkVFn6Kmt3YeJT87fPhwMBefbU5GGEUl6Y9W3vQFAOO0ttWnqHgqFMXnnLaM38dUEw8gtcU55tVSF5KA5U2QxRgM6GEp4GEwFq2sj8BUWA5TQRmEvg4IPa1Q5czKD4iU4u3249h42x8xt7gEk6/4JNjZi3JieKov+wSYW25KOIDvqaeeGpawyJKEoN8Pl8cDANi3d++w36+x2UBGED7c+OT9EOK40gjHw1IxISen2ZCybXKeDBa5UTtoUFGxS5RwRJTRJMlokZUMZ7tSAMz2xrbmh3N2Lc7FTnV2dkYIJbqlUz0bjqJZkjN+H5NNXMo5/UJgQGPgrRFfod9ma7h+9CQu5tJqOKcvgbV6EpgsBGyqlGJbXy8eve9W7Pi/6yCvW5H9k+OEKZhWkHh21b59+3Ho4KFh/3ZyLMvePcMTluryyrhtdxw+iJYta+P+3Vo1IWfjt5TAIFQxucDTuRYeLibzh48IpdgcE3FXIIzr+3z4Sq8Xt/hCWBmJ4YgkZ0GagwDAzurqao9BWJLEsbbmRwD6tj4LFPAfv451FRKEjRDUcaltdlRRIPgHUv5tI45Fx9c43jM0LCypjynDwFxSBdf0JbDVTgFrzrwFlALY5/fj0WcewfqfXwP/i4+AytkTnZy8/KKkrn/qqaeG/Vw+SZdl7549w15THCd+RRJErH/wNlB1+MMS53DDVFiRs/NKGEi+lu651sxl+3XLCp4NRfHTAT8+1+PFH71BvBqOoT3LJWVOeiu+Zma5xoa6uhsqKyttufZ8c5awAKAE+C50SnM+Isl4OSJk/CammrITeMtyBmHRb3M1LCzptLiYCivgnLoQ9roZYK2OrHSjORzBC6tW4OWfXoOeu/8Ktb8n432wXXA5SpPI8Nu4cRM6OjrjWFkG0d/fh87O4f9umz188cU1D/wbYsgf91lZc6y44SkHUzGWtLKtjRAsNKfXWtQmKXgiGMX3+3y4ts+HB4MRHBbljB+gk4CHUvzBypsOjB83/qJc6lguExYca23dAdD79GrvkWAk49osQ3EsqRKW1ONYWJPhEtKPsMQhnaoR1KwnceELSuCcsgD2CbPAObIT0OmVZby2bzeevOlHOPqXn0HetyOjxHju9NmJb9Cqiicef3zYvymyjE1vbxj2b0UcB6a67vT1dvsmdB+If7/m0hqwVnvOTiGxvyPpYNvFFhNMabCU9ioqnghGcV2fD9/p9+GxUETPLJ5MoZYQ9fXxtfX/bmhoyIkTMJPrIyYoyk8B9OnSFqW4zRfOaI1sLYW0BJ8GCwtvWFh020jipDsaWVjpAe8qgmPiXDgnnZU1yXeRUmzqaMejd9+Mrb/6FqIrnwVV07/hFF/52aQyGt98cxV6uoev8L5p08bhd6Gi08sBREIBbHkyfq0ghjfDWl6Xs3OGqiqEFEqanG/Tb52MqcDqqIBfDgRwba8Xj4Ui6Bh7JGWYowT9FpXk1fX19WUGYRkF7e3tgwT0Br3a26OjGmAiKGQZlKWY3y/4+1NeJBmGBWO4MvQ6+g6rN0EVg7CkE6zdA8eE2XBOWQBTQWnWinoeDATw1Ipn8cZPv4a+B2+DOtiXtt9iCooxp6om4esVRcFjjw+vtbknTsBtWc340z5bddc/IcfiC21aqycCObyeiN4eUDk5CYlSlsF0HSzRB0QZ//KH8MXeQdziC2GfKCEPV4aljEq3TKie0JDNTjBjYaSOtbbeB2CjXu3d6w+jL4ObzTRzalYWqqoQNSjeskbgrY5WFm4YC4tiDEwmiIvVAVvddDinLhoK+MwScekWJazY/g6evPEHOPjHH0HcsCquRUILxn/gqqSuf+P1N9DbeyqJisUEHD0yvMKte9qpbqddb74Cb2t8DRjOWQjeU5LTc0TsSz7Y9jyrOeUNMEIpVkRi+E6/Dz8f8GNNREivNkpuYBwYZfXk2tp6g7CMsndThbkWgC6ytRFKcas/lDHXkBbFWy2ZQqxRtVlHI4uREZRtMGYrbLVT4JqyCKbC8qwRF5FSbO3uxuNP/herfvo1DDxwK6iOVhd+1gI0OBIPPpZlGU++z8py6NBBKMPE65kIgWnm/Pf+39vbjb0rnhlh4hNYaybm9LyQQ34o0eR0zgiA81PIDmqWFfzHH8ZXegdxpz+MNukMO7QQ1Mggq+vq6sqzsgaMlXFqam/aS4Hb9GpvjyBhZSQzwmrjOS2ERUNNISOORdc39fS13CAxWVm0LFbYaqfCNWUB+ILsnvw7BAGv7NiMx2/8Afb+/geIrntNl3anLzo7qetfXbEC3V3/i+HYuXPXsNdNcLmAE0U7Vapg1V1/HzGV21w6Lisp50mtkf3tSX9niolHBZfY9qcC2C1I+L03gO/3+fBaJIbYme0NrmMpnp0+fXrGT8TMWBolRyz6KwBNerV3fyCCTjn9M6+OZ1MXkPP3p25hMYogZpzEGMgkcbHDXjcDzklngbW7stoXiVLs7O3FU888hDU/+xr6Hr4NandHyu25P/hReJKIfVMUBQ89/Mh7/79t27ZhrxtX/z9ryZr770CkL36gKsObYSmvzek5oApRSCkkJ5yfQKFD4YTb5/peL349GMhaXbocxZJoKHKzQVhGsor09IRBcJ1uzJxS3OYPpj0f3kwIKtnUhlpLDAtnuITSzFcMwpILYO0eOCfNg71+Rk6k3R6PxrBi6zt49E8/xc7ffBvBFx4BIkmWZjFZMG9ScrXE1qxeg9aWVni9PjQeaxz2mqL5ywAARzavR+fud0Zsz1o9Mec1iGLdLUnHEZkIwfIRagf5VYqHgxF8rdeHO/1hdBrB9XGOa/S6hrq6D2TyN7mxNkiNLS0rG2rrH6Ggn9WjvQOijOfCMXzUYU1rv8fzXEpqhnIsDEWIgTUn729lONOQEYAaL5dmDLcoGuOaU+A9JeDdxRD9fRC6WqDEwtk9/VNgr9eLvatXwLpmJeaUV6BuyXngzv5AQkSg4sOfBnPoF1ATnGeKouCBBx7EsmVLh9UjcbMs2Onz4O/twtan7h9Rs4Rz5X6grSJEIHmTF/hbZDbBNsxhY0BR8Xw4itfHUABtUVERFi5ehKlTp6KwsAgMwyAcDqGjowP79+3D3j17EYulL/SBUtw5vWT6jP19+0MGYYnXaVn8rsTxFwMo1aO9R0IRzDTzmoJjEyEs61JMpxYCA7CVVKVgACBgORMUSYQBrS+mccoaG8c+ApOnFCZPKSR/H2JdrUkHZKYDUUqxqasTm559FEUvPonZ9RNQecFlYKbNjX/gqKzFrJJS7OpNXEBy48aNp8SynIzJZeWglOL1O/4ORRphLSIMbFWTcv5RxzoakxaKA07XXumWFTwbjmJ1RIA8Rqb5osWL8Y1vXotly5eDHcF1GI1EsPattXjqySexft06qPqLXdZGbeEbAfwgE/c9JoU6+oPBaIHH3UlAPqrLZgRgryjjQpsZfJrM/CIo1qRIWCyeElgKU9PsEaMhg7DoAGEY07N7/HRwSbogpFgUYjRsDGgmFjeLHebiSnAOD6giQxUiOdGvqKqieXAAe7ZvwuDaV2A5egAOjgepqB7WKrJ//66k2vd6vcNvcmdfhKNrX8PxlqMjrzfl48AXlOb0s5V8fUPuoCRRyDK4xmUDIQRtsoz7AhH8JxDGMUkZE9op48ePx1/+/jf88Mc/Rm1dHRhm5FADnufRMHEirvzIR3DZFVegu6sbTY2N+p4RgLmewoKHfD6f3yAs8V5Kv39vkcc9HyC6HAVCKoVPUbHIkp64DxsheD6cmmmOszngqEgt9V0WYpCEqLF7aT3NdZ0e6+2uNwjLWABjtsJUUAZTQSkoKNRYOC36KakgICto6u/Dnl1b0Lv6JZgP74WN5UDKq0EIATduPAbeegUBjYqpZkIwadJ0rNmweuSxMllgq5sOQnI3vJEqMkJNe4EURDUvtVvgYFjcFQjj3kAELbIyJjy7DocDP/jRj/CXv/8NExpS024rKCjA5VdcgQULF+Lg/gPo7+/Xq3scQ+Ee9PteMAjLCChxudZSwnwZgC4BKM2ygnEchxpe/2ExE4LVUQHhFBZKwjBw109L6XdVWYIQCcGAhgVSVSD0tBqEZYyDcCbw7mKYi6tAGHYoxiWH6kGFlCHLy94929C1+iXwB3fDpigosJhxtOO4prZrbXbsP7wPsVHu1zZuStYKUCb2MlKEm/ZCjaa2pgVUimdCUbSPEaJitdnwpS9/Cf+67TYsP3tk90+iqKmpwSc//WmoqoptW7fq1dVZBc7Cx7wB72A6x2NME5aBQCDo8bjb9XINAcAuUcJyqwkORv8Txn5RTinwVpFEFE6em5Luh6oqiIX8MKBhjRSEYbUeDMIyRokLw4JzemAuqQZrtkIVo0nLuqcbEVVFq3cQ+/bvQmdXBySNFiG/JCE2ShucswDWygk5zFUoom2HIGmQegiqYyOY1ul04otf/hJu+fdtuOQDH4DNpq8WDsMwWLJ0KWbMnIl1a9dCEDSXq2HAgPH6fa+mc1yYsb74NLW2PgqCp/RqL6xS/NUbhJSGeT0+xaBeKkuQw4HUGKmR2qx9oVQEYxDykrgwMBVVwDllIRwT58JUUJaTqephHaxAo7ZACKxVuatoq8aiiDTuhjjYnddzclxtLX7161/j7Xc24ac33ICiYQpV6okLLrwAz7/0ImrGjdNjpfzSuHHjCgzCMtqmLJq+BaBHr/aOSQoeDOp/Cq7XongbSE2in+V4nAkCZ3LIDyVFUjcaFFGMd+Qzdv08Aedww1Y3De4Zy2CpHA/GZDmj7t9cXJkTGjankBRZgjjQiXDjLgQPbYYU9Obl2LMci4svuQT3/Pc+vLlmNb745S/Bbs/cs6gZNw6PPvE4xtVqEwkkgJ0H8/W0vqf58MCPdB7pb6ir+waleF6vNl8KxzDNxGOJjkG4dRpiY8TAIFA5PqVpxHIcFDm/VRqFgQ5Igz3gbC6Yympg8uiX5UDFeMHSBmHJNxCOh6WsFpbScZACAxAHuiAFBvKanBKOh6VifFb7QCmFKsagRINQwgHIIR/UaCiltOWxgomTJuHKqz6Cqz/6UZSWZjcrq6KiAo8+/jg+86lPoa21VUtT18+bN+8f27dvT8uGw+XLwz/W0vLChLq6B0HxBb3avM0fwgTejVJWn1CfYpaBmZCURInEkC/l32U4Pu8Ji3IisFiOBCA374dg74CtpgGs1am97Vgk7gnQQL7u4gS8uxi8uxiqGIPQ3wlxoDPnYl30gKVy/LDVyEckGKoyROJUBVRVQUGBk4otUlV5j2wQSkEVBVSV3/s3VAWqLEMVY1AlAaoQBc4AraOKigpcceWHccWVV2Lq1Kk51bfyinLcefdduPojVyEaSVECgKDG3zd4FYAnDcIy2osXtl8Xs4aXgEAXZ2xYpfjjYBB/KnbDrINvmwCo4lg0ScnLE4nB1AkLy/OQYvm9END3CWEpYR9Ch7fDXDoOlop6TbEJSmz4jARFNGJbzgQwJgusleNhraiH6OuF0NcJJezLi3tjrU6YCitOf58UGUo0NGTxiEVBxRgUMQbIElRFMtyhScDj8eCDH7oUV37kI5g3f/6o2inZxMRJk/CHP/0R3//Od1Nfiwn9hkFYEsD+vv2h8TXjP0uIugEAr0ebzbKC2/0hfN/j1KWP1SkSFkkTYTkzA28ppYj1tEIKDMJeNxWMxZ5KI/EtLJJBWM40q8uQnksZlFgYQn8npIGuIWvDGIW1euJ72YdKJADR1w85MJgT6sBjGU6nExddcjE+dNllWH722eB5fsz0/YoPfxgb1r+Np59KOZfl/PHjx09qamo6YhCWUdB0vGnr+HF1NxGC3+rV5tqoiCmmGC61aQ/Eq0zRvaRIAmQhAi6FUu8sm/+EhTFbocQpMKdEgwge3gZLZQPMSZY4UGKRuAJViiHINxZZ7JC7QpFAVRVQVaiKDAIKKisnXBsyKIbcGKDqkNuD4oQrg4LSoX9DVcBYbHHnXa7DVFAGzuaA0NsOcaAz67WXxjocDgcuvPgiXHbZ5Vh+ztkwmcbuuvvjn/0Ur61ciWAwpblNiKJ8HcCPDcKSCGlpa7lpQm3dBQDO1avNe/xh1HIcppm0DVm1hsBbKehLjbCMIXaf8kR2Fo64cVBVRbT9CKRAP2zjpoJJ0Ookh+LrIImGvk3GSIaqyENE4qR/VEUGVBlUUYf+LctQqTIkBqeciJegCqiiniAoiuHKeG9LYcCYrQgc2GxYCjXAYrHgoosvxmVXXI5zzj0XZrM5L+6rqKgIX//GNbj5b39PdYJ9saGh4ZfHjh3TdXJxeTqPVIXgSyzFTgAePRpUAPzNF8TNxW54NPggq9jUvysGfbAWVyZPWLj8t7CYS6og9h0fOjWPREACgwj+f3vnHd7YVef977lXzXKRuz1ucpvxTKZkWpJJL7AQWJaEQEInhLIsPLRQXtj3Xdqy8MKy+1KWDfDy7lK2kKUlIWRJJY308UymeKokS7ItV1m2unTLef/wpMzEtqR7r+Qr6/d5nnkCts711Tnnnvs9v/MrJ56Fs2czrK7m3IJllaM4PX5FlYgqS+CKDMhZqLK8JCLO/Iwr0ksiRFkSHy+KkzI+cjGvCFQ11eIhAFEUcfEll+C666/Ha659bUlDkEvJu2++Gf/v//4Y0aimdBEtXJbfBOB2Eix54Pf7/YM9fe/hjN8FgxKRzCsqvhGJ46uNdbBqvGKHRYQAaCq0pfUFySwWMMbWdYigYLXDsaEfqQlP7rValpDwHYGtoQ2OrkEIKwg6rqqQV8n9sF7zQuSn4BWochaqlD0jNqQlkSFnwWXpjDiRloSJnF0SIWTdIMqYbdu347rrr8Of/8VfrHkYcimora3F29/5DvzoBz/UuEPBe40WLOs+o9iA2/09gH3MyGte7bTjEy7t9Tb+ciaCGaVwyVKzwY2OS96gTWyNeSBXQNXmxOhRSAuz+T8AogWO9j7YmjvAzrGcZSMzSPpHVm3f99p3wVrjyvvvJRfCiM9Pm7LvuCIvCRBZApeyUOUsuJyFKmfApTMiRFr6GVk9iErA5XLhTW++AW97+9sxuHFjxX3/YCCAV111tdbNhqIwdPn9fsPSE1vWe4fXNzd/emEufAGAfUZd8+FkBr0WEddVa6u52GkRNQkWPUcQgsUGVIBgcbq3ICFnIefpX8IVGamJ08jMBuFoc8PW0A6ccYzOhidzC6SpAOoHd5i6T5aESAZqNgsuZ6Bm00tCJJtZEihSZimnTAXkwSCIfNi6bRvee8steP0b/nzd+KVoocftxsWXXIInn3hCS3NRAN4G4DskWPJkeHhYGuzufhcXxGEALqOu+7NoEh2iBRc4Cndo7bKIOJgpPAFVNhkFV9VXWALymjlWK1ABQS1MEFHdvwPxk/sLiuJRsxkkx04hNeGF1dUMS10T5HjuI5/ElH/tBAtXocoS1Ex6SYi8KEqyUM78jEtkDSGIvNYOxnDFlVfiA3/5QVx8ySXUIWd469vfplWwgHH+TiMFC6uUTu93u9/MwH5t6G6eMXyz2YVuS2GRP39IpvGjRW0hhL2veQdstYXXlzLzUUQxUNMJRE8Nn5V9s1gCqf/Pb4Fosxs+DkuWkTR4JgM1mzojSDJQpfSSlUTKkl8IQRjAVVdfjU9+6lZs276dOuPcjXI2i8v2XYz5+XlN7RWGLX6//4QR9yJWSqdHFhePN7nq68GMOxqSAAxnJFxeZYOjgEyqCZXjkZS2aC9na5cmwaLIMjJFKg5oyt2SxQZw5GUl0Wfl4BBtDlQ1b8hvzqRTyKaWxCqXMlBSCSjxRUiLYWQj08jOhZCeDiA16UVmyo/sXAjZyDSk6DzkxCKUdAJqNrOUI4QgCF3s3LUL3/3+P+GvPvJhtLa1UYcsJxJEETMzs3j+4EFN7QXwhcji4sNG3Iulkjq+K+j/7Ji7dxcMzM8yoyj4u/kovtaUf/p+PbWJpIS23B9LVZsrC1tTO9KTvqL/nQXP86gf2AbhnD5WpAzkRBRSIgopGYWUiCG9EEY2sQieTeUMwSYIojjU1dbis5//PN769reZOlV+PhvRWCyGTCaD5pYWiGJxbBCve/3r8JN/+Ret28d3APgiDKgWW1GC5RFA7hPYWwVV3Q+wLqOu65EU/MNCDH9dXwshD9HSIgraQ5vj2rJqVkLyuFcoe6sdTBCKLgzkdBJTww/B6qxbEibxKORklGoNEYQJ2bfvQnzq05/G1h07TCtWFEXB1NQUxoJBjAWDCAbHEAwEEAqFEI1GEYvF0N7ehiuuvBL7Lr4YO3ftKppYAZYsUW3t7Zie0hTw0z/gdl/sDQSeJMFSIKOjo9ODvb03co5HABjm/v1cWsJPYim8vy53JlorA+pFAfMaIoXkpLZjHUEU130ulnPhqloyK0Z83EtvAoIwMRaLBe9//y140w03gDGGbCYLu92x5velqip8Xi8OHjyIA8MHcOj5gxj1jUKSXhmY0dDYgBtvuglvvP56bN68uXSbP0HAa177Gvzbz36ubS2G8E4AJFg0WUT8/qcH3e5PcbB/NvK6dydSaBMFvKE690PQKoqaBIuk2Q+FgYkWcFmqmHGWY/MgCIJwOp346le/cpZTbXYNLaDHjx/Hww89hP3P7cfzBw/mzCa7cdMmvO/978NfXHcdHI61EVmvvfZazYKFQb1pz549nxweHtb1ArJU6gT2BAK3Dbp793LgFiOv+6/RBFwiw+UOew7BIkCL27SUjIJz/mKF1YJUsigu5duoADjnyEwFaKUmiAqnzlWHr3/9a9h4TuK3bKa0eamOHjmCu+64E/fdey9CoVBebQY3bsTHPvFxvO71r1/z46sLLrwQjY2NGqOFWPPi7Py1AO4mwaIRV3PThxbmwv0w0AlXBfCdSBw1jQJ22a2rChZNL2JFgZJOwFJVeKZd0WKDnEmv+3FVZQmp4AnNx2eEObHb7XA4HGCMobauDgBQ7XTCcsY/q6rKkVeFXEVREY/HAQDpdBqZzNJOOx6PQVVUKIry4u+JIq29LhdqampQW1sLV3096uvr4ap3oaamFlbrS68lSZIRicxjMjSJEydOYCFSeNTfm9/y5leIFQCQSmBhicfj+PUvf4X/uv12nD51Ku92TU1N+NRnPoMb33qTafxsRFHEq1/zZ/jl7f+l7d0F/k4SLDoYHh6WNnVseotizT4DoN+o6yoAvhGJ4W8b6zC0QnVnfZFCMU2CRRDXbxQ75xxqKo7swgyyc6GlInuEKRY5l8t15oX00ovJ5XLB6axeemnV1aLaWQ1ntRNOZzVcrjo4q6tR7XTCUVWFmpqaojoUrkQykUQ8HkM8kUA8FkcsFkMsGkU8EUc8Fkc8HkckMo/wXBjT09OYn5/H7MyM1mJxFcEvf/Nr7N6zR3P7j3zor3D/ffcV1Ob4yPLlNSRJgqqqRREE01NT+NEPf4jf/OrXSCTyz7lltVrxnve+Fx/9+MdQW1truvG76uqrNQsWMPxFR0eHMxQKJUmwaORU6NRcX1/fDUzlTzDAsLKbGc7xtUgUX29yoWuZxHKtOqo2S4lo3nk/zhYs6ydSiMsSpHgEajIOJRmFnIyRSCmFALGIaGpsQlNTE1rb2tDY1Ijm5ma0traisbEJjU2NaGhoeFGgmHHRzRdntRPOaicKLXOXzWYRDocxMz29JGZmps9EegQxFhzDWDBYsaJmcXFRV/tPf/YzeOjBB6EUkIfo0KEjUBRlWdErZbOwG+gTEg6Hcdv3v4/b//MXL1ru8uWaV12Dv/6bv0FfX59px++SSy+FxWKBLGtaa51VNttrANxJgkUHo6Ojh/rd7vdgKROuYdl/oyrH385H8fVmF5rPUfGtFn2CRQvlbmFRMylkwyFI0XkoKTLZG80LImTDhna0tbUv/e+ODWhra0NbWzuampvQ2NioyX+qkrDZbNiwYQM2bNiw6ot75MgRnDpxAqHJSUxMhDDq8yIQCBb8ost/AWCwOetgq62HxVkHi8MJsaoaomiDYLWCiRYw0QLRaj9rFRSsdgAMUf8xzB7RF+gxOTmpq/3A4CDedMMN+PWvfpV3m1QqhRMnTmDr1q3LiMuMIYJFkWX8+7/9O7777W8XLEY7Ozvxpa98Bde8+lWmn9s1NTXYtXs3nnv2WY2LOK4nwWIAvkDgtwPuvi8C/KtGXndGUfHFuSi+3lyH+peJlmZBey4WrYKlXJPHcVVFOuRDdm6cUtHreIl2dHSgs6sTnV1d6OzsQmdnJ7q6u9He3obWtra8/D8IY3C5XNi8eTPaWlvOfvEpCiZCIfh9o/D6fPCP+uDzjWJmZrbw593ugLOlG1VN7XA0tsNe36ypDtmL2+M2N6BXsIQmdffdxz75Cdx5xx0F7fIPHnx+ecFigOPt6VOn8OlbP4VjIyMFrscibnnf+/CJT34SVU5n2czdK6+6UrtgYXjDVYDlEUCTiYYEy8vwBkb/bqCntwsMHzLyuiFFwZfmo/i7xjrUnlkwbIxpzsUiac7FUobDzTmSo0chRcM0QXPQ2NiI3r4+9PX1obevF51dXeg686+ltZUsI6ab2q8U36Iooqe7Gz3d3bjiyite9qIP4b3vfV9e161ud6NxaA8cTW1gzDj/DLurAaLNASWr3XF/cjKk+z46Ozvx+j//c/zurrsKEizvetc7l7Ww6OFnP/kp/v4b3yjYKrZz1y589etfw5YtW8pu3l5x5ZX4h7//ltbmTWNu9+UIBDSl6ifBcg71LU0fWwyH+znHnxl53YCk4IvzMXy1sQ41AnvRylLKXCyCpfyGOzM7TmLlZdTV1aHH7UZ3Tzd6enrQ3d2D7p4eDG0eQnNzM3VQmQuWldjQ0QG7w4FMOrdYcLZ0avJxy2d7XNXaqStJYmgiZMidvP+DHyhIsJw4fhyZdPoVxz/ZrDYLSyqVwv/83Odx9+9+V/Cm4lOf+Qxuettby7YkwJbzzkNraytmZmY0TiN2HQASLEYwPDws9ff338gU9QkAW4289qgk4+uRKL7UWAc7Y2cdERWCkk6AqwqYUJhPChMtS2fT5XKqwjnS05WXS8VZ7URv75KV5IX/9vX1obe3Dw2NDfSQrhvBUthmpb29DQF/Ps9D8Sxp1S36BIteH5YX2LptGy686CI8+8wzeX1elmUcHTmOPXt2nf1zDZFCc3NzeP97b8HI0aP5v2gtFrzrPe/Gxz/5SdSdCckvVxhjuOSyS3Hnb+/QOPFxPYBbtbyJSLAsg8/nW9zU1fVaRRSfNrLmEAAcy8r4ynwUX2isQ6PWXCycQ07FYa12Fbg/WjoWUuXyiKaRk/F1nZm3uroaGzdtwtDmIWzaNIRNQ5swMDiI1tZWegjJwvJKK0u+goUVb0fiaGzX1X5qctKwUOJ3v+c9eQsWADh96uQrBMsLVpZ8s8fOzMzg5ne9u6CcKhdfcgn+5otfxNDmoXUzdy+88CLtggVwD7rdOz2BQMHln0mwrMCp8fGJgZ6e68HwCMBqjLz2kmiJYZtNe/fLqUTBggUARNFaNoJFzSbXxVyyWq0YGBjApqEhbHpBnGzaiM6uLvIrIcGSN23t+YkFVkQLi72uaWnTozGFgCRJmJubM0SUv+rPXo36+nosLCzk9fmTJ5cXGVI2k5dgmZmexk1vuRHjY2N5/b0d5+/AJ269FVdeddW6m7sXXnSRvgswdj0AEixG4g0Ghwfc7usA/DcMLJQIACeyEsKK9sJ8UiqOKg3tzOh4a6uuRU19M5goLjkJMgZBEBENiMhMjkLNpldd3JkgQLQ6INjsEG0OiDYbBJsDos0BwWKHYLVBEC0QbQ5AtJwT3s2hZrPg4FDSKciZBKT4IjLReWTjEUDN/6UiCAK6ursxNDT0MsvJJvT198NioUeN0GthyU+w8GKKYEGAvaEFqTntRztjwaAhgsVms+Evrntj3vVtTp1eXrDkEykUjUZxy8035yVWLtq3D+//4AdxzauuWbdzt7evF83NzZibm9M493E9gC+RYDFatAQCfxzo7X0vOP4DgKFeUrMFJD96hYUlmdC23pjwxZlNxBCTFdS2dkB82f3VuYdQ5x5aymKbTUOVz15YmGiBaLGBFSlcm8sSknMhJKaDiI95IGdWtvhccOEF+Nef/rSswhOJ9WlhKbaPmqOxTZdgCQaC2LN3ryH38pYbb8xbsMzNziE8P4+mxsaz158ckUKKouCjH/4ITp44ueJn6hsa8LrXvQ7veNc7seW88ypi/u7evRv333+/1uY7NvX09J8KBn0kWIwWLX7/7YNud6PR1Z31IKdj2gSLSUObpUwSkXEvapraUFXXgJc7DjLGINqrINqrSnpPzGJFdbsb1e1utG6/FBPP3ItEaHTZzy4uLpJYIUwhWIwMZV5WsDS06WofDBrnSL912zb09fVhdHQ0r897Tp5G08UXnWNhWV2wfPfb38GTTzxx1s9EUcTQ5s244MILcMWVV+LSyy6rOCvqrj26BAtUQbgOwLdJsBQBTyBw24C7rxPg/9MUgkWjhUU0cS4Wzjlic1PIJuKobekwlzVIEGCrdmGlXjcqXJOoIMGiFiZY2tvyFApFdouy1zXqap9fpFP+vPbaa/HDH/wgr8+ePHUSF50jWGRZXtEROJvNoqurC3/39a8DAFpaWtDR1Ymenh5UV1dX9PzdvWuXzvUebyTBUkS8gdG/GXC7WwH2AQOXLU0rjJzWlpqelUHyuEwqDmnci9qWDtirzVOLxuJY2YISj8cRjUbLPmSRKKFgKfDsprq6GnW1tYjGYmt637baeoAJANfmgxcIGCtYXlOAYDl16vSyP89mM3A4XmnBtdlsuOltb6XJugzuvl64XC499aEu2dHWVn14ejrv3bdA3V7YGuMNBD4E4BfGXVLbdkizD0uZ1BNSVQWL02NYnB6HqsPXx0hE++pHPqEQWVmIQnaYhTubtLS05LGkFNnEwoQl0aIRI4+EAGD7ju3o6OjIb9PpW95lwogU/RU4gbF9+zZd2jfucFxZ0PuLer3wd2l9c9PNYPjdWt6EkkmCq4XvcApNNrfWZBJRRCZ8yKbWPsTZ4ljdh2aSBAtR4IJfKK6GelPcuq1OewLDyHzE0GrVjDFcdfXVeX12PhxGLP5K67SUzZS8DzOZDGamlyp5v/BvYmKibCp5qyrHtu3bdV5FKKjiIx0JaWB4eFjaunXrjel44k4Ar1ur3ZmcTsDqLOzIRBDKr2KzIktYmAygqq4eNU3ta5a7RHTksLBMTNDDQeT/DGto09CQh1BQi5/K2l7XhDi0Z7wNBgIGvOxe4tLLL8N//sd/5PXZsWAQ550TyVNMC0soFMJzzzyLI0cOY9Q3ioDfj+mZGaSSq2/C6urqUFtbi9raWrS2tcHd64bb3Yvevl64e3vR1dUFq3XtCtqqqorzd+gbQ8Z4QSVwSLBoZGRkJNvR0fGWKqvtvwFcuRb3IKfihQsWUSzTHudIRSOQ0knUtXbCYnOU/A5yHQkZUYmWIMWyumCpz+OyatFv3abX8dZgwXLxJZdAtIhQ5NzHx8sKFslYweL1eHDXnXfh93ffjaBGn51oNPqiteXEiRPAo+esR6KI/oEBnH/++Th/107s3LULmzZuPCs1RFE3koqM3r4+1NTUIB6Pa30GtvX29rb7/f4pEixFJhQKJQcHB9+IrPwAZ7hwLQSLBkkLJgiajpPMgJzNIDIxiqq6RljsDohWGyw2e9FDOZcEiwOMCSvWgDGqTgpBimUl6l15WFh4KSws+gTLqG/U0Pupq6vD9u078PzB3MlTA8FXJn/TUlNoOU6fOoX/8w//iAcfeECTj1JhgkHB6VOncPrUKfz6V78CAFQ5ndixYweuuPJKXH3NNdg0tKl4f1+WIQgCtm07D08//axmI4vA+TUA/jOvDTctGvrweDxR1SK8BsDTZSFYUH5+LK9cjzmSi2FEZyYQmRjF7OgJzAVOIhLyIzY3ieTCHDLJOBQ5a2gOLcaEpWy5KzAxMU4PBFHQPC6KhaUER0JWZx2Yjpe7z+s1/J4uvuSSvD63Uli1pMPKwjnHD2+7DW943evxwP33F12srEQqmcQzTz+Nb33zm7jxhhvwgVvehwcfeABKEcqxyGesWdu3n69vXeUs72MhsrAYgM/nW+zv77+WKeq9APaVTLCktTmiCoIIFeurqKCqKFCVJKRz+oQxBsFqg8VqX7LGWG0QbXZYbA5NvjCio2rFjLd0JEQUm/yqdRfxZcmBdGIB8cgsBHsVlJS2aEWfz2f4re3Zuyevz40Fg8sLlmwWdnvhR82qquLWj38C9/z+9yWZA4IgoKmpCc3NzWjfsAFt7W1oa2vHho4NaG9vX/q3YQNqamqKdg+qqr5oad62bavOnSBIsFSCaFEyKW0TXqwcwxrnHEo2A2WZKADBYoFotcNqc5wlZlbLBmxxOJFZDC/7u6npKSiyXLIzZKLc52bhbepdrjyua/xxLweQTUQRn5+FIi09S6K9Wodg8YJzbqgD/a7duyEIAtQcx90zs7NIp9JwVJ0tTrJZbRaWf/zWt3SLFYfDgTqXCy6XCy5XHZqamtHa1orm5ha0tbehqakJbW1taG5pQVNTE8Q19kWUpZc2vAODA7BarZAkzZvgzt7e3s1+v/8ECZZ1LFpkjaG+jIk0WABUWYYqy5DOWXQFUYRosUG0vWSZEa12WGw2CKuUB1BkBTOzs9iwYQN1LlEUS0heUUJGHkdwIJ1YRCIyC+WcIxNm014PNplIYmpqytBnxeVyYWBwEKdPncq5iZmYGMfA4OArLCxa+KuPfATvuflmJJJJJOKJZcOSVVU5Yx0R4XLVQbRYUFNdDbvdjjqXK69q0Wbi5eLOarVicOMgjh87rvl6ImevBkCCZe1EC78H4Jea0cLCBHJdWlXIKApUJQXpnP5ljEGWV1/UJsYnSLAQeVpYNORhqa8HY2z1tgYIFlVVkIkvIrkQhiIvv3MWrPpesl6P1/BnZfee3TkFCwCEJqdeIVi0WlheCD2uJM4Vd1u2nKdLsIDxywF8P9fH6M1VJNFSnU6+FmAPkWBZZy8YYXWNHwpRLhaieIiimLOGjXaHTw4plUB0dgLhwCnE5qZWFCsAINj1CZbRIvixbN68Ja/PLRfRp9XCUomcGwa+9bwt+i7IkVeMO725isTh6emEo8b5egB3FOtvyNmkpsWJBIt2BIsjh2ChbLdEcanJVXSvAB8WrirIJKKIzoQwFziFyGQA6dhiXuuKoDMXkrcIkUKbt2zO63NTywgWzrmuSKFKQjqnwvWWPPt9FTb19vbmnFB0JFRERkZGsgBuHHC7fwKwdxv+B1QOVcqsGmpLgsVYmNW2+s6NIoWIfMWCRktILguLnElCzqYhWmwvPuucc6iyBEWWocpZZDMpyOkUZCmtOahIr2ApRmjzpqGh/ATL1PLPqZSVYM3xjNO85a84PmtqbkZrawtmZma1Xla0cL4FwEESLGuL4g0Ebhl098ocuMXoi8upZMGCRRDI6VYrQg5Hw0k6EiKKLFiqcgiWTDyG+XFf0e+fiRYw0QKuaMvx4fMZL1hcLhfaN7RjanL1xKmTU8v/PpvNwJnLglXhZDOZZefuli3nYWbmUR0bcKE7l2ChrXaJRIsn4H8/wP/B8AtnNIQVMhp2zYLFurpgCU3QkRBRXGpqcviwqKWrbi7oiBSanppGIpEw/J7y8WOZnppZtgo8+bHkJpNOL/vzLXr9WAQ1ZylyenOVcEPlDQQ+yzk+CRhX7EPW4HgrkGDRsa1kYJaVC46RDwtRbHI63Zaw7IaeYyHOeVEcb4c25z4WUhQFs7OvPL7IkmDJSbpYgoWxVhIsJsMX9H+XcXYzYEyqWVVDtlvyYdG5SK9iZYlGo9oLgRGVs3vREXpcXe3McfHSCRZmq9LV3ruGfizLHQuRhSU3qRXyfw0ODMBu125xUznIwmJGPMHRf+dceD2AmN5rabGwGJldsiIFS45dJR0LEcWkuromh14poYXFatfVvhiOt/mGNs/Nzr3iZ4qiQFEUmmQrIGWzZ2W5fTkWiwUbNw7qkb85JxMJljXCF/Q9KCzVUJjVcx0lrSEXCwkWfbvKHFEElIuFyIUuC4szV1hzCX1YrFZ962ARjoT6B/rzSl0fDodXfCkTy5NKrm7R37hxo/Z1lfOcg0aCZQ057fc/YwG/CIDmWFhZSmuZGtT5ehZpSw7HW/JjIYpILqfbUh4J5XoWcjHqNV6wWK1WtLTmPF3A7NzygoX8WFYRLDnKwfT29urYCfKceoQEyxpzMhAYVbn6P7S2V7OFCxYmkGDRtUjniIwIjZOFhSgeVc6qHHqlhD4sOi0so6OjRTmC6erqyvmZ8Nzcsj+XlimUSpwRLDksLL39fdrnEnIXuaM8LCZAFIQxrRZiJaPBwkJRQjoX6dWPhALBAHUSUTzBYjeRYLHoS7KWyWQQmphAd0+PoffV0dEJYP/qgiW8vGAx0sKiyDJOnT6NgN+PyVAIExMTWFxcRDqdRiwaPetosLq6BtU11WcqNtejpaUFXd1d6OrqRmdXJ6w6xaFesplMTnHZ53bnrnW10rzlyNnxJFhMgMJYRNCoWFQNuwFyYdFHLqfbYCBInUQUDXtVjmOYkh4JWZcWFB0+OaOjo8YLls7OnJ9ZzukW0O/D4vV6cc/dd+OpJ5/E0SNHkUql9PezIKC1rRXd3d3o6u7GwOAgtm3bju07tsPlcpVkrJPJ3Dlz7A4HamprEVumYnXuL4mcjUiwmAAxK85zi7ZskXI2jaXc2oWoEFIsusYrR5XagN9PnUTk2DRofwarHI4cekUt4RcRlrLdytqzNPi8Plxx5ZUGC5aOnJ+JLCxAVRQI5zjoyrIMznlBY8Q5xwP3349//qfvY+ToUcO7WVVVTE1OYWpyCs89+9xZv+txu7F9+3Zs37EDO87fgZ27dsFmM768QDyWX1BrQ0ODNsHCWc4/QILFBDjlWCRh0ZjPgKtQZXlpp5O3XCHBok+xiBAsVqgrLNLxeByR+QgaGhuorwjjLSwO8xwJAYBgta1a1TkfC4vRdOZhYVFVFfPzETS3NL9CfMhy/jWFAv4APn3rrXj+4ME1mQ/BQADBQAD3/P73S4LW6cS+fftwxZVX4vIrrkBvX6/uvyHL0ooZbs+lsaEBwYCGY3HOycJSDhyenk4MuHuzADTJYiWbLkiwEAZsLG0OYJVFOhgMkGAhikKVY/UjIcZLLFgsNijQnmK/GNlu8xEswJIfy7mCBci/COLI0aO45T03Y35+3jTzI5VM4uE//hEP//GPAIDunh5c86pr8Oa3vAXnbd2q6Zr5WlcAoM5Vp3EiYZEES/mwAKBVS0M1mwactdSDJd1V2qGskvcvEAjg/J07qaMIw7HnOhLifMmnpFTOajqrG/uLYGFZcrrNzexcGMvlxZWk/CxGW7dtw7MHhhGLxRCNRpf+LS4u+79j0RhS6RQymQwy6TTS6QwymQxSqRSy2SxSySQkSUIikYAsy4b1xVgwiJ/95Kf42U9+ii3nnYcbb7oJb7z+OtTX1xdFsIhaM6lzPkaCpVx27MA81yhYFArDK71gsefyY6FIIWKV572IPixLa78KxkpTlV1vLpbJyUmkUilUVVUZdk/OaidcLhcWF1fftK/keCtLhTne1tbWora2Nm/LTj6sJFxisdiyx36yosCyTMI8xhhq6862elgLsMjLUv7HQYD2WnWqIOTMB0GCxSRwIKK1rVJgLhYOTh2u28LiyLmrIYhiYLPbc4eOqioglEqw6HuNcM7h9/uxZcsWQ++roaEhp2BZKbRZykprPs4rFbksVVTQCxRiXQEArlGLZzKZnBYWSshhHkomWAgDdsg5kscFAmRhIYo09xiDLUeROa6WLj0/E/X7zxUj4219Q24fsvAK2W4libLdvkA0uljQ57UdZ/G5UCiUs5IvCRazLEJgmgWLSoKl5Ig5qtSShYUoJjlDm0tZsdkAh/9iRAo15CFYZlfIdmukD0k5k0olC85LE10sPKSZcZaXYiXBYhI4VB0WlsJ8WCisWT+5ksfNzs7mTGNNVPgmRYcfSy7HW5Q0261+z4LR0WJYWOpzfmal9PyqqpZU9JmV6OJiwW005WBhGCHBUl6Ll+a4OFUuTAHTg2jMrpKt4iPAOUcwOEYdRRQFR47QZpTySMhi0iOh+jyOhObDK/5OlpWKnmOqqiIRixfcbkGDYOHgJFjKanLo8GFRpUIFCzndGkGuIohBqilEFIkqe65st6V72QqiOY+E8gnbTacziMWXfykrSmUfC0UXFwre3GbSacyHw1p27HkJFooSMsuOXY9gKTTLJFlYjBkzqwNIr3zsEyTHWyLXU68xYi+n020prQMGCJZoNIpwOIympibjBEseR0IAEAmHUVtT84qfz0xNwWKxQBBECIIAQWBgggBREMEE4czPzv738p+XM5xzLEYKfyUFx8Y0bYiZZMmrngEJFrMsXQqLcEFjAcQCj4RUlSwshuws7XaskjuOiiASOTaV2msGOnL4sKhq6awDTBDABFG3VWfUN2qoYGmozy/T9Hwkgh63+xU/l7JZXYUQlxMx5/5sSfywl/1OPPN7BoG99FlW4oq18VhMk+OxxvxT054JzzgJljJCASJaNblacAgeCRZDBEuuIohkYSGKhD2nD0tpjzOYaDFAsHix94K9ht3TucnSVhQs85Gi9ImqqlANcn5m7AXrzktihzEBorj03xdEzkvWH3bm90uC6MXPMAaBsVcUfDyXhYg2l0qPNl+kJ/L9IAkWs7z8IEQAbQ984T4sdCRkyJjlCG0OUmgzUSQcZjoSwhnHW0lfxm2/AVXOFUVGPBZDMpHAwvxcXm0iJqoDtPKazcEVBapi7LgKogiBsSUhc0YEgQHZjLaxPHz4cOFzB5wES9lhwyI0borIh2VtEHO8NCYmxiHLMiwWesyIZbfNmpvmrthcYguLAZFCPo2RQpxzJOJxxKJRpJKJF30obHnWOIosRCp2CqqKAqPeBvF4XGtdqKdIsJTbyy8lphSrNvWsFGphUUiwGLJI5zgSUmQFE+MTcPe6qbOIZXaW2qmqymFhUUotWPS/SnwFVm1OJZOIRheRjMeXPXqx2/MTLMU6Eqo0Dh8+DKVwC1AKVusBEixlhlWyphWrRgcvroIrCpiYX+0QRVWoww1AsNpyek6OjQVJsBCG48gV1qyU9hkXRJvua4yfiTBZzcFUURTEoouILi7mdIi12vMryqjVX4M4m8cfe1xLs0c9Hk/e50+Uh8UkjMyOpPS0LyRSiJNgMWhbKUCwrL5Qk+MtscoE0twydy2hEucQEfXvfTOZDGZnZ5ffhqdSmJ4MIeDzIjw7m1f0jt2Wn2AJh0mw6CWdzuDJp54qvCHHHwr5OFlYzIMCQAKg6TBYlbIQ7fmVZy/17ms9I9gdUFdxNqTQZqIIegVVuaKESm1hMcCHBViysrS2ti6tU5wjHothITKvyQk07yOhCB0J6eXZZ55BOlV4TTuuCgUJFrKwmEyoam1YiIVFJcFi3DsnR00hv3+UOokwWq+sS6dbABgfH4ciy5gPzyHg82JmalJzxIrNlp9giUVjWnwviJfxu7vv1tCKe3zjvtMkWCpSsOQfKaTSkZBh5Kra7PN4qZMIw8kd1lxawWJEen4AOHX8OAKjPkTCYd0iwmKxQMzDr49zjgg53mrGc9qDI4ePFC5XwApWOSRYzIVmP5ZCBAv5sBi4UOeIFAqOBZHVkS2TWL/oyV5qM1EtoTPqwJDLBIJBQ2udWa353RcdC2nnN7/9rcaXlvALEizlDIfmzEuFhDGqFV7Uy9CXjj13aHPAgIRYxLpULJqb5gxrVtcgcZwBzExPrclQUGizNoKBAB555BEtbyyPb8z3HAmWsl7AdFhY8hQhXFXJh8VAxByCBQC8dCxELKtX9CSOyzHvOC+7is0AMDU5bfAeML8+ptBmbfzwh/8Xqoa8Xpyzf9M0z6jLTbWESZofzDxFiCJL1M1GLtRWe86dssfjoY4iDBUsjjyEMkppSRUtuixGLzA9M2NY/Z1CIAtL4Tz77LMYHh7W9LpiqvifWhpSWLOJ4OCy1kc+3yMhlQSLwW8dAYLNATWzsnHMS4KFMFiw5AxrPrMmMKu9ZN+FiRZwneuLLMuILCygqbGxpGMRXqN6QpIkIZ3JIJNKQ5YlJBIJKCpHPB6HosjgnMPysuM2Z7UTTqcT1VVVcNXXr1nZj3g8ju9995+0Nn/YO+7VtCiSYDHTAgYma62knO+RkEyCxXAEW9WqgoUsLIThgqW6OrdgUUud7dZqiAU3Ep4vuWDReyQkSRKisRji0RiisRhiseiZ/x9HNBZFNBpFPBZDNBpDLBpFNB5DPBZDOq2vYGRjQwMam5vQ3taGvr4+uHt7MTjQjw0dHUXtr9tu+8GKSf5yz3t8T+vfJcFiIjjnitY1LG8Li0QRK0Yj2qsgx1b+/ajPB1VVIQh0AkuctUHR3Lba6QRjbNWIGlVWIJby+1itQEb/dcLzYQxisKRjcfjQYXzxC1+CzW6Dw26H1Xa2T04mk0Umk0EykUA6nUFWyiIeTyCbTiOZTmlKmmYE85EI5iMReE578Kc/vVT0uLmlGbt27sTu3btx0b6LUJ2HwM2Xh/74Rzz04ENam/s8fv/vSbCsix0XNB8652thIR+WYlhYVvcnSKfTCE1MoKu7mzqLOOuB1yySRRFVVVVIJpOrWFhK+6wzA+oJATA0J0q+XRyNxfDMM8+sm6k1NzuHBx54EA888CDsdjsuvfQSvOWmGzHQ36/rusePHcd3/s93dIh0/s9YyupOgqXc4RxysS0sSjZNHW20YMmjJILH4yHBQpzzMtXnpFpTU726YClxNCCzGhMpNBcO675GeG4Oh48chSxVbgoHu92Obdu24YIL9mDPnj3ocesrwjo1OYkvf/krevJKRVRR/Bc990CCxVwbLs1PVz6ChXMVskxHQmshWLweD666+mrqLKLg3f9K1NbUYmZmFT+CEudbYgaFNkc0FiMMBgJ49NHH8Njjf0KwwoqOCoKAzo4ObNo8hM1DmzG0eQgDA/2GOeVOTITw+c99DgsLC9o35Ax/7/P5FkmwrJsVDLJGn1uoeaTilrNZrT69hE7B4qFcLMQrBIs+xeKsqc6xJpT2SEgwyMJSSMROIpHAI488ivvuux8nT5yoiHlTV1uLvv5+9PX3otfdi76BfvS53blz82gkGAjg85/7a72RVJM1qdQ/6b0XEixmghfXwkLHQUV68QgimMW6akgnhTYTRguWmuqaHGtCqX1YDLKw5HgxyrKM/fsP4NFHH8GTTzyhO9LGrIiiiI7OTmwcHEBffz8GBvrR19uLxqamkt3DU089hX/41j8iHo/r3Ivzrx2enk6QYFlXeoUntUYOZOMLkOKLsNa4Vn7QSbAUb3dpq1rVodnnJQsLYbBgyWFh4SW3sBjjdHvuTn5hYQFjY+Pwerx4/vnncfjwYSQSiXU3HxobGrBtx3Zs37YdGzcOor+/r2hWk5ybW0XBT3/yU/zqV782orbTSXtNzY+NuC8SLGZ66YHFtE6NbCyC0Qf+A3VdQ2jcvBe2WhcJllLuhuxVUJLRFX+/sLCAubk5NDc3U2cRBgmWXBaW8vRhCYfDeMc73oVsOg1JkdcsZLjYWK1W7NmzC/v2XYzt5+9AV2enKe7r0KFD+P73bzPKD0hVVfbBkZERQ5wnSbCYCA4eh47cDFA5osETiI2dQm3PxiXhUlO/dG3OIWVIsBRNbObpeEuChXhJsOjLy1NTW7v6elKmFhZVVRGem1uf64Qo4OJ9F+Oyyy/Dvn0Xwel0mubefF4vfnH7f+GxRx8zbo4DPxodG33cqOuRYDGTYOEsbkA5DnCuIho4iVjwNGq7BtG4ZS+Y1Q6+BjU6Kkew5DbdejweXLRvH3UWcUaw6HvYGxoaTCVYYLHlTGZXqTiqHHjdtdfiTW++AW2traa5r0wmgwMHDuB3d/0OBw4cNPqNNg6r9fOGTjGaSmZ662HWyCgezlVEx04hNn4ajpZuWJraITqqqZ+LMXS2/CwsBPGiYBH0CZbGxoYclooSHwkxBlhsgJShwX0ZtXV1+NIXv4DtO7av+b2oioLRQACnTpzE/v378dz+YWTSRbG8S4IgvPO0xxMlwbJeX3oKm+CC8bsTzjlSM0FgdgzW+mY42vogVpFwMXTs8jgSIsdb4qw5o/NIqCFXvR1FATg3pIpyvog2G+TyFiwLeDH5A1cA9sIL9wV1yADUF3LBWDSKz3zmsxjcOIh9+/Zh27atGNy4EbU5fJD0Ep6bw/jEBCbGQwgE/Th58hR8Xh8ymeKPDwP/5OlR/2NGX5cEi4lQwUKsmIlSOIcUmYUUmYW1oQWO9n6IDid1vBEvH4sNYALAVz52oyKIxFmLul4LS0PuAoGqLBnmW5LXd7LYAcTM1tVZAB4AfgYEVI4AExAA59MMWJAZiwBY8Pv9C/lesL+n93OM4RuF3ITntAee0y+tAW3t7dg4OICOjg40Njagrr4eTY2NaKhvgN2+NGZWqxW2M5FCiiwjnUohlc5AliXE43EkEknMh+exuLiA8Pw85iPzmJ2Zw8TERLEsJ/m8aH7sCQRuK8aVSbCYSbCI6rhYouNfKTILaWEOtsYNcGzohVCiMvTr9+3DINodUNIrp0qfnppGPB7PGd1BVMqU0WlhaajP7TOiSEApBcvaryNJAE8D7CDjOKSIONTY2Hh8eHjYUIcewWb5DpfkDwIY0HqN6akpTE9Nrbdp/QdHTc1Hi3VxEiwmwu/3Tw24e2cBtJRGCHNkwyFIkSnYmjrhaHeDWaw0EJoXsapVBQvnHF6vF+effz51FgFBp4XFarWitqYG0VhsFQuLjFLWCBdtJRcsCgf2M7AHAfUhZrU+6fF4zjrzGB0dNfyPejyezGB336e4wO+imfwiv3XUVL/dqBBmEizlAMcBMLy2pH9SVZGZHUMmHIKjpRP2NjeYSFOj4BdQHpFCp06eJMFCLFkjmH4pUd/YuKpgKXm229JZc45xjp+rAn7m9/vXxEzhGRv93UBP70/B8F6azbi9O+B/9yNAUT296a1kOr2CAwylFSwvbccUpKeDyIQn4Wh3w9bUCSYINCh5C5bcjrenTpykjiKWXu6CfmfYpsbGVRN8lVywWIqamXWaMfyQy+K/e8e9pnAIYzbLJ7gkXwWgt0KnsQKwr3gDo1/zAkXPm0FvI9PtuviDay6aZAmpcQ9ix55GNhxa1ZGUeNnDlEdo84kKKdBG5DFfDLCwNJosF4tgK4aFhXs4w4cVhl6P3/9ls4gVAPB4PFEG/mYOJCpt/jLgBOfCVd7A6FdRArFCgsWEeAOBRwCEzHAvqpRBMngSsePPQYrM0uAYIFhOkmAhXtyc6Lew1OfKxSKXJhcLlzKQFueQDU8a/FLkH/UGApt9fv8P/X6/KVN1ewKBAwB/T6le2iZgmjPcCqtlpy/o+1Mp/zAdCZkPFWC/APinzXJDSiaJhP8oxJlaVG3oh6WukUZpOcGShw/L/Pw8ZmZm0GqibJfEGgkWA45bm5ty5WIxXrBwWYKSjEFOxqAko5CTMfBi5V5hbBiAYvax9AUCvx10932Ig/9onRoC0uB4lDP+bypjv1kr8UiCxYxYhO9CVj4MwFRJUpRkDHHvIYjV9ajq6IdllcrQlfkCEpdKIORYvE+eOEGChYBggIWlsalp9d2PHh8WzqGkE1BSCSjpOJRkHGo6DlXKlrKbHOUynp7A6P/r7+1NMI4vAHwjwMr9/XqMA/cxhvszsvzo+Ph4as1fjbRsmA+v1zvW39v7vxjHt814f0piAfHTB2B1NcOxoQ9iFeUVeQHRXpUz0+fJEydx+RVXUGdVvMDVvxFvalxdsCAPHxauyFAzSSjpJNT0mf9mElAyqaVMuWu51jCWLKcx9fn9vwDwi97eXoeF8/M4Y9vB2XbG+A7OsR1AuxnvmwMJBhzmYAfB+H4mig96vd4x0+3ladkw7cT/Tr+7bxsDf79Z71FanIMUDcNWv5Q1V3BUVfy4CXYnEF9Y9TMnThynCU4Y4sOS28Iiv2gtUaXMGWGSgJpKQskkoWaSpbaYFIRVkibKcWzPHJkcOPPvRbq6uhrtgtDHIPZxhj5w3g+gDwx9WIo0KnZc+BTAJsD4BIATAA4qwPN+v/8UysAHhwSLmUVLYPQvB9zuFMA+atqb5BzZyAyyC7OwNbXD0dYHwVa5WXPz8WM5eZwcb4kz80UQoOqoot6Uo56Qmk4iduI5qJlkGVZr53Onxscn1tN4j4+PzwOYBzC83O+HhoZqeSrVwgWhReG8SeBCEwTezDlrYoxbVA4bY6heWnqZyBivWxpoJACkmYBFVUUSQIaBRRiQZCKCTFHGVZtt4tykeuUGCRZzo3oDgY8N9PQ9B8a/g5cKcJlTuMxNQpqfhq25A/bWnopM9y/ac7sdeb1eyLIMi4UePxIs+gSLo8oBp9OJZHL5kxOuKlBS8bLsGw7cW2nz4eTJkzEsFWPy0dOxzPNCXWB+vMHRn8MibgbDzwFwM98rV1VkZsYRO/Y0UuMeU5ubi/JA5ZE8LpvNwuel9YgABEHUfY36hvXp/M6AH9AMIUiwlKNo8XpnvH7/zeDq5eC4z/S7ozPp/mPHnqoo4SLa8vPjOX7sGE1qAoIBjrcuV/16VCu/9AYCT9IMIUiwlLNwCQaf8Ab91zLwPWD4FcBlM9/vS8LlaaQmTkOVMut7gEQRQh71VEZGRmgyE4YIljpX3XrrlmMK8CGaHQQJlnWCJxA44PX7b5KBHs7xeQCmLlLDVQWZmXFER55CMnACSia5fh+qPI6FjpFgIQAIogEFEOvW1ZHQk7CIV/v9/gWaHcS5kNdfmRMIBCYBfBPAN/t7+i8TmPo+Dn4jwMyZHIVzZOcnkY1MLeVxaXNDdNaur5eQzQlgMadg4ZwbEtpKlC+MLCxLywKQEBi+4PH7v4cyyGxLrNHaSl2wfvAFfX/yBPzvcyRrNnDw9wPsCfOuUBzSwixiJ/cj7nke8mJ4zZNUGfZQ5RHaHI1GMT42RpO20hdgI3xY6urLWarMMYavCFZLn8fv/zaJFWI1yMKyDhmZHYkD+FcA/9rf1b+Rify9gPoegHWZ8X7lWATxWASCvQqOli7YGjcAoli2/S868quoMDIygu6eHpqwJFh0UYYWligH/53AhV/aa6vvGxkZydJMIPJ6XqgL1je+cd9pb2D0f3kDgV7GcD3AH4RJQ6PVTArJ8dNYHHkS6ZAXajZVng9VnpFCI0fJj4UEi/4l2Ol0lsvXPQbwGxSGNl8g8G5PcPRuEitEIZCFpXJQPH7/XQDu2uh2b1EZ+yQ4bgZguuxuXJGRng4iPTMGS00D7M0dsLqagTLx98jH6RYgx1vCKMFSXRbflTH8yuMP3EGjTpBgIfLmdCBwHMCHNnV1/a0qWD7DGf4SJqsMvaRcOOTYPOTYPASrHdbGdtibN+RtwVizhVm0gFms4DkKz5FgIYwQLDXVxj8PTBCmm5ubAl0bOlNNbc08k87g2MjxmnB4bq+Oyx6kESdIsBCaOFOn49aBgYH/zSTlVs7wEQCmPBBXpQwy0wFkZoKw1tTD2tgGq6sFTDTnFBbsTijy6pFCs7OzmJmeRmtbG01GEiyaMeJISBTEkNvd47viiivZNa++pr+trXUDgLMm5uEjR49/9tOf0f4MCwIJFoIEC6EPr9c7A+Cve3p6/t4C4WMCwyc40GjKm+UcUiwCKRYBE07BUtcEW2M7rHWNADOPS5Zod0BJLOb83MjICAmWCoYZkJpfg2DhosUy3tnZEbz88sv5q66+yt3Z3d0NoGO1Rv19vZ2aH1sg4fP5gjTiBAkWwhCCwWAEwN8ODQ19W05n/wrgnz53l2Uq7aKqkBZmIS3MgokWWOtbYXU1wVLbaEh+C107Z1t+L5GjR47i6muuoclXoYhGWFiqc/uwXHX1VY9ccfnlrubW5ureHnen3eHoBtBdyN+pqampEwRhTlXV5oKFGTBHo02QYCEM50zF0G91dXV93yZY/pIx/I9cu681Fy+KjGw4hGw4BAgirLWNsNY3wVrXDGaxll6wOPLzKzhy+BBNuApGMCB83+Fw5Kz6fOFFF9Rcetmlu/T+rWqnMxSLx5s1NA3TaBO6nxfqAmIlxsfHU76g/7sKwwA4PgEgVBY3riqQFmeRDJzA4tEnED99AJnpAOTEYsmS0+UbKXTk8BGaaJW8ABtgYWGMoapq9flmtdgMWetbWlqimjYUnCwsBAkWogT4/f60N+j/XtkJlzMrpRxfRCrkQ/zUASwcfhxxz6GiC5h8I5lmZ2cxOTlJk6yCBYsR5Rly+bHYbDZDMjH29vVqKrbKgBSNNkGChVgj4cI+DmCi7L6EqkCOzZ8tYE4/j9SEF9nINJR00hARI1isEPI8ijp8iI6FKnoRNuBYyFm9umCxWi2GrPVbtmxxaGnHGBdppAm9kA8LoUm4APin3t7eH4sq+yAY/xyAzrL8MqoCOR6BHI+89DNRhKWqBqKzFqKjGoLdCcFWBcFWWI49wVYFNUcuFgA4cugwXnvttTSxKhRRFKHIsq5r5LKwWC1WQwTDzl27N2hpx8HoXUOQYCHMIVwsnL+Pg30WQG/ZfzFFgRxfhBw/OyyZCcKScLFXvfRfqw2C1QomWsEstrMcfAV7FZDMfeR/5MhhmkyVLFiMiBSqyiFYbMYIlu7uzh7GWIxzXmCJdU7vGoIEC2Ea4XLbnj17frwQDr+DcXyeA5vX2/fkqgolnYCSTqz8IcbOZLq1AYqU13WPHD4CzrkhvgxE+VGKIyGoxjhrMcZYTU2NLxaLnV/QswNWSyNN6H5WqAsIoxgeHpa8fv/PPAH/VsbZTRx4vuI6gXNwWYKaTkCV8qvrFo1G4ff7aQJVKKIBgqXKsbpriSTLqlH329/ft6ChWSuNNEGChTAjqic4+itfwL+Lc+FyAH+kLlmdI4fpWKhiF2EDst3ac/hXqaslaSmQXbt2FXzDzMQJKAkSLAQBAPAFfX/yBvyvYgxXM4YHqEdWECyHSLBUKkZYWCw226q/z0qSYYJl997dWqwlzh1tbdU02gQJFsL0ePz+Rzx+/2u4KlzAgP8EIFGvvMTBg1QXrmIXYVH/Mmy3ry5YVMW4I6HBgcE+aMirkrTb3TTaBAkWomzwjfn2ewL+dyoMPYzhKwyYp14Bjo2MIJPJUEdU4iJswJGQ1bp6zp+sLBuWIVEURWt1TY2n4IZcHKTRJkiwEGWH3++f8vj9X7Ynq90M/KMAjlVyf2SzWRwbGaGJUYEYcSSU04dFMc6HBQA2bdxY8EaDC+pGGm2CBAtRtozMjsQ9gcA/ewP+rYzhajD8EhV6XPQ8HQuRYNEqWOyrC5Z0Oq0Yec8XXXyhreBGnJFgIUiwEOsDj9//iNfvf6vC0APwvwHgq6Tvf+DAAZoElbgIGyBYbLbVj4Ti8bhs5D1feOFFPRreNufRaBMkWIh1hd/vn/IGAl/zBvwD4OpeMHwPFVCefnj/MA1+BSIaIlhWN3gk4glDLSydHR2dgiDMFNSI43wAlB2RIMFCrE+8weCw1+//REaRuznDOwB2D4B16Z06Mz2NqckpGvQKgzEGQWd6fmsOwRKPx1Wj77upuclfYJO6we7ufhpxggQLsa4ZHx9P+fz+X3gDo29ISdlGxtkbAf5vAGLr6XsepGOhikS06KuSkutIKJlMcKPv+fwdO5KFtlEFYSeNNkGChagYQqFQ0hMcvdsbCLwno8htAL8B4D8G4C/370b5WCoTi6hXsOQ4EkokDT+Kuejifa6CXzic7aXRJjQ/J9QFRDkzPj6eAnDHmX8Y6BoY5BblzxjHqwFcDaChrAQLWVgqEtGiz48lV5RQMpkwXLDs3bNnIwC1kI0vZ7iYRpsgwUIQALzjXg8AD4AfAGC9vb1DosouBFMvYJxdyBl2ArCZ9f5Hjh5FNpvNuWMm1ptg0Wlhsa4+X5KplOHWdKfTWWOz2TzZbLaQhHAX7Nmzxzo8PEyZrgkSLATx8g2d3+8/AeAEgJ8DwNatW22ZeHwruLCRM3UjONsIhiEAGwE0rfUNZ7NZHD50GHsvIMt5RQkWnZFCuXxYsulMUY7/3T09U6c9nkIEizMyE9kJ4DkadYIEC0GswsjISBbAwTP/zqKjo8PpcDiaBUVp5oy1cs6bwFkzAAcACAIEAC8/t8+oKuYZWIQBERUsIkCe5xBeDYbvar3H/fufI8FSaQuxTh+WXEdCqUxGLMZ9796zl5/2FJalnzH1YhIsBAkWgtBBKBRKAgie+aeZwcHBWS7J34ZGp/bh5/YDH6bxqCT0HgnlqtYsZdLWYtz3xZfsa/uv/7q9sEZLfizfo1EnCoWihAjCYDwezyzXsYMc3r8fqqpSR1aUYNHpdJtDsGQlpShOUUObNvYDKDS8+RIacYIEC0GYBY7/1to0Go3i1KlT1IeVJFiKHNYsy1JRBIsgipbqamehJTR6BjsHu2jUCRIsBGECGNR79LTf/+yz1IkVJVj0WVisVisYWzlyWVEUR7Hu3e3unS/8CytkZSFIsBCEGfAGgwcAhDQLluf2UydWksBlTJdoYYzBal3ZTUVVVXux7v38888vOMcLF/ilNOoECRaCMAecAfdqFiz7KYii0tDreLuaHwtXeXWx7nv33j3NhT8duJxGnCDBQhAmQQXX7McyNTmF8fFx6sRKEiy6c7GsIljAqxVFUYpx31s2D/UDKDQR3I7+/n4XjTpBgoUgzPBwWa0PAMhqbb//WbKyVBKW4oY2s2QyGS/GfVutVrvdbh8tVJ8JqrqPRp0gwUIQJsDj8UQB9rjW9s8++wx1YkUJFn2pUnIlj4vGYkWrbN7RsWG20Dac88to1AkSLARhGtQ/aG35zNNPU/dVlGDRG9q8uuCJx2PJYt17X1+fhtpAjAQLQYKFIMyCwpjm8OaAP4BQKESdWCmCxarPwpKrAOJCZDFdrHvfsmWLlrDpi7Zu3UpVPgkSLARhBs4UX/Rqbf/s03QsVDGCxVLcekILkYVMse59aMuWRg3NqpLJ5E4aeYIEC0GYBu3RQnQsVEGCRa+FxbG6sWJxcSFbrHvvc/d0Ayi4ngTjfA+NPEGChSDMAmOaBctTTz1F/Vcpi7EgQBC0L8kO2+qnMgsLC0qx7t1mt1eJojipQbDsopEnSLAQhFn0isXyMMA1hZSOj41RPpYKQo+VxeFY/UhocXGxqBU161x10xpeQbtp1AkSLARhEjweTwaM/VFr+6fJylI5gkWHH4s9h2CJRqOsmPe+oX2DBlHOt5HjLUGChSBMBAcovJnILVh0WFhy5mGJRou63re1tWmx4Ngz8fhWGnmCBAtBmAQmivcs6ZbCefpJsrBUClYdyeMc9tV9WOKJpFjMe29tbdN6fToWIkiwEIRZ8Hq9Y2A4qqXt5OQkgoEAdWIFYLFqPxKy5bCwpJKpoh69bNjQpun6KgRyvCVIsBCEmWAqNCeRe/KJJ6kDK0Gw6LCwVOXwYUln0vZi3ntrW6tTU0POt9PIEyRYCMJEqBA0C5YnnvgTdWAlCBZdFpbVj4RkSaou5r23tLTVaRLyDL008gQJFoIwEb6g7ykAYS1tn3ryKaiqSp243gWLxQrGtAXzVDlWFyyKqtQU896bmxsaNTbtpEghggQLQZgLhYHdq6XhQiSCkaMj1IMVgChqs7LksrBwRS2qhcXprK4FoKVekZheTPfQyBMkWAjCRKiM07EQsSpWmzY/Frt99XaKqjrVIpvpGIOmitBc4O008gQJFoIwEbKq3gtwWZNgeZwES0UIFqu205EqR1VOPZFOpxJFvXkmSBpb1tPIEyRYCMJEBIPBCOdMU8jP8P79SKVS1InrXbBotLA4qnIKFsRi8Xgx710UBE0VoQVwEiwECRaCMBsM2sKbs9ks9j/3HHXgehcsGi0sNdW5XVRi0VhRLSyMMW0FFpnqopEnSLAQhOkEi6rdj+VPdCy07gWLTZtgqa3NHQQUjUbTxbx3zlVN7xSVMQqBI0iwEITZ8ASDIwC8mgQL+bGsf8GisZ6Q3eHIWTwxGotlinnvnENTiJPAeZZGniDBQhCmhGsqhnjixAnMzc1R961jGGOaRUtNzepWloX5haIKA5VzbTHZXCDBQpBgIQiTvpU0HQtxzvGnxx6n/lvnaD4WyiFYFqOLcjHudy48P/OD2374GFfVOo2XWKBRJ3JhoS4giDXQKxbLw1yS4gArOPvoo488gutveBN14noWLFYbgML9Y525BMvigmG+IvF4PHr33b8/8t/3/N42MzO3E8AVWq/FuTBKo06QYCEIE+LxeDIDPb0PgeG6Qts+/vjjUBQFoihSR65XwaIxtDmXhSUWi3E99xWNxSL3/O6eY/fe+wfL1PT0TgCXGvB1eXU2ToKFIMFCEOaF3QPwggXLQiSCI4cPY+euXdSF61WwWIsTKRRdjBbsBjA5OTlx5x13eR95+OHahcWF7QC71OCvGzo8PZ2gUSdIsBCEWR8+Lt8jM5EDKLja3aOPPEKCZT0LFo0+LNU1tav+PpNKrXrhudnZ6WPHT0wcPTISe/7gAcv4xESvoiidADrPiGzDvysHf5hGnCDBQhAm5uTYWGjA3XsQwG4tguUTt95KnbheBYt1qWoz54Wd4NTUrJ48zhcM9nz84x9/HABisbhFlRUhlkg4M+m0S5LlJga0YelfKbmXRpwgwUIQpoffA7CCBcvRI0cRDofR1NREXbheF2erFVK2sGjf2lwWlnS64+SJUx3L/Y6twXdkwHx1On0njTaRDxTWTBBr+QBqDG9WVRWPP/oYdeA6xqbBj6W2trq8viTD98l/hSDBQhBlwGm//zkA01raPvboo9SB61mw2O0Ft8nlw2Iy/M5U6u9ppAkSLARRHqjg0JT19rHHHoOiKNSDJFhexOUqmxqCCufqB8i6QpBgIYgygjP+ey3tXghvJkiwvEBjY2NZfDcG/nFfMPgQjTJBgoUgyoiqZM19ADRV0X3oQVrz161gsdnAWGGusI2NDWb/WirAP+MJBG6jESZIsBBEmTEyOxJn4A9qafvwQyRY1rVoKdDKUlVVBbvDYdavE2WcvdUbCPwjjSxBgoUgyvdRvEtLqxMnTmB8fJy6jwTLi5j0WOgRheF8T3D01zSqBAkWgihjFAF3A9BUmO7hh/5IHbhOsds0CJYGMx0LcQ/j7EZvwH+13+/304gSJFgIoswZHR2dBvC0lrYPPfggdeA6RZOFpWntLSyM41kwvN0bCGwmqwphFJTpliBMsxnFXWC4pNBmzzz9NBKJBKqrq6kP1xl2DYKlpaV1rW43wBhuVxj7yejo6EkaPYIEC0GsU1SR3SWo/JuFtpMkCY8/+hiuff3rqBPXGYIowmKxQJblvNu0tZZMsGQAPAWwh8CVP3iDwWEaMYIEC0FUAKOjoycH3L3HAWwptO1DDz1IgmWdYrPbCxMs7UUTLAuM4TnO2XNMwKPJTOZPoVAoSSNEkGAhiAqEcdzFWeGC5eE/PgxFUSCKInXiOsNudyCZyD8hrEEWFglgh8H4E1DZMIMy7AkGj0OjYzhBkGAhiPUmWATcyTk+X/DWNxLB8wcPYs/evdSJ64xCHW9b2tr0zMBhrrBbfOO+YwCo7gNhKihKiCBMxGm//1lwjGlpS9FC65NCHW9ra2pQVVWl6W9xxkO+cd8REisECRaCIHK/M4DfaGl43733Uu+tQ7LZTMFtNnR0aPpbjEOmHidIsBAEkZ9igaopb0XAH8Cpk6eoA9eLUMlkMDkxjqlQqOC23V1d2v4oI8FCkGAhCCJPvMHgk1qPhcjKUv4oioK5mRmMBwMFOdu+nK6uTq1qmY6CCBIsBEEU8Npg/E4tDe+/7z7qvTJFVVXMh+cQHPVhcSECzrnma3V2d2meeTQSBAkWgiDyhjGmyY/l+LFjGAsGqQPLTKgszM8jMOpDJByGquqPHO7q1HwkVEsjQpBgIQgibzx+/+MAJrW0feD++6kDy0yohOdmoSrGncZ0a7WwgLloZAgSLARBFPQ+Y8CdWhrSsZD5hUokHC6KUHkBp9OJpuZmLXdHgoUgwUIQRGFwcE3RQgeGD2BmZoY60GRIkoTw3CwCPi/mw3NFESovZ3BgQMOkIwsLQYKFIIgC8QYCjwKY1rKDpyRy5iGTTmNmahJj/lEszM8b4qOSD/0D/YU3YmgByPGWIMFCEERhKAD/pZaG999Lx0JrTSIRx0QwiPFgALFoVFfUjxY0WVgAx8DAQAuNHmFGqFIaQZiY5oaGeQ58oNB2E+PjGN7/HObn51FbW4vGpibqzFIoTEVBdGEB05MhRBcXC6qybDRWqwV33nlXwe1U4NcLCwsTNJqE2SDTH0GYnIGe3lNg2KjnGi0tLbj08svwqle9Gpdefhnq6uqoYw0kk04jurh4xpJijoLGnHO8+Ya3IFFg8jkO/hZfIPAbGlXCbFC1ZoIw/baC3w6wL+i5xOzsLO787R2487d3wGKxYPeePbj4kktw4UUX4vydO+FwOKifC0RRZMQWo4hGFyFls6a6t2gshoMHDsBusxUsWATATaNLmHIppC4gCHPT29u7WeQ4XqzrixYRW7achz1792Dv3gvIArOa9YFzJJMJxKNRJOLxkvulrISqqvB6vThw4CCeP3gQhw4dhqI1Conhu16//5M02gQJFoIgCmbA3bcf4HtK8bdEi4itW7di1+7d2L59B7bv2I6+/n4IQuX66KdSScSiUSRisZJF+eQSTsFAECMjx3D48CEMHziA6GLUqMvf6Q3430RPHWE26EiIIMoC9RcAK4lgUWQFhw8dxuFDh1/8mbPaiS1bzsO27duwbdt2bNu+DYMbN4Kx9bvnSaVSSMRiSMRja+o8Cyw58/p8Phw9OoKRkREcOnTISIFyLj30vBFmhCwsBFEGDHV3d8iCGISJIvtcLhc2btqIjRs3YdPQEDZu2oihoc1oaGwo235Op1KIr7FISSaT8PlGMerzwusbhc/rhdfrK+X9hL0BfzM9dQQJFoIgNDHg7nsQ4K8y+302NTVh09AQBjcOore3D909PXC7e9DV3Q273W6qe1VVFalUEsl4AolEHEoJRUo6lUYoNIGJiRACwSBGfT54faOYmpxcY98YNuwNjO6lJ44gwUIQhCYGe/rezRn/edkuNoyhrb0N3d09cLvd6O7pQWdnJ1rbWtHa2or2DRtQU1NT9PuQJAnJeByJRBzpVKpo4kBRFCwuLGBmbg5zs3OYmFgSJ6HQBELjEwjPz5t0pPhnvIHAP9ITR5BgIQhCE11dXVV20RICUL9ev2NVVRXa29vR3NKCjo4ONDU3o6GhHnUuF+rr6+Fy1cPlcqG+3gVXfX1e0UyKLCOVSiGVTCKZTECWJM33F43FkIjFEIsnEIvFkYjHEIvHsbiwiPlIBLOzM4jMz2N2LozFhQXtkTprR1RhcPv9/gV64ggSLARBaGbQ3XsbBz5MPbGEIAiora2FxWKBs7oadrv9xX+iKMBhd+S9ymWlLKRMFllJRiadhqooSKRSgKoikUggFo+v+/7kHF/2Bf1foZlFkGAhCEIXAz09e8CE/dQTRBE4yayW8z0eT4a6giDBQhCEbvrdvQcZsJN6gjCQNLh6mTcYHKauIMwKVWsmiLLbZbB/oV4gDEQFwy0kVggSLARBGIrElf8AkKaeIAxA4eAf9Pr9t1NXEGZHpC4giPJicXEx3VRffx6A7dQbhA5SAH+bLxD4BXUFUQ6QhYUgyhAOTsdChJ4ZdFRguMQbCNxBfUGUC2RhIYgyJLK46G+qd90HIAKwdgAN1CtEHigA+4ajpvodJ06fnqDuIMoJihIiiHXAoNu9iwM3AOwGAOdRjxDL8N/g6hfJuZYgwUIQhCno6+sbEhT+WgDXgOFKrOPMuERuOMf9goAvefz+p6k3CBIsBEGYFXGgp2cnh3AZE3ApOF4LoI66Zd0v7POc4deM8x95AoED1CMECRaCIMqKrVu32pLJ5E5RVfdyzi4A43sBtgXkz7YeCDLgIXB2R1dw9A+PADJ1CUGChSCI9SNiWrbWJB3JXaKgXgCwPRzYgqV/Duod05IE2HEwPsKBpyALD/nGfaepWwgSLARBVBrCYHd3n8qsWxjU8wBsYcB5nGEIgIu6p6hwANMAQgw8xDmb4EAIjI8zYJKp6inP2NgoAJW6iiDBQhAEsQK9vb31jDG3KMOtMt4HBjcDegG4AXQBaKVeWlaFJBgQ5sC8wDDLgUmuYoKBTYKp4wyYgmwdc7W7poeHhyXqMYIgwUIQRBG5CrBMdne3qqLYqnK+AYy1QkUbZ2gXwFo5eAPAXACvB1APcBfAasrk60kA4gCiABYBzC/942HGWZgzFuZQ5xlj8wJj81xRwhJj81ardZ6qIBMECRaCINaByJnq7HSpouhSgAZVFEWmsDowxSZwoRqAgwNVTODVqgobAEAAE5YJ2eaAA5zJjPFlnU5VFUkAGQAQGI9zLkgQeIapLKkyVQUXFwGZM2BBYCwpC0JSUZRoS0tLnCwfBLF2/H/YPk3NUCUoKgAAACV0RVh0ZGF0ZTpjcmVhdGUAMjAyNC0wNy0yMlQwNDozNjowNCswMDowMOmVk94AAAAldEVYdGRhdGU6bW9kaWZ5ADIwMjQtMDctMjJUMDQ6MzY6MDQrMDA6MDCYyCtiAAAAAElFTkSuQmCC;" parent="1" vertex="1">
          <mxGeometry x="11.27000000000001" y="191.52" width="50.68" height="70" as="geometry" />
        </mxCell>
        <mxCell id="pc7x9cxA0kI3egbfRs7N-20" value="" style="edgeStyle=orthogonalEdgeStyle;html=1;endArrow=none;elbow=vertical;startArrow=block;startFill=1;strokeColor=#545B64;rounded=0;strokeWidth=2;" parent="1" source="pc7x9cxA0kI3egbfRs7N-2" target="pc7x9cxA0kI3egbfRs7N-6" edge="1">
          <mxGeometry width="100" relative="1" as="geometry">
            <mxPoint x="260" y="361.52" as="sourcePoint" />
            <mxPoint x="237" y="361.52" as="targetPoint" />
            <Array as="points" />
          </mxGeometry>
        </mxCell>
        <mxCell id="4b94AUjlDM5f0rXcH-YZ-1" value="Checkout Source Code" style="edgeLabel;html=1;align=center;verticalAlign=middle;resizable=0;points=[];fontSize=12;" vertex="1" connectable="0" parent="pc7x9cxA0kI3egbfRs7N-20">
          <mxGeometry x="-0.1572" relative="1" as="geometry">
            <mxPoint y="-10" as="offset" />
          </mxGeometry>
        </mxCell>
        <mxCell id="pc7x9cxA0kI3egbfRs7N-21" value="" style="edgeStyle=orthogonalEdgeStyle;html=1;endArrow=none;elbow=vertical;startArrow=block;startFill=1;strokeColor=#545B64;rounded=0;strokeWidth=2;" parent="1" source="pc7x9cxA0kI3egbfRs7N-25" target="pc7x9cxA0kI3egbfRs7N-11" edge="1">
          <mxGeometry width="100" relative="1" as="geometry">
            <mxPoint x="620" y="81.52000000000001" as="sourcePoint" />
            <mxPoint x="247" y="371.52" as="targetPoint" />
          </mxGeometry>
        </mxCell>
        <mxCell id="4b94AUjlDM5f0rXcH-YZ-2" value="Push Image" style="edgeLabel;html=1;align=center;verticalAlign=middle;resizable=0;points=[];fontSize=12;" vertex="1" connectable="0" parent="pc7x9cxA0kI3egbfRs7N-21">
          <mxGeometry x="-0.3962" y="3" relative="1" as="geometry">
            <mxPoint y="-10" as="offset" />
          </mxGeometry>
        </mxCell>
        <mxCell id="pc7x9cxA0kI3egbfRs7N-22" value="" style="edgeStyle=orthogonalEdgeStyle;html=1;endArrow=none;elbow=vertical;startArrow=block;startFill=1;strokeColor=#545B64;rounded=0;strokeWidth=2;" parent="1" source="pc7x9cxA0kI3egbfRs7N-26" target="pc7x9cxA0kI3egbfRs7N-12" edge="1">
          <mxGeometry width="100" relative="1" as="geometry">
            <mxPoint x="770" y="121.52000000000001" as="sourcePoint" />
            <mxPoint x="709" y="281.52" as="targetPoint" />
          </mxGeometry>
        </mxCell>
        <mxCell id="4b94AUjlDM5f0rXcH-YZ-3" value="Deploy Microservice" style="edgeLabel;html=1;align=center;verticalAlign=middle;resizable=0;points=[];fontSize=12;" vertex="1" connectable="0" parent="pc7x9cxA0kI3egbfRs7N-22">
          <mxGeometry x="-0.417" y="2" relative="1" as="geometry">
            <mxPoint y="-10" as="offset" />
          </mxGeometry>
        </mxCell>
      </root>
    </mxGraphModel>
  </diagram>
</mxfile>
